  0
SECTION
  2
HEADER
  9
$ACADVER
  1
AC1015
  9
$ACADMAINTVER
 70
     6
  9
$DWGCODEPAGE
  3
ANSI_1252
  9
$INSBASE
 10
0.0
 20
0.0
 30
0.0
  9
$EXTMIN
 10
0.0
 20
0.0
 30
0.0
  9
$EXTMAX
 10
1064.825439
 20
454.145813
 30
2.0
  9
$LIMMIN
 10
0.0
 20
0.0
  9
$LIMMAX
 10
420.0
 20
297.0
  9
$ORTHOMODE
 70
     0
  9
$REGENMODE
 70
     1
  9
$FILLMODE
 70
     1
  9
$QTEXTMODE
 70
     0
  9
$MIRRTEXT
 70
     1
  9
$LTSCALE
 40
1.0
  9
$ATTMODE
 70
     1
  9
$TEXTSIZE
 40
2.5
  9
$TRACEWID
 40
1.0
  9
$TEXTSTYLE
  7
Standard
  9
$CLAYER
  8
0
  9
$CELTYPE
  6
ByLayer
  9
$CECOLOR
 62
   256
  9
$CELTSCALE
 40
1.0
  9
$DISPSILH
 70
     0
  9
$DIMSCALE
 40
1.0
  9
$DIMASZ
 40
2.5
  9
$DIMEXO
 40
0.625
  9
$DIMDLI
 40
3.75
  9
$DIMRND
 40
0.0
  9
$DIMDLE
 40
0.0
  9
$DIMEXE
 40
1.25
  9
$DIMTP
 40
0.0
  9
$DIMTM
 40
0.0
  9
$DIMTXT
 40
2.5
  9
$DIMCEN
 40
2.5
  9
$DIMTSZ
 40
0.0
  9
$DIMTOL
 70
     0
  9
$DIMLIM
 70
     0
  9
$DIMTIH
 70
     0
  9
$DIMTOH
 70
     0
  9
$DIMSE1
 70
     0
  9
$DIMSE2
 70
     0
  9
$DIMTAD
 70
     1
  9
$DIMZIN
 70
     8
  9
$DIMBLK
  1

  9
$DIMASO
 70
     1
  9
$DIMSHO
 70
     1
  9
$DIMPOST
  1

  9
$DIMAPOST
  1

  9
$DIMALT
 70
     0
  9
$DIMALTD
 70
     3
  9
$DIMALTF
 40
0.03937
  9
$DIMLFAC
 40
1.0
  9
$DIMTOFL
 70
     1
  9
$DIMTVP
 40
0.0
  9
$DIMTIX
 70
     0
  9
$DIMSOXD
 70
     0
  9
$DIMSAH
 70
     0
  9
$DIMBLK1
  1

  9
$DIMBLK2
  1

  9
$DIMSTYLE
  2

  9
$DIMCLRD
 70
     0
  9
$DIMCLRE
 70
     0
  9
$DIMCLRT
 70
     0
  9
$DIMTFAC
 40
1.0
  9
$DIMGAP
 40
0.625
  9
$DIMJUST
 70
     0
  9
$DIMSD1
 70
     0
  9
$DIMSD2
 70
     0
  9
$DIMTOLJ
 70
     0
  9
$DIMTZIN
 70
     8
  9
$DIMALTZ
 70
     0
  9
$DIMALTTZ
 70
     0
  9
$DIMUPT
 70
     0
  9
$DIMDEC
 70
     2
  9
$DIMTDEC
 70
     2
  9
$DIMALTU
 70
     2
  9
$DIMALTTD
 70
     3
  9
$DIMTXSTY
  7
Standard
  9
$DIMAUNIT
 70
     0
  9
$DIMADEC
 70
     0
  9
$DIMALTRND
 40
0.0
  9
$DIMAZIN
 70
     0
  9
$DIMDSEP
 70
    44
  9
$DIMATFIT
 70
     0
  9
$DIMFRAC
 70
     0
  9
$DIMLDRBLK
  1

  9
$DIMLUNIT
 70
     2
  9
$DIMLWD
 70
    -2
  9
$DIMLWE
 70
    -2
  9
$DIMTMOVE
 70
     0
  9
$LUNITS
 70
     2
  9
$LUPREC
 70
     4
  9
$SKETCHINC
 40
1.0
  9
$FILLETRAD
 40
2.5
  9
$AUNITS
 70
     0
  9
$AUPREC
 70
     0
  9
$MENU
  1
.
  9
$ELEVATION
 40
0.0
  9
$PELEVATION
 40
0.0
  9
$THICKNESS
 40
0.0
  9
$LIMCHECK
 70
     0
  9
$CHAMFERA
 40
2.5
  9
$CHAMFERB
 40
2.5
  9
$CHAMFERC
 40
0.0
  9
$CHAMFERD
 40
0.0
  9
$SKPOLY
 70
     0
  9
$TDCREATE
 40
0.000000000
  9
$TDUCREATE
 40
0.000000000
  9
$TDUPDATE
 40
0.000000000
  9
$TDUUPDATE
 40
0.000000000
  9
$TDINDWG
 40
0.0000000000
  9
$TDUSRTIMER
 40
0.0000000000
  9
$USRTIMER
 70
     1
  9
$ANGBASE
 50
0.0
  9
$ANGDIR
 70
     0
  9
$PDMODE
 70
     0
  9
$PDSIZE
 40
0.0
  9
$PLINEWID
 40
0.0
  9
$SPLFRAME
 70
     0
  9
$SPLINETYPE
 70
     6
  9
$SPLINESEGS
 70
     8
  9
$HANDSEED
  5
375
  9
$SURFTAB1
 70
     6
  9
$SURFTAB2
 70
     6
  9
$SURFTYPE
 70
     6
  9
$SURFU
 70
     6
  9
$SURFV
 70
     6
  9
$UCSBASE
  2

  9
$UCSNAME
  2

  9
$UCSORG
 10
0.0
 20
0.0
 30
0.0
  9
$UCSXDIR
 10
1.0
 20
0.0
 30
0.0
  9
$UCSYDIR
 10
0.0
 20
1.0
 30
0.0
  9
$UCSORTHOREF
  2

  9
$UCSORTHOVIEW
 70
     1
  9
$UCSORGTOP
 10
0.0
 20
0.0
 30
0.0
  9
$UCSORGBOTTOM
 10
0.0
 20
0.0
 30
0.0
  9
$UCSORGLEFT
 10
0.0
 20
0.0
 30
0.0
  9
$UCSORGRIGHT
 10
0.0
 20
0.0
 30
0.0
  9
$UCSORGFRONT
 10
0.0
 20
0.0
 30
0.0
  9
$UCSORGBACK
 10
0.0
 20
0.0
 30
0.0
  9
$PUCSBASE
  2

  9
$PUCSNAME
  2

  9
$PUCSORG
 10
0.0
 20
0.0
 30
0.0
  9
$PUCSXDIR
 10
1.0
 20
0.0
 30
0.0
  9
$PUCSYDIR
 10
0.0
 20
1.0
 30
0.0
  9
$PUCSORTHOREF
  2

  9
$PUCSORTHOVIEW
 70
     0
  9
$PUCSORGTOP
 10
0.0
 20
0.0
 30
0.0
  9
$PUCSORGBOTTOM
 10
0.0
 20
0.0
 30
0.0
  9
$PUCSORGLEFT
 10
0.0
 20
0.0
 30
0.0
  9
$PUCSORGRIGHT
 10
0.0
 20
0.0
 30
0.0
  9
$PUCSORGFRONT
 10
0.0
 20
0.0
 30
0.0
  9
$PUCSORGBACK
 10
0.0
 20
0.0
 30
0.0
  9
$USERI1
 70
     0
  9
$USERI2
 70
     0
  9
$USERI3
 70
     0
  9
$USERI4
 70
     0
  9
$USERI5
 70
     0
  9
$USERR1
 40
0.0
  9
$USERR2
 40
0.0
  9
$USERR3
 40
0.0
  9
$USERR4
 40
0.0
  9
$USERR5
 40
0.0
  9
$WORLDVIEW
 70
     1
  9
$SHADEDGE
 70
     3
  9
$SHADEDIF
 70
    70
  9
$TILEMODE
 70
     1
  9
$MAXACTVP
 70
    48
  9
$PINSBASE
 10
0.0
 20
0.0
 30
0.0
  9
$PLIMCHECK
 70
     0
  9
$PEXTMIN
 10
0.0
 20
0.0
 30
0.0
  9
$PEXTMAX
 10
1064.825439
 20
454.145813
 30
2.0
  9
$PLIMMIN
 10
0.0
 20
0.0
  9
$PLIMMAX
 10
420.0
 20
297.0
  9
$UNITMODE
 70
     0
  9
$VISRETAIN
 70
     0
  9
$PLINEGEN
 70
     0
  9
$PSLTSCALE
 70
     1
  9
$TREEDEPTH
 70
  3020
  9
$CMLSTYLE
  2
Standard
  9
$CMLJUST
 70
     0
  9
$CMLSCALE
 40
20.0
  9
$PROXYGRAPHICS
 70
     1
  9
$MEASUREMENT
 70
     1
  9
$CELWEIGHT
370
    -1
  9
$ENDCAPS
280
     0
  9
$JOINSTYLE
280
     0
  9
$LWDISPLAY
290
     0
  9
$INSUNITS
 70
     0
  9
$HYPERLINKBASE
  1

  9
$STYLESHEET
  1

  9
$XEDIT
290
     1
  9
$CEPSNTYPE
380
     0
  9
$PSTYLEMODE
290
     0
  9
$FINGERPRINTGUID
  2

  9
$VERSIONGUID
  2

  9
$EXTNAMES
290
     0
  9
$PSVPSCALE
 40
0.0
  0
ENDSEC
  0
SECTION
  2
CLASSES
  0
CLASS
  1
LWPOLYLINE
  2
AcDbPolyline
  3
AutoCAD 2000
 90
        0
280
     0
281
     1
  0
CLASS
  1
IMAGE
  2
AcDbRasterImage
  3
ISM
 90
      127
280
     0
281
     1
  0
CLASS
  1
OLE2FRAME
  2
AcDbOle2Frame
  3
AutoCAD 2000
 90
        0
280
     0
281
     1
  0
CLASS
  1
HATCH
  2
AcDbHatch
  3
AutoCAD 2000
 90
        0
280
     0
281
     1
  0
CLASS
  1
DICTIONARYVAR
  2
AcDbDictionaryVar
  3
AutoCAD 2000
 90
        0
280
     0
281
     0
  0
CLASS
  1
RASTERVARIABLES
  2
AcDbRasterVariables
  3
ISM
 90
        0
280
     0
281
     0
  0
CLASS
  1
IMAGEDEF
  2
AcDbRasterImageDef
  3
ISM
 90
        0
280
     0
281
     0
  0
CLASS
  1
IMAGEDEF_REACTOR
  2
AcDbRasterImageDefReactor
  3
ISM
 90
        1
280
     0
281
     0
  0
CLASS
  1
IDBUFFER
  2
AcDbIdBuffer
  3
AutoCAD 2000
 90
        0
280
     0
281
     0
  0
CLASS
  1
SPATIAL_FILTER
  2
AcDbSpatialFilter
  3
AutoCAD 2000
 90
        0
280
     0
281
     0
  0
CLASS
  1
XRECORD
  2
AcDbXrecord
  3
AutoCAD 2000
 90
        0
280
     0
281
     0
  0
CLASS
  1
SORTENTSTABLE
  2
AcDbSortentsTable
  3
AutoCAD 2000
 90
        0
280
     0
281
     0
  0
CLASS
  1
LAYER_INDEX
  2
AcDbLayerIndex
  3
AutoCAD 2000
 90
        0
280
     0
281
     0
  0
CLASS
  1
SPATIAL_INDEX
  2
AcDbSpatialIndex
  3
AutoCAD 2000
 90
        0
280
     0
281
     0
  0
CLASS
  1
OBJECT_PTR
  2
CAseDLPNTableRecord
  3
"ASE-LPNTableRecord"
 90
        1
280
     0
281
     0
  0
CLASS
  1
LAYOUT
  2
AcDbLayout
  3
AutoCAD 2000
 90
        0
280
     0
281
     0
  0
CLASS
  1
PLOTSETTINGS
  2
AcDbPlotSettings
  3
AutoCAD 2000
 90
        0
280
     0
281
     0
  0
CLASS
  1
ACDBDICTIONARYWDFLT
  2
AcDbDictionaryWithDefault
  3
AutoCAD 2000
 90
        0
280
     0
281
     0
  0
CLASS
  1
ACDBPLACEHOLDER
  2
AcDbPlaceHolder
  3
AutoCAD 2000
 90
        0
280
     0
281
     0
  0
CLASS
  1
VBA_PROJECT
  2
AcDbVbaProject
  3
acadvba
 90
        0
280
     0
281
     0
  0
CLASS
  1
WIPEOUT
  2
AcDbWipeout
  3
WipeOut|AutoCAD Express Tool|expresstools@autodesk.com
 90
      127
280
     0
281
     1
  0
CLASS
  1
WIPEOUTVARIABLES
  2
AcDbWipeoutVariables
  3
WipeOut|AutoCAD Express Tool|expresstools@autodesk.com
 90
        0
280
     0
281
     0
  0
CLASS
  1
RTEXT
  2
RText
  3
RText|AutoCAD Express Tool|expresstools@autodesk.com
 90
        0
280
     0
281
     1
  0
CLASS
  1
ARCALIGNEDTEXT
  2
AcDbArcAlignedText
  3
ATEXT|AutoCAD Express Tool|expresstools@autodesk.com
 90
        0
280
     0
281
     1
  0
ENDSEC
  0
SECTION
  2
TABLES
  0
TABLE
  2
VPORT
  5
7
100
AcDbSymbolTable
 70
     1
  0
VPORT
  5
15
100
AcDbSymbolTableRecord
100
AcDbViewportTableRecord
  2
*ACTIVE
 70
     0
 10
0.0
 20
0.0
 11
1.0
 21
1.0
 12
6.591288
 22
4.579184
 13
0.0
 23
0.0
 14
1.0
 24
1.0
 15
0.0
 25
0.0
 16
0.0
 26
0.0
 36
1.0
 17
0.0
 27
0.0
 37
0.0
 40
9.158369
 41
0.688564
 42
50.0
 43
0.0
 44
0.0
 50
0.0
 51
0.0
 71
     0
 72
   100
 73
     1
 74
     1
 75
     0
 76
     0
 77
     0
 78
     0
281
     0
 65
     0
110
0.0
120
0.0
130
0.0
111
1.0
121
0.0
131
0.0
112
0.0
122
1.0
132
0.0
345
0
346
0
 79
     0
146
0.0
  0
ENDTAB
  0
TABLE
  2
LTYPE
  5
4
100
AcDbSymbolTable
 70
     3
  0
LTYPE
  5
11
100
AcDbSymbolTableRecord
100
AcDbLinetypeTableRecord
  2
ByBlock
 70
    64
  3

 72
    65
 73
     0
 40
0.0
  0
LTYPE
  5
12
100
AcDbSymbolTableRecord
100
AcDbLinetypeTableRecord
  2
ByLayer
 70
    64
  3

 72
    65
 73
     0
 40
0.0
  0
LTYPE
  5
13
100
AcDbSymbolTableRecord
100
AcDbLinetypeTableRecord
  2
Continuous
 70
    64
  3
Solid line
 72
    65
 73
     0
 40
0.0
  0
ENDTAB
  0
TABLE
  2
LAYER
  5
2
100
AcDbSymbolTable
 70
     1
  0
LAYER
  5
14
100
AcDbSymbolTableRecord
100
AcDbLayerTableRecord
  2
0
 70
     0
 62
     7
  6
Continuous
290
     1
370
    -3
390
1D
  0
ENDTAB
  0
TABLE
  2
STYLE
  5
3
100
AcDbSymbolTable
 70
     1
  0
STYLE
  5
17
100
AcDbSymbolTableRecord
100
AcDbTextStyleTableRecord
  2
Standard
 70
     0
 40
0.0
 41
1.0
 50
0.0
 71
     0
 42
0.0
  3
txt
  4

  0
ENDTAB
  0
TABLE
  2
VIEW
  5
5
100
AcDbSymbolTable
 70
     0
  0
ENDTAB
  0
TABLE
  2
UCS
  5
6
100
AcDbSymbolTable
 70
     0
  0
ENDTAB
  0
TABLE
  2
APPID
  5
8
100
AcDbSymbolTable
 70
     1
  0
APPID
  5
16
100
AcDbSymbolTableRecord
100
AcDbRegAppTableRecord
  2
ACAD
 70
     0
  0
ENDTAB
  0
TABLE
  2
DIMSTYLE
  5
9
100
AcDbSymbolTable
 70
     1
100
AcDbDimStyleTable
 71
     0
  0
DIMSTYLE
105
18
100
AcDbSymbolTableRecord
100
AcDbDimStyleTableRecord
  2
Standard
 70
     0
  3

  4

 40
1.0
 41
0.18
 42
0.0625
 43
0.38
 44
0.18
 45
0.0
 46
0.0
 47
0.0
 48
0.0
 71
     0
 72
     0
 73
     1
 74
     1
 75
     0
 76
     0
 77
     0
 78
     0
 79
     0
140
0.18
141
0.09
142
0.0
143
25.4
144
1.0
145
0.0
146
1.0
147
0.09
148
0.0
170
     0
171
     2
172
     0
173
     0
174
     0
175
     0
176
     0
177
     0
178
     0
179
     0
271
     4
272
     4
273
     2
274
     2
275
     0
276
     0
277
     2
278
    46
279
     0
280
     0
281
     0
282
     0
283
     1
284
     0
285
     0
286
     0
288
     0
289
     3
340
17
341
0
342
0
343
0
344
0
371
    -2
372
    -2
  0
ENDTAB
  0
TABLE
  2
BLOCK_RECORD
  5
1
100
AcDbSymbolTable
 70
     0
  0
BLOCK_RECORD
  5
A
100
AcDbSymbolTableRecord
100
AcDbBlockTableRecord
  2
*MODEL_SPACE
340
20
  0
BLOCK_RECORD
  5
B
100
AcDbSymbolTableRecord
100
AcDbBlockTableRecord
  2
*PAPER_SPACE
340
21
  0
ENDTAB
  0
ENDSEC
  0
SECTION
  2
BLOCKS
  0
BLOCK
  5
D
100
AcDbEntity
  8
0
390
0
100
AcDbBlockBegin
  2
*MODEL_SPACE
 70
     0
 10
0.0
 20
0.0
 30
0.0
  3
*MODEL_SPACE
  1

  0
ENDBLK
  5
E
100
AcDbEntity
  8
0
390
0
100
AcDbBlockEnd
  0
BLOCK
  5
F
100
AcDbEntity
 67
     1
  8
0
390
0
100
AcDbBlockBegin
  2
*PAPER_SPACE
 70
     0
 10
0.0
 20
0.0
 30
0.0
  3
*PAPER_SPACE
  1

  0
ENDBLK
  5
10
100
AcDbEntity
 67
     1
  8
0
390
0
100
AcDbBlockEnd
  0
ENDSEC
  0
SECTION
  2
ENTITIES
  0
VIEWPORT
  5
374
100
AcDbEntity
 67
     1
  8
0
370
     0
390
0
 62
     0
 48
0.0
100
AcDbViewport
 10
0.0
 20
0.0
 30
0.0
 40
1000.0
 41
1000.0
 68
     1
 69
     1
 12
0.0
 22
0.0
 13
0.0
 23
0.0
 14
1.0
 24
1.0
 15
1.0
 25
1.0
 16
0.0
 26
0.0
 36
1.0
 17
0.0
 27
0.0
 37
0.0
 42
50.0
 43
0.0
 44
0.0
 45
1000.0
 50
0.0
 51
0.0
 72
   100
 90
        0
340
0
  1

281
     0
 71
     0
 74
     1
110
0.0
120
0.0
130
0.0
111
1.0
121
0.0
131
0.0
112
0.0
122
1.0
132
0.0
345
0
346
0
 79
     0
146
0.0
  0
LINE
  5
24
100
AcDbEntity
  8
0
370
    35
390
0
 62
     7
 48
0.25
100
AcDbLine
 10
643.711853
 20
440.293762
 30
0.0
 11
653.711853
 21
440.293762
 31
0.0
210
0.0
220
0.0
230
1.0
  0
LINE
  5
25
100
AcDbEntity
  8
0
370
    35
390
0
 62
     7
 48
0.07
100
AcDbLine
 10
643.711853
 20
440.293762
 30
0.0
 11
643.711853
 21
443.09375
 31
0.0
210
0.0
220
0.0
230
1.0
  0
LINE
  5
26
100
AcDbEntity
  8
0
370
    35
390
0
 62
     7
 48
0.225
100
AcDbLine
 10
643.711853
 20
443.09375
 30
0.0
 11
634.711853
 21
443.09375
 31
0.0
210
0.0
220
0.0
230
1.0
  0
LINE
  5
27
100
AcDbEntity
  8
0
370
    35
390
0
 62
     7
 48
0.07
100
AcDbLine
 10
634.711853
 20
443.09375
 30
0.0
 11
634.711853
 21
440.293762
 31
0.0
210
0.0
220
0.0
230
1.0
  0
LINE
  5
28
100
AcDbEntity
  8
0
370
    35
390
0
 62
     7
 48
0.3
100
AcDbLine
 10
622.711853
 20
440.293762
 30
0.0
 11
634.711853
 21
440.293762
 31
0.0
210
0.0
220
0.0
230
1.0
  0
LINE
  5
29
100
AcDbEntity
  8
0
370
    35
390
0
 62
     7
 48
0.07
100
AcDbLine
 10
622.711853
 20
443.09375
 30
0.0
 11
622.711853
 21
440.293762
 31
0.0
210
0.0
220
0.0
230
1.0
  0
LINE
  5
2A
100
AcDbEntity
  8
0
370
    35
390
0
 62
     7
 48
0.225
100
AcDbLine
 10
613.711853
 20
443.09375
 30
0.0
 11
622.711853
 21
443.09375
 31
0.0
210
0.0
220
0.0
230
1.0
  0
LINE
  5
2B
100
AcDbEntity
  8
0
370
    35
390
0
 62
     7
 48
0.07
100
AcDbLine
 10
613.711853
 20
440.293762
 30
0.0
 11
613.711853
 21
443.09375
 31
0.0
210
0.0
220
0.0
230
1.0
  0
LINE
  5
2C
100
AcDbEntity
  8
0
370
    35
390
0
 62
     7
 48
0.25
100
AcDbLine
 10
603.711853
 20
440.293762
 30
0.0
 11
613.711853
 21
440.293762
 31
0.0
210
0.0
220
0.0
230
1.0
  0
LINE
  5
2D
100
AcDbEntity
  8
0
370
    35
390
0
 62
     7
100
AcDbLine
 10
603.711853
 20
384.293762
 30
0.0
 11
603.711853
 21
440.293762
 31
0.0
210
0.0
220
0.0
230
1.0
  0
LINE
  5
2E
100
AcDbEntity
  8
0
370
    35
390
0
 62
     7
 48
0.25
100
AcDbLine
 10
613.711853
 20
384.293762
 30
0.0
 11
603.711853
 21
384.293762
 31
0.0
210
0.0
220
0.0
230
1.0
  0
LINE
  5
2F
100
AcDbEntity
  8
0
370
    35
390
0
 62
     7
 48
0.07
100
AcDbLine
 10
613.711853
 20
384.293762
 30
0.0
 11
613.711853
 21
381.493774
 31
0.0
210
0.0
220
0.0
230
1.0
  0
LINE
  5
30
100
AcDbEntity
  8
0
370
    35
390
0
 62
     7
 48
0.225
100
AcDbLine
 10
613.711853
 20
381.493774
 30
0.0
 11
622.711853
 21
381.493774
 31
0.0
210
0.0
220
0.0
230
1.0
  0
LINE
  5
31
100
AcDbEntity
  8
0
370
    35
390
0
 62
     7
 48
0.07
100
AcDbLine
 10
622.711853
 20
381.493774
 30
0.0
 11
622.711853
 21
384.293762
 31
0.0
210
0.0
220
0.0
230
1.0
  0
LINE
  5
32
100
AcDbEntity
  8
0
370
    35
390
0
 62
     7
 48
0.3
100
AcDbLine
 10
634.711853
 20
384.293762
 30
0.0
 11
622.711853
 21
384.293762
 31
0.0
210
0.0
220
0.0
230
1.0
  0
LINE
  5
33
100
AcDbEntity
  8
0
370
    35
390
0
 62
     7
 48
0.07
100
AcDbLine
 10
634.711853
 20
381.493774
 30
0.0
 11
634.711853
 21
384.293762
 31
0.0
210
0.0
220
0.0
230
1.0
  0
LINE
  5
34
100
AcDbEntity
  8
0
370
    35
390
0
 62
     7
 48
0.225
100
AcDbLine
 10
643.711853
 20
381.493774
 30
0.0
 11
634.711853
 21
381.493774
 31
0.0
210
0.0
220
0.0
230
1.0
  0
LINE
  5
35
100
AcDbEntity
  8
0
370
    35
390
0
 62
     7
 48
0.07
100
AcDbLine
 10
643.711853
 20
384.293762
 30
0.0
 11
643.711853
 21
381.493774
 31
0.0
210
0.0
220
0.0
230
1.0
  0
LINE
  5
36
100
AcDbEntity
  8
0
370
    35
390
0
 62
     7
 48
0.25
100
AcDbLine
 10
653.711853
 20
384.293762
 30
0.0
 11
643.711853
 21
384.293762
 31
0.0
210
0.0
220
0.0
230
1.0
  0
LINE
  5
37
100
AcDbEntity
  8
0
370
    35
390
0
 62
     7
100
AcDbLine
 10
653.711853
 20
440.293762
 30
0.0
 11
653.711853
 21
384.293762
 31
0.0
210
0.0
220
0.0
230
1.0
  0
CIRCLE
  5
38
100
AcDbEntity
  8
0
370
    35
390
0
 62
     7
100
AcDbCircle
 10
633.548401
 20
417.992584
 30
0.0
 40
2.5
210
0.0
220
0.0
230
1.0
  0
CIRCLE
  5
39
100
AcDbEntity
  8
0
370
    35
390
0
 62
     7
100
AcDbCircle
 10
625.771851
 20
417.992584
 30
0.0
 40
2.5
210
0.0
220
0.0
230
1.0
  0
CIRCLE
  5
3A
100
AcDbEntity
  8
0
370
    35
390
0
 62
     7
100
AcDbCircle
 10
625.771851
 20
406.714172
 30
0.0
 40
2.5
210
0.0
220
0.0
230
1.0
  0
CIRCLE
  5
3B
100
AcDbEntity
  8
0
370
    35
390
0
 62
     7
100
AcDbCircle
 10
633.517639
 20
406.714172
 30
0.0
 40
2.5
210
0.0
220
0.0
230
1.0
  0
LINE
  5
3C
100
AcDbEntity
  8
0
370
    35
390
0
 62
     7
 48
0.065
100
AcDbLine
 10
749.725708
 20
350.651611
 30
0.0
 11
750.430481
 21
353.154266
 31
0.0
210
0.0
220
0.0
230
1.0
  0
LINE
  5
3D
100
AcDbEntity
  8
0
370
    35
390
0
 62
     7
 48
0.22
100
AcDbLine
 10
758.196228
 20
348.266205
 30
0.0
 11
749.725708
 21
350.651611
 31
0.0
210
0.0
220
0.0
230
1.0
  0
ARC
  5
3E
100
AcDbEntity
  8
0
370
    35
390
0
 62
     7
100
AcDbCircle
 10
703.967285
 20
440.609985
 30
0.0
 40
3.67433
210
0.0
220
0.0
230
1.0
100
AcDbArc
 50
115.38046
 51
120.256299
  0
ARC
  5
3F
100
AcDbEntity
  8
0
370
    35
390
0
 62
     7
100
AcDbCircle
 10
701.599731
 20
444.66864
 30
0.0
 40
1.024386
210
0.0
220
0.0
230
1.0
100
AcDbArc
 50
291.691954
 51
300.256294
  0
LINE
  5
40
100
AcDbEntity
  8
0
370
    35
390
0
 62
     7
 48
0.029482
100
AcDbLine
 10
701.978394
 20
443.716797
 30
0.0
 11
700.882629
 21
443.280914
 31
0.0
210
0.0
220
0.0
230
1.0
  0
LINE
  5
41
100
AcDbEntity
  8
0
370
    35
390
0
 62
     7
 48
0.036639
100
AcDbLine
 10
700.882629
 20
443.280914
 30
0.0
 11
699.538269
 21
442.697357
 31
0.0
210
0.0
220
0.0
230
1.0
  0
LINE
  5
42
100
AcDbEntity
  8
0
370
    35
390
0
 62
     7
 48
0.070941
100
AcDbLine
 10
699.538269
 20
442.697357
 30
0.0
 11
696.991333
 21
441.446259
 31
0.0
210
0.0
220
0.0
230
1.0
  0
LINE
  5
43
100
AcDbEntity
  8
0
370
    35
390
0
 62
     7
 48
0.071192
100
AcDbLine
 10
696.991333
 20
441.446259
 30
0.0
 11
694.516602
 21
440.037354
 31
0.0
210
0.0
220
0.0
230
1.0
  0
LINE
  5
44
100
AcDbEntity
  8
0
370
    35
390
0
 62
     7
 48
0.079854
100
AcDbLine
 10
694.516602
 20
440.037354
 30
0.0
 11
691.823608
 21
438.319641
 31
0.0
210
0.0
220
0.0
230
1.0
  0
LINE
  5
45
100
AcDbEntity
  8
0
370
    35
390
0
 62
     7
 48
0.076604
100
AcDbLine
 10
691.823608
 20
438.319641
 30
0.0
 11
689.266235
 21
436.631775
 31
0.0
210
0.0
220
0.0
230
1.0
  0
LINE
  5
46
100
AcDbEntity
  8
0
370
    35
390
0
 62
     7
 48
0.078866
100
AcDbLine
 10
689.266235
 20
436.631775
 30
0.0
 11
686.597168
 21
434.950134
 31
0.0
210
0.0
220
0.0
230
1.0
  0
LINE
  5
47
100
AcDbEntity
  8
0
370
    35
390
0
 62
     7
 48
0.071169
100
AcDbLine
 10
686.597168
 20
434.950134
 30
0.0
 11
684.169739
 21
433.463013
 31
0.0
210
0.0
220
0.0
230
1.0
  0
LINE
  5
48
100
AcDbEntity
  8
0
370
    35
390
0
 62
     7
 48
0.03536
100
AcDbLine
 10
684.169739
 20
433.463013
 30
0.0
 11
682.985229
 21
432.690033
 31
0.0
210
0.0
220
0.0
230
1.0
  0
LINE
  5
49
100
AcDbEntity
  8
0
370
    35
390
0
 62
     7
 48
0.034683
100
AcDbLine
 10
682.985229
 20
432.690033
 30
0.0
 11
681.863953
 21
431.873108
 31
0.0
210
0.0
220
0.0
230
1.0
  0
LINE
  5
4A
100
AcDbEntity
  8
0
370
    35
390
0
 62
     7
 48
0.021994
100
AcDbLine
 10
681.863953
 20
431.873108
 30
0.0
 11
681.186401
 21
431.311951
 31
0.0
210
0.0
220
0.0
230
1.0
  0
LINE
  5
4B
100
AcDbEntity
  8
0
370
    35
390
0
 62
     7
 48
0.021666
100
AcDbLine
 10
681.186401
 20
431.311951
 30
0.0
 11
680.553528
 21
430.719879
 31
0.0
210
0.0
220
0.0
230
1.0
  0
LINE
  5
4C
100
AcDbEntity
  8
0
370
    35
390
0
 62
     7
 48
0.018978
100
AcDbLine
 10
680.553528
 20
430.719879
 30
0.0
 11
680.032715
 21
430.167603
 31
0.0
210
0.0
220
0.0
230
1.0
  0
LINE
  5
4D
100
AcDbEntity
  8
0
370
    35
390
0
 62
     7
 48
0.018917
100
AcDbLine
 10
680.032715
 20
430.167603
 30
0.0
 11
679.547363
 21
429.587097
 31
0.0
210
0.0
220
0.0
230
1.0
  0
LINE
  5
4E
100
AcDbEntity
  8
0
370
    35
390
0
 62
     7
 48
0.039386
100
AcDbLine
 10
679.547363
 20
429.587097
 30
0.0
 11
678.638123
 21
428.300537
 31
0.0
210
0.0
220
0.0
230
1.0
  0
LINE
  5
4F
100
AcDbEntity
  8
0
370
    35
390
0
 62
     7
 48
0.049208
100
AcDbLine
 10
678.638123
 20
428.300537
 30
0.0
 11
677.642639
 21
426.602509
 31
0.0
210
0.0
220
0.0
230
1.0
  0
LINE
  5
50
100
AcDbEntity
  8
0
370
    35
390
0
 62
     7
 48
0.029417
100
AcDbLine
 10
677.642639
 20
426.602509
 30
0.0
 11
677.10498
 21
425.555847
 31
0.0
210
0.0
220
0.0
230
1.0
  0
LINE
  5
51
100
AcDbEntity
  8
0
370
    35
390
0
 62
     7
 48
0.029598
100
AcDbLine
 10
677.10498
 20
425.555847
 30
0.0
 11
676.629578
 21
424.471588
 31
0.0
210
0.0
220
0.0
230
1.0
  0
LINE
  5
52
100
AcDbEntity
  8
0
370
    35
390
0
 62
     7
 48
0.016994
100
AcDbLine
 10
676.629578
 20
424.471588
 30
0.0
 11
676.409546
 21
423.82843
 31
0.0
210
0.0
220
0.0
230
1.0
  0
LINE
  5
53
100
AcDbEntity
  8
0
370
    35
390
0
 62
     7
 48
0.016798
100
AcDbLine
 10
676.409546
 20
423.82843
 30
0.0
 11
676.253601
 21
423.174866
 31
0.0
210
0.0
220
0.0
230
1.0
  0
LINE
  5
54
100
AcDbEntity
  8
0
370
    35
390
0
 62
     7
 48
0.012165
100
AcDbLine
 10
676.253601
 20
423.174866
 30
0.0
 11
676.191956
 21
422.692169
 31
0.0
210
0.0
220
0.0
230
1.0
  0
LINE
  5
55
100
AcDbEntity
  8
0
370
    35
390
0
 62
     7
 48
0.01211
100
AcDbLine
 10
676.191956
 20
422.692169
 30
0.0
 11
676.182678
 21
422.207855
 31
0.0
210
0.0
220
0.0
230
1.0
  0
LINE
  5
56
100
AcDbEntity
  8
0
370
    35
390
0
 62
     7
 48
0.010674
100
AcDbLine
 10
676.182678
 20
422.207855
 30
0.0
 11
676.222595
 21
421.782745
 31
0.0
210
0.0
220
0.0
230
1.0
  0
LINE
  5
57
100
AcDbEntity
  8
0
370
    35
390
0
 62
     7
 48
0.010719
100
AcDbLine
 10
676.222595
 20
421.782745
 30
0.0
 11
676.310303
 21
421.363068
 31
0.0
210
0.0
220
0.0
230
1.0
  0
LINE
  5
58
100
AcDbEntity
  8
0
370
    35
390
0
 62
     7
 48
0.010293
100
AcDbLine
 10
676.310303
 20
421.363068
 30
0.0
 11
676.439331
 21
420.972076
 31
0.0
210
0.0
220
0.0
230
1.0
  0
LINE
  5
59
100
AcDbEntity
  8
0
370
    35
390
0
 62
     7
 48
0.010348
100
AcDbLine
 10
676.439331
 20
420.972076
 30
0.0
 11
676.611816
 21
420.595795
 31
0.0
210
0.0
220
0.0
230
1.0
  0
LINE
  5
5A
100
AcDbEntity
  8
0
370
    35
390
0
 62
     7
 48
0.010265
100
AcDbLine
 10
676.611816
 20
420.595795
 30
0.0
 11
676.823303
 21
420.243835
 31
0.0
210
0.0
220
0.0
230
1.0
  0
LINE
  5
5B
100
AcDbEntity
  8
0
370
    35
390
0
 62
     7
 48
0.010247
100
AcDbLine
 10
676.823303
 20
420.243835
 30
0.0
 11
677.072083
 21
419.918091
 31
0.0
210
0.0
220
0.0
230
1.0
  0
LINE
  5
5C
100
AcDbEntity
  8
0
370
    35
390
0
 62
     7
 48
0.010102
100
AcDbLine
 10
677.072083
 20
419.918091
 30
0.0
 11
677.351807
 21
419.626495
 31
0.0
210
0.0
220
0.0
230
1.0
  0
LINE
  5
5D
100
AcDbEntity
  8
0
370
    35
390
0
 62
     7
 48
0.010024
100
AcDbLine
 10
677.351807
 20
419.626495
 30
0.0
 11
677.6604
 21
419.370483
 31
0.0
210
0.0
220
0.0
230
1.0
  0
LINE
  5
5E
100
AcDbEntity
  8
0
370
    35
390
0
 62
     7
 48
0.019711
100
AcDbLine
 10
677.6604
 20
419.370483
 30
0.0
 11
678.343872
 21
418.977386
 31
0.0
210
0.0
220
0.0
230
1.0
  0
LINE
  5
5F
100
AcDbEntity
  8
0
370
    35
390
0
 62
     7
 48
0.020321
100
AcDbLine
 10
678.343872
 20
418.977386
 30
0.0
 11
679.119507
 21
418.734253
 31
0.0
210
0.0
220
0.0
230
1.0
  0
LINE
  5
60
100
AcDbEntity
  8
0
370
    35
390
0
 62
     7
 48
0.022649
100
AcDbLine
 10
679.119507
 20
418.734253
 30
0.0
 11
680.019653
 21
418.631805
 31
0.0
210
0.0
220
0.0
230
1.0
  0
LINE
  5
61
100
AcDbEntity
  8
0
370
    35
390
0
 62
     7
 48
0.027925
100
AcDbLine
 10
680.019653
 20
418.631805
 30
0.0
 11
681.136108
 21
418.666565
 31
0.0
210
0.0
220
0.0
230
1.0
  0
LINE
  5
62
100
AcDbEntity
  8
0
370
    35
390
0
 62
     7
 48
0.043322
100
AcDbLine
 10
681.136108
 20
418.666565
 30
0.0
 11
682.860352
 21
418.839294
 31
0.0
210
0.0
220
0.0
230
1.0
  0
LINE
  5
63
100
AcDbEntity
  8
0
370
    35
390
0
 62
     7
 48
0.028222
100
AcDbLine
 10
682.860352
 20
418.839294
 30
0.0
 11
683.986694
 21
418.914978
 31
0.0
210
0.0
220
0.0
230
1.0
  0
LINE
  5
64
100
AcDbEntity
  8
0
370
    35
390
0
 62
     7
 48
0.02762
100
AcDbLine
 10
683.986694
 20
418.914978
 30
0.0
 11
685.091492
 21
418.921173
 31
0.0
210
0.0
220
0.0
230
1.0
  0
LINE
  5
65
100
AcDbEntity
  8
0
370
    35
390
0
 62
     7
 48
0.046049
100
AcDbLine
 10
685.091492
 20
418.921173
 30
0.0
 11
686.929565
 21
418.801605
 31
0.0
210
0.0
220
0.0
230
1.0
  0
LINE
  5
66
100
AcDbEntity
  8
0
370
    35
390
0
 62
     7
 48
0.072346
100
AcDbLine
 10
686.929565
 20
418.801605
 30
0.0
 11
689.803284
 21
418.460846
 31
0.0
210
0.0
220
0.0
230
1.0
  0
LINE
  5
67
100
AcDbEntity
  8
0
370
    35
390
0
 62
     7
 48
0.039486
100
AcDbLine
 10
689.803284
 20
418.460846
 30
0.0
 11
691.363403
 21
418.21463
 31
0.0
210
0.0
220
0.0
230
1.0
  0
LINE
  5
68
100
AcDbEntity
  8
0
370
    35
390
0
 62
     7
 48
0.039346
100
AcDbLine
 10
691.363403
 20
418.21463
 30
0.0
 11
692.908081
 21
417.912994
 31
0.0
210
0.0
220
0.0
230
1.0
  0
LINE
  5
69
100
AcDbEntity
  8
0
370
    35
390
0
 62
     7
 48
0.068231
100
AcDbLine
 10
692.908081
 20
417.912994
 30
0.0
 11
695.557922
 21
417.259521
 31
0.0
210
0.0
220
0.0
230
1.0
  0
LINE
  5
6A
100
AcDbEntity
  8
0
370
    35
390
0
 62
     7
 48
0.094292
100
AcDbLine
 10
695.557922
 20
417.259521
 30
0.0
 11
699.189392
 21
416.240753
 31
0.0
210
0.0
220
0.0
230
1.0
  0
LINE
  5
6B
100
AcDbEntity
  8
0
370
    35
390
0
 62
     7
 48
0.119048
100
AcDbLine
 10
699.189392
 20
416.240753
 30
0.0
 11
703.785767
 21
414.996094
 31
0.0
210
0.0
220
0.0
230
1.0
  0
LINE
  5
6C
100
AcDbEntity
  8
0
370
    35
390
0
 62
     7
 48
0.038043
100
AcDbLine
 10
703.785767
 20
414.996094
 30
0.0
 11
705.23822
 21
414.542175
 31
0.0
210
0.0
220
0.0
230
1.0
  0
LINE
  5
6D
100
AcDbEntity
  8
0
370
    35
390
0
 62
     7
 48
0.038112
100
AcDbLine
 10
705.23822
 20
414.542175
 30
0.0
 11
706.677368
 21
414.039276
 31
0.0
210
0.0
220
0.0
230
1.0
  0
LINE
  5
6E
100
AcDbEntity
  8
0
370
    35
390
0
 62
     7
 48
0.074309
100
AcDbLine
 10
706.677368
 20
414.039276
 30
0.0
 11
709.443481
 21
412.951355
 31
0.0
210
0.0
220
0.0
230
1.0
  0
LINE
  5
6F
100
AcDbEntity
  8
0
370
    35
390
0
 62
     7
 48
0.083216
100
AcDbLine
 10
709.443481
 20
412.951355
 30
0.0
 11
712.530396
 21
411.705994
 31
0.0
210
0.0
220
0.0
230
1.0
  0
LINE
  5
70
100
AcDbEntity
  8
0
370
    35
390
0
 62
     7
 48
0.092235
100
AcDbLine
 10
712.530396
 20
411.705994
 30
0.0
 11
716.006348
 21
410.469238
 31
0.0
210
0.0
220
0.0
230
1.0
  0
LINE
  5
71
100
AcDbEntity
  8
0
370
    35
390
0
 62
     7
 48
0.104418
100
AcDbLine
 10
716.006348
 20
410.469238
 30
0.0
 11
719.963074
 21
409.131531
 31
0.0
210
0.0
220
0.0
230
1.0
  0
LINE
  5
72
100
AcDbEntity
  8
0
370
    35
390
0
 62
     7
 48
0.059173
100
AcDbLine
 10
719.963074
 20
409.131531
 30
0.0
 11
722.131775
 21
408.18338
 31
0.0
210
0.0
220
0.0
230
1.0
  0
LINE
  5
73
100
AcDbEntity
  8
0
370
    35
390
0
 62
     7
 48
0.056642
100
AcDbLine
 10
722.131775
 20
408.18338
 30
0.0
 11
724.173157
 21
407.200531
 31
0.0
210
0.0
220
0.0
230
1.0
  0
LINE
  5
74
100
AcDbEntity
  8
0
370
    35
390
0
 62
     7
 48
0.060544
100
AcDbLine
 10
724.173157
 20
407.200531
 30
0.0
 11
726.323914
 21
406.087341
 31
0.0
210
0.0
220
0.0
230
1.0
  0
LINE
  5
75
100
AcDbEntity
  8
0
370
    35
390
0
 62
     7
 48
0.022188
100
AcDbLine
 10
726.323914
 20
406.087341
 30
0.0
 11
727.086914
 21
405.633972
 31
0.0
210
0.0
220
0.0
230
1.0
  0
LINE
  5
76
100
AcDbEntity
  8
0
370
    35
390
0
 62
     7
 48
0.013474
100
AcDbLine
 10
727.086914
 20
405.633972
 30
0.0
 11
727.512268
 21
405.302979
 31
0.0
210
0.0
220
0.0
230
1.0
  0
LINE
  5
77
100
AcDbEntity
  8
0
370
    35
390
0
 62
     7
 48
0.001761
100
AcDbLine
 10
727.512268
 20
405.302979
 30
0.0
 11
727.554443
 21
405.246552
 31
0.0
210
0.0
220
0.0
230
1.0
  0
LINE
  5
78
100
AcDbEntity
  8
0
370
    35
390
0
 62
     7
 48
0.001127
100
AcDbLine
 10
727.554443
 20
405.246552
 30
0.0
 11
727.571411
 21
405.204773
 31
0.0
210
0.0
220
0.0
230
1.0
  0
LINE
  5
79
100
AcDbEntity
  8
0
370
    35
390
0
 62
     7
 48
0.000421
100
AcDbLine
 10
727.571411
 20
405.204773
 30
0.0
 11
727.572937
 21
405.188019
 31
0.0
210
0.0
220
0.0
230
1.0
  0
LINE
  5
7A
100
AcDbEntity
  8
0
370
    35
390
0
 62
     7
 48
0.000383
100
AcDbLine
 10
727.572937
 20
405.188019
 30
0.0
 11
727.570435
 21
405.172913
 31
0.0
210
0.0
220
0.0
230
1.0
  0
LINE
  5
7B
100
AcDbEntity
  8
0
370
    35
390
0
 62
     7
 48
0.000374
100
AcDbLine
 10
727.570435
 20
405.172913
 30
0.0
 11
727.564026
 21
405.159393
 31
0.0
210
0.0
220
0.0
230
1.0
  0
LINE
  5
7C
100
AcDbEntity
  8
0
370
    35
390
0
 62
     7
 48
0.000396
100
AcDbLine
 10
727.564026
 20
405.159393
 30
0.0
 11
727.553589
 21
405.147491
 31
0.0
210
0.0
220
0.0
230
1.0
  0
LINE
  5
7D
100
AcDbEntity
  8
0
370
    35
390
0
 62
     7
 48
0.000945
100
AcDbLine
 10
727.553589
 20
405.147491
 30
0.0
 11
727.520996
 21
405.128357
 31
0.0
210
0.0
220
0.0
230
1.0
  0
LINE
  5
7E
100
AcDbEntity
  8
0
370
    35
390
0
 62
     7
 48
0.003029
100
AcDbLine
 10
727.520996
 20
405.128357
 30
0.0
 11
727.401428
 21
405.108734
 31
0.0
210
0.0
220
0.0
230
1.0
  0
LINE
  5
7F
100
AcDbEntity
  8
0
370
    35
390
0
 62
     7
 48
0.014258
100
AcDbLine
 10
727.401428
 20
405.108734
 30
0.0
 11
726.834961
 21
405.174927
 31
0.0
210
0.0
220
0.0
230
1.0
  0
LINE
  5
80
100
AcDbEntity
  8
0
370
    35
390
0
 62
     7
 48
0.034352
100
AcDbLine
 10
726.834961
 20
405.174927
 30
0.0
 11
725.50293
 21
405.512299
 31
0.0
210
0.0
220
0.0
230
1.0
  0
LINE
  5
81
100
AcDbEntity
  8
0
370
    35
390
0
 62
     7
 48
0.050448
100
AcDbLine
 10
725.50293
 20
405.512299
 30
0.0
 11
723.590454
 21
406.156097
 31
0.0
210
0.0
220
0.0
230
1.0
  0
LINE
  5
82
100
AcDbEntity
  8
0
370
    35
390
0
 62
     7
 48
0.04327
100
AcDbLine
 10
723.590454
 20
406.156097
 30
0.0
 11
721.999329
 21
406.83725
 31
0.0
210
0.0
220
0.0
230
1.0
  0
LINE
  5
83
100
AcDbEntity
  8
0
370
    35
390
0
 62
     7
 48
0.058349
100
AcDbLine
 10
721.999329
 20
406.83725
 30
0.0
 11
719.882324
 21
407.819977
 31
0.0
210
0.0
220
0.0
230
1.0
  0
LINE
  5
84
100
AcDbEntity
  8
0
370
    35
390
0
 62
     7
 48
0.06192
100
AcDbLine
 10
719.882324
 20
407.819977
 30
0.0
 11
717.566589
 21
408.698608
 31
0.0
210
0.0
220
0.0
230
1.0
  0
LINE
  5
85
100
AcDbEntity
  8
0
370
    35
390
0
 62
     7
 48
0.100289
100
AcDbLine
 10
717.566589
 20
408.698608
 30
0.0
 11
713.768738
 21
409.99054
 31
0.0
210
0.0
220
0.0
230
1.0
  0
LINE
  5
86
100
AcDbEntity
  8
0
370
    35
390
0
 62
     7
 48
0.064306
100
AcDbLine
 10
713.768738
 20
409.99054
 30
0.0
 11
711.344421
 21
410.850281
 31
0.0
210
0.0
220
0.0
230
1.0
  0
LINE
  5
87
100
AcDbEntity
  8
0
370
    35
390
0
 62
     7
 48
0.058071
100
AcDbLine
 10
711.344421
 20
410.850281
 30
0.0
 11
709.17041
 21
411.668396
 31
0.0
210
0.0
220
0.0
230
1.0
  0
LINE
  5
88
100
AcDbEntity
  8
0
370
    35
390
0
 62
     7
 48
0.083124
100
AcDbLine
 10
709.17041
 20
411.668396
 30
0.0
 11
706.047913
 21
412.810883
 31
0.0
210
0.0
220
0.0
230
1.0
  0
LINE
  5
89
100
AcDbEntity
  8
0
370
    35
390
0
 62
     7
 48
0.087331
100
AcDbLine
 10
706.047913
 20
412.810883
 30
0.0
 11
702.717102
 21
413.863678
 31
0.0
210
0.0
220
0.0
230
1.0
  0
LINE
  5
8A
100
AcDbEntity
  8
0
370
    35
390
0
 62
     7
 48
0.178599
100
AcDbLine
 10
702.717102
 20
413.863678
 30
0.0
 11
695.845642
 21
415.817963
 31
0.0
210
0.0
220
0.0
230
1.0
  0
LINE
  5
8B
100
AcDbEntity
  8
0
370
    35
390
0
 62
     7
 48
0.055547
100
AcDbLine
 10
695.845642
 20
415.817963
 30
0.0
 11
693.693604
 21
416.370697
 31
0.0
210
0.0
220
0.0
230
1.0
  0
LINE
  5
8C
100
AcDbEntity
  8
0
370
    35
390
0
 62
     7
 48
0.057231
100
AcDbLine
 10
693.693604
 20
416.370697
 30
0.0
 11
691.454529
 21
416.847351
 31
0.0
210
0.0
220
0.0
230
1.0
  0
LINE
  5
8D
100
AcDbEntity
  8
0
370
    35
390
0
 62
     7
 48
0.034447
100
AcDbLine
 10
691.454529
 20
416.847351
 30
0.0
 11
690.095947
 21
417.077057
 31
0.0
210
0.0
220
0.0
230
1.0
  0
LINE
  5
8E
100
AcDbEntity
  8
0
370
    35
390
0
 62
     7
 48
0.033702
100
AcDbLine
 10
690.095947
 20
417.077057
 30
0.0
 11
688.759766
 21
417.255676
 31
0.0
210
0.0
220
0.0
230
1.0
  0
LINE
  5
8F
100
AcDbEntity
  8
0
370
    35
390
0
 62
     7
 48
0.063053
100
AcDbLine
 10
688.759766
 20
417.255676
 30
0.0
 11
686.24707
 21
417.473602
 31
0.0
210
0.0
220
0.0
230
1.0
  0
LINE
  5
90
100
AcDbEntity
  8
0
370
    35
390
0
 62
     7
 48
0.086858
100
AcDbLine
 10
686.24707
 20
417.473602
 30
0.0
 11
682.783691
 21
417.749237
 31
0.0
210
0.0
220
0.0
230
1.0
  0
LINE
  5
91
100
AcDbEntity
  8
0
370
    35
390
0
 62
     7
 48
0.034761
100
AcDbLine
 10
682.783691
 20
417.749237
 30
0.0
 11
681.394958
 21
417.818146
 31
0.0
210
0.0
220
0.0
230
1.0
  0
LINE
  5
92
100
AcDbEntity
  8
0
370
    35
390
0
 62
     7
 48
0.017357
100
AcDbLine
 10
681.394958
 20
417.818146
 30
0.0
 11
680.701355
 21
417.78775
 31
0.0
210
0.0
220
0.0
230
1.0
  0
LINE
  5
93
100
AcDbEntity
  8
0
370
    35
390
0
 62
     7
 48
0.016749
100
AcDbLine
 10
680.701355
 20
417.78775
 30
0.0
 11
680.040283
 21
417.678986
 31
0.0
210
0.0
220
0.0
230
1.0
  0
LINE
  5
94
100
AcDbEntity
  8
0
370
    35
390
0
 62
     7
 48
0.010067
100
AcDbLine
 10
680.040283
 20
417.678986
 30
0.0
 11
679.655701
 21
417.559601
 31
0.0
210
0.0
220
0.0
230
1.0
  0
LINE
  5
95
100
AcDbEntity
  8
0
370
    35
390
0
 62
     7
 48
0.009749
100
AcDbLine
 10
679.655701
 20
417.559601
 30
0.0
 11
679.302307
 21
417.394775
 31
0.0
210
0.0
220
0.0
230
1.0
  0
LINE
  5
96
100
AcDbEntity
  8
0
370
    35
390
0
 62
     7
 48
0.008231
100
AcDbLine
 10
679.302307
 20
417.394775
 30
0.0
 11
679.027466
 21
417.213531
 31
0.0
210
0.0
220
0.0
230
1.0
  0
LINE
  5
97
100
AcDbEntity
  8
0
370
    35
390
0
 62
     7
 48
0.008148
100
AcDbLine
 10
679.027466
 20
417.213531
 30
0.0
 11
678.785034
 21
416.995697
 31
0.0
210
0.0
220
0.0
230
1.0
  0
LINE
  5
98
100
AcDbEntity
  8
0
370
    35
390
0
 62
     7
 48
0.007746
100
AcDbLine
 10
678.785034
 20
416.995697
 30
0.0
 11
678.588379
 21
416.756256
 31
0.0
210
0.0
220
0.0
230
1.0
  0
LINE
  5
99
100
AcDbEntity
  8
0
370
    35
390
0
 62
     7
 48
0.007849
100
AcDbLine
 10
678.588379
 20
416.756256
 30
0.0
 11
678.426514
 21
416.487244
 31
0.0
210
0.0
220
0.0
230
1.0
  0
LINE
  5
9A
100
AcDbEntity
  8
0
370
    35
390
0
 62
     7
 48
0.016363
100
AcDbLine
 10
678.426514
 20
416.487244
 30
0.0
 11
678.211792
 21
415.868927
 31
0.0
210
0.0
220
0.0
230
1.0
  0
LINE
  5
9B
100
AcDbEntity
  8
0
370
    35
390
0
 62
     7
 48
0.017735
100
AcDbLine
 10
678.211792
 20
415.868927
 30
0.0
 11
678.154968
 21
415.161804
 31
0.0
210
0.0
220
0.0
230
1.0
  0
LINE
  5
9C
100
AcDbEntity
  8
0
370
    35
390
0
 62
     7
 48
0.018533
100
AcDbLine
 10
678.154968
 20
415.161804
 30
0.0
 11
678.273193
 21
414.429962
 31
0.0
210
0.0
220
0.0
230
1.0
  0
LINE
  5
9D
100
AcDbEntity
  8
0
370
    35
390
0
 62
     7
 48
0.01848
100
AcDbLine
 10
678.273193
 20
414.429962
 30
0.0
 11
678.560791
 21
413.748993
 31
0.0
210
0.0
220
0.0
230
1.0
  0
LINE
  5
9E
100
AcDbEntity
  8
0
370
    35
390
0
 62
     7
 48
0.018748
100
AcDbLine
 10
678.560791
 20
413.748993
 30
0.0
 11
679.00415
 21
413.144165
 31
0.0
210
0.0
220
0.0
230
1.0
  0
LINE
  5
9F
100
AcDbEntity
  8
0
370
    35
390
0
 62
     7
 48
0.020779
100
AcDbLine
 10
679.00415
 20
413.144165
 30
0.0
 11
679.620361
 21
412.586395
 31
0.0
210
0.0
220
0.0
230
1.0
  0
LINE
  5
A0
100
AcDbEntity
  8
0
370
    35
390
0
 62
     7
 48
0.026584
100
AcDbLine
 10
679.620361
 20
412.586395
 30
0.0
 11
680.503052
 21
411.993469
 31
0.0
210
0.0
220
0.0
230
1.0
  0
LINE
  5
A1
100
AcDbEntity
  8
0
370
    35
390
0
 62
     7
 48
0.049145
100
AcDbLine
 10
680.503052
 20
411.993469
 30
0.0
 11
682.187866
 21
410.980682
 31
0.0
210
0.0
220
0.0
230
1.0
  0
LINE
  5
A2
100
AcDbEntity
  8
0
370
    35
390
0
 62
     7
 48
0.061277
100
AcDbLine
 10
682.187866
 20
410.980682
 30
0.0
 11
684.223877
 21
409.615967
 31
0.0
210
0.0
220
0.0
230
1.0
  0
LINE
  5
A3
100
AcDbEntity
  8
0
370
    35
390
0
 62
     7
 48
0.097184
100
AcDbLine
 10
684.223877
 20
409.615967
 30
0.0
 11
687.388367
 21
407.358185
 31
0.0
210
0.0
220
0.0
230
1.0
  0
LINE
  5
A4
100
AcDbEntity
  8
0
370
    35
390
0
 62
     7
 48
0.079938
100
AcDbLine
 10
687.388367
 20
407.358185
 30
0.0
 11
689.997986
 21
405.510498
 31
0.0
210
0.0
220
0.0
230
1.0
  0
LINE
  5
A5
100
AcDbEntity
  8
0
370
    35
390
0
 62
     7
 48
0.039637
100
AcDbLine
 10
689.997986
 20
405.510498
 30
0.0
 11
691.259888
 21
404.550659
 31
0.0
210
0.0
220
0.0
230
1.0
  0
LINE
  5
A6
100
AcDbEntity
  8
0
370
    35
390
0
 62
     7
 48
0.039592
100
AcDbLine
 10
691.259888
 20
404.550659
 30
0.0
 11
692.478027
 21
403.538666
 31
0.0
210
0.0
220
0.0
230
1.0
  0
LINE
  5
A7
100
AcDbEntity
  8
0
370
    35
390
0
 62
     7
 48
0.064843
100
AcDbLine
 10
692.478027
 20
403.538666
 30
0.0
 11
694.383911
 21
401.779388
 31
0.0
210
0.0
220
0.0
230
1.0
  0
LINE
  5
A8
100
AcDbEntity
  8
0
370
    35
390
0
 62
     7
 48
0.09213
100
AcDbLine
 10
694.383911
 20
401.779388
 30
0.0
 11
696.991882
 21
399.17572
 31
0.0
210
0.0
220
0.0
230
1.0
  0
LINE
  5
A9
100
AcDbEntity
  8
0
370
    35
390
0
 62
     7
 48
0.062087
100
AcDbLine
 10
696.991882
 20
399.17572
 30
0.0
 11
698.701721
 21
397.374573
 31
0.0
210
0.0
220
0.0
230
1.0
  0
LINE
  5
AA
100
AcDbEntity
  8
0
370
    35
390
0
 62
     7
 48
0.03084
100
AcDbLine
 10
698.701721
 20
397.374573
 30
0.0
 11
699.51123
 21
396.443726
 31
0.0
210
0.0
220
0.0
230
1.0
  0
LINE
  5
AB
100
AcDbEntity
  8
0
370
    35
390
0
 62
     7
 48
0.030695
100
AcDbLine
 10
699.51123
 20
396.443726
 30
0.0
 11
700.271423
 21
395.479584
 31
0.0
210
0.0
220
0.0
230
1.0
  0
LINE
  5
AC
100
AcDbEntity
  8
0
370
    35
390
0
 62
     7
 48
0.024022
100
AcDbLine
 10
700.271423
 20
395.479584
 30
0.0
 11
700.82605
 21
394.694946
 31
0.0
210
0.0
220
0.0
230
1.0
  0
LINE
  5
AD
100
AcDbEntity
  8
0
370
    35
390
0
 62
     7
 48
0.02403
100
AcDbLine
 10
700.82605
 20
394.694946
 30
0.0
 11
701.341248
 21
393.883484
 31
0.0
210
0.0
220
0.0
230
1.0
  0
LINE
  5
AE
100
AcDbEntity
  8
0
370
    35
390
0
 62
     7
 48
0.047635
100
AcDbLine
 10
701.341248
 20
393.883484
 30
0.0
 11
702.250427
 21
392.208984
 31
0.0
210
0.0
220
0.0
230
1.0
  0
LINE
  5
AF
100
AcDbEntity
  8
0
370
    35
390
0
 62
     7
 48
0.05707
100
AcDbLine
 10
702.250427
 20
392.208984
 30
0.0
 11
703.197327
 21
390.131836
 31
0.0
210
0.0
220
0.0
230
1.0
  0
LINE
  5
B0
100
AcDbEntity
  8
0
370
    35
390
0
 62
     7
 48
0.094872
100
AcDbLine
 10
703.197327
 20
390.131836
 30
0.0
 11
704.660034
 21
386.630157
 31
0.0
210
0.0
220
0.0
230
1.0
  0
LINE
  5
B1
100
AcDbEntity
  8
0
370
    35
390
0
 62
     7
 48
0.086322
100
AcDbLine
 10
704.660034
 20
386.630157
 30
0.0
 11
705.980774
 21
383.43985
 31
0.0
210
0.0
220
0.0
230
1.0
  0
LINE
  5
B2
100
AcDbEntity
  8
0
370
    35
390
0
 62
     7
 48
0.086321
100
AcDbLine
 10
705.980774
 20
383.43985
 30
0.0
 11
707.21051
 21
380.213409
 31
0.0
210
0.0
220
0.0
230
1.0
  0
LINE
  5
B3
100
AcDbEntity
  8
0
370
    35
390
0
 62
     7
 48
0.04333
100
AcDbLine
 10
707.21051
 20
380.213409
 30
0.0
 11
707.749023
 21
378.565979
 31
0.0
210
0.0
220
0.0
230
1.0
  0
LINE
  5
B4
100
AcDbEntity
  8
0
370
    35
390
0
 62
     7
 48
0.043437
100
AcDbLine
 10
707.749023
 20
378.565979
 30
0.0
 11
708.211975
 21
376.891296
 31
0.0
210
0.0
220
0.0
230
1.0
  0
LINE
  5
B5
100
AcDbEntity
  8
0
370
    35
390
0
 62
     7
 48
0.043474
100
AcDbLine
 10
708.211975
 20
376.891296
 30
0.0
 11
708.577576
 21
375.191223
 31
0.0
210
0.0
220
0.0
230
1.0
  0
LINE
  5
B6
100
AcDbEntity
  8
0
370
    35
390
0
 62
     7
 48
0.043416
100
AcDbLine
 10
708.577576
 20
375.191223
 30
0.0
 11
708.822205
 21
373.471893
 31
0.0
210
0.0
220
0.0
230
1.0
  0
LINE
  5
B7
100
AcDbEntity
  8
0
370
    35
390
0
 62
     7
 48
0.024322
100
AcDbLine
 10
708.822205
 20
373.471893
 30
0.0
 11
708.898193
 21
372.501984
 31
0.0
210
0.0
220
0.0
230
1.0
  0
LINE
  5
B8
100
AcDbEntity
  8
0
370
    35
390
0
 62
     7
 48
0.024295
100
AcDbLine
 10
708.898193
 20
372.501984
 30
0.0
 11
708.926575
 21
371.530579
 31
0.0
210
0.0
220
0.0
230
1.0
  0
LINE
  5
B9
100
AcDbEntity
  8
0
370
    35
390
0
 62
     7
 48
0.04656
100
AcDbLine
 10
708.926575
 20
371.530579
 30
0.0
 11
708.844238
 21
369.670013
 31
0.0
210
0.0
220
0.0
230
1.0
  0
LINE
  5
BA
100
AcDbEntity
  8
0
370
    35
390
0
 62
     7
 48
0.047569
100
AcDbLine
 10
708.844238
 20
369.670013
 30
0.0
 11
708.58374
 21
367.785187
 31
0.0
210
0.0
220
0.0
230
1.0
  0
LINE
  5
BB
100
AcDbEntity
  8
0
370
    35
390
0
 62
     7
 48
0.051712
100
AcDbLine
 10
708.58374
 20
367.785187
 30
0.0
 11
708.131836
 21
365.766663
 31
0.0
210
0.0
220
0.0
230
1.0
  0
LINE
  5
BC
100
AcDbEntity
  8
0
370
    35
390
0
 62
     7
 48
0.060694
100
AcDbLine
 10
708.131836
 20
365.766663
 30
0.0
 11
707.444031
 21
363.438385
 31
0.0
210
0.0
220
0.0
230
1.0
  0
LINE
  5
BD
100
AcDbEntity
  8
0
370
    35
390
0
 62
     7
 48
0.083803
100
AcDbLine
 10
707.444031
 20
363.438385
 30
0.0
 11
706.361206
 21
360.265991
 31
0.0
210
0.0
220
0.0
230
1.0
  0
LINE
  5
BE
100
AcDbEntity
  8
0
370
    35
390
0
 62
     7
 48
0.088709
100
AcDbLine
 10
706.361206
 20
360.265991
 30
0.0
 11
705.216858
 21
356.907227
 31
0.0
210
0.0
220
0.0
230
1.0
  0
LINE
  5
BF
100
AcDbEntity
  8
0
370
    35
390
0
 62
     7
 48
0.088815
100
AcDbLine
 10
705.216858
 20
356.907227
 30
0.0
 11
704.133423
 21
353.523865
 31
0.0
210
0.0
220
0.0
230
1.0
  0
LINE
  5
C0
100
AcDbEntity
  8
0
370
    35
390
0
 62
     7
 48
0.091048
100
AcDbLine
 10
704.133423
 20
353.523865
 30
0.0
 11
702.975952
 21
350.07077
 31
0.0
210
0.0
220
0.0
230
1.0
  0
LINE
  5
C1
100
AcDbEntity
  8
0
370
    35
390
0
 62
     7
 48
0.045615
100
AcDbLine
 10
702.975952
 20
350.07077
 30
0.0
 11
702.328369
 21
348.36496
 31
0.0
210
0.0
220
0.0
230
1.0
  0
LINE
  5
C2
100
AcDbEntity
  8
0
370
    35
390
0
 62
     7
 48
0.023148
100
AcDbLine
 10
702.328369
 20
348.36496
 30
0.0
 11
701.969482
 21
347.511414
 31
0.0
210
0.0
220
0.0
230
1.0
  0
LINE
  5
C3
100
AcDbEntity
  8
0
370
    35
390
0
 62
     7
 48
0.034037
100
AcDbLine
 10
701.526367
 20
346.223999
 30
0.0
 11
701.969482
 21
347.511353
 31
0.0
210
0.0
220
0.0
230
1.0
  0
LINE
  5
C4
100
AcDbEntity
  8
0
370
    35
390
0
 62
     7
 48
0.036499
100
AcDbLine
 10
701.051208
 20
344.843536
 30
0.0
 11
701.526367
 21
346.223999
 31
0.0
210
0.0
220
0.0
230
1.0
  0
LINE
  5
C5
100
AcDbEntity
  8
0
370
    35
390
0
 62
     7
 48
0.019975
100
AcDbLine
 10
700.791138
 20
344.088043
 30
0.0
 11
701.051208
 21
344.843536
 31
0.0
210
0.0
220
0.0
230
1.0
  0
ARC
  5
C6
100
AcDbEntity
  8
0
370
    35
390
0
 62
     7
100
AcDbCircle
 10
709.456238
 20
341.105469
 30
0.0
 40
9.164037
210
0.0
220
0.0
230
1.0
100
AcDbArc
 50
161.006273
 51
311.348839
  0
LINE
  5
C7
100
AcDbEntity
  8
0
370
    35
390
0
 62
     7
 48
0.024405
100
AcDbLine
 10
716.215332
 20
334.901306
 30
0.0
 11
715.510376
 21
334.226013
 31
0.0
210
0.0
220
0.0
230
1.0
  0
LINE
  5
C8
100
AcDbEntity
  8
0
370
    35
390
0
 62
     7
 48
0.140463
100
AcDbLine
 10
716.215332
 20
334.901306
 30
0.0
 11
720.321533
 21
338.736267
 31
0.0
210
0.0
220
0.0
230
1.0
  0
LINE
  5
C9
100
AcDbEntity
  8
0
370
    35
390
0
 62
     7
 48
0.011972
100
AcDbLine
 10
720.321533
 20
338.736267
 30
0.0
 11
720.672485
 21
339.062103
 31
0.0
210
0.0
220
0.0
230
1.0
  0
LINE
  5
CA
100
AcDbEntity
  8
0
370
    35
390
0
 62
     7
 48
0.137401
100
AcDbLine
 10
720.672485
 20
339.062103
 30
0.0
 11
724.667297
 21
342.836731
 31
0.0
210
0.0
220
0.0
230
1.0
  0
LINE
  5
CB
100
AcDbEntity
  8
0
370
    35
390
0
 62
     7
 48
0.103451
100
AcDbLine
 10
724.667297
 20
342.836731
 30
0.0
 11
727.740112
 21
345.608215
 31
0.0
210
0.0
220
0.0
230
1.0
  0
LINE
  5
CC
100
AcDbEntity
  8
0
370
    35
390
0
 62
     7
 48
0.03472
100
AcDbLine
 10
727.740112
 20
345.608215
 30
0.0
 11
728.738342
 21
346.573792
 31
0.0
210
0.0
220
0.0
230
1.0
  0
LINE
  5
CD
100
AcDbEntity
  8
0
370
    35
390
0
 62
     7
 48
0.034105
100
AcDbLine
 10
728.738342
 20
346.573792
 30
0.0
 11
729.678711
 21
347.562103
 31
0.0
210
0.0
220
0.0
230
1.0
  0
LINE
  5
CE
100
AcDbEntity
  8
0
370
    35
390
0
 62
     7
 48
0.039582
100
AcDbLine
 10
729.678711
 20
347.562103
 30
0.0
 11
730.746765
 21
348.730865
 31
0.0
210
0.0
220
0.0
230
1.0
  0
LINE
  5
CF
100
AcDbEntity
  8
0
370
    35
390
0
 62
     7
 48
0.040914
100
AcDbLine
 10
730.746765
 20
348.730865
 30
0.0
 11
731.911255
 21
349.880768
 31
0.0
210
0.0
220
0.0
230
1.0
  0
LINE
  5
D0
100
AcDbEntity
  8
0
370
    35
390
0
 62
     7
 48
0.018647
100
AcDbLine
 10
731.911255
 20
349.880768
 30
0.0
 11
732.485962
 21
350.356201
 31
0.0
210
0.0
220
0.0
230
1.0
  0
LINE
  5
D1
100
AcDbEntity
  8
0
370
    35
390
0
 62
     7
 48
0.018894
100
AcDbLine
 10
732.485962
 20
350.356201
 30
0.0
 11
733.103394
 21
350.792023
 31
0.0
210
0.0
220
0.0
230
1.0
  0
LINE
  5
D2
100
AcDbEntity
  8
0
370
    35
390
0
 62
     7
 48
0.015185
100
AcDbLine
 10
733.103394
 20
350.792023
 30
0.0
 11
733.626831
 21
351.100128
 31
0.0
210
0.0
220
0.0
230
1.0
  0
LINE
  5
D3
100
AcDbEntity
  8
0
370
    35
390
0
 62
     7
 48
0.01504
100
AcDbLine
 10
733.626831
 20
351.100128
 30
0.0
 11
734.169678
 21
351.359467
 31
0.0
210
0.0
220
0.0
230
1.0
  0
LINE
  5
D4
100
AcDbEntity
  8
0
370
    35
390
0
 62
     7
 48
0.012863
100
AcDbLine
 10
734.169678
 20
351.359467
 30
0.0
 11
734.652527
 21
351.53717
 31
0.0
210
0.0
220
0.0
230
1.0
  0
LINE
  5
D5
100
AcDbEntity
  8
0
370
    35
390
0
 62
     7
 48
0.012598
100
AcDbLine
 10
734.652527
 20
351.53717
 30
0.0
 11
735.14032
 21
351.663635
 31
0.0
210
0.0
220
0.0
230
1.0
  0
LINE
  5
D6
100
AcDbEntity
  8
0
370
    35
390
0
 62
     7
 48
0.011182
100
AcDbLine
 10
735.14032
 20
351.663635
 30
0.0
 11
735.582642
 21
351.72995
 31
0.0
210
0.0
220
0.0
230
1.0
  0
LINE
  5
D7
100
AcDbEntity
  8
0
370
    35
390
0
 62
     7
 48
0.010991
100
AcDbLine
 10
735.582642
 20
351.72995
 30
0.0
 11
736.021912
 21
351.74765
 31
0.0
210
0.0
220
0.0
230
1.0
  0
LINE
  5
D8
100
AcDbEntity
  8
0
370
    35
390
0
 62
     7
 48
0.020691
100
AcDbLine
 10
736.021912
 20
351.74765
 30
0.0
 11
736.843079
 21
351.644501
 31
0.0
210
0.0
220
0.0
230
1.0
  0
LINE
  5
D9
100
AcDbEntity
  8
0
370
    35
390
0
 62
     7
 48
0.021463
100
AcDbLine
 10
736.843079
 20
351.644501
 30
0.0
 11
737.654663
 21
351.364532
 31
0.0
210
0.0
220
0.0
230
1.0
  0
LINE
  5
DA
100
AcDbEntity
  8
0
370
    35
390
0
 62
     7
 48
0.024971
100
AcDbLine
 10
737.654663
 20
351.364532
 30
0.0
 11
738.529846
 21
350.883118
 31
0.0
210
0.0
220
0.0
230
1.0
  0
LINE
  5
DB
100
AcDbEntity
  8
0
370
    35
390
0
 62
     7
 48
0.033773
100
AcDbLine
 10
738.529846
 20
350.883118
 30
0.0
 11
739.633667
 21
350.104279
 31
0.0
210
0.0
220
0.0
230
1.0
  0
LINE
  5
DC
100
AcDbEntity
  8
0
370
    35
390
0
 62
     7
 48
0.029585
100
AcDbLine
 10
739.633667
 20
350.104279
 30
0.0
 11
740.588928
 21
349.405792
 31
0.0
210
0.0
220
0.0
230
1.0
  0
LINE
  5
DD
100
AcDbEntity
  8
0
370
    35
390
0
 62
     7
 48
0.029078
100
AcDbLine
 10
740.588928
 20
349.405792
 30
0.0
 11
741.565002
 21
348.773254
 31
0.0
210
0.0
220
0.0
230
1.0
  0
LINE
  5
DE
100
AcDbEntity
  8
0
370
    35
390
0
 62
     7
 48
0.028479
100
AcDbLine
 10
741.565002
 20
348.773254
 30
0.0
 11
742.571045
 21
348.238892
 31
0.0
210
0.0
220
0.0
230
1.0
  0
LINE
  5
DF
100
AcDbEntity
  8
0
370
    35
390
0
 62
     7
 48
0.028122
100
AcDbLine
 10
742.571045
 20
348.238892
 30
0.0
 11
743.603027
 21
347.791229
 31
0.0
210
0.0
220
0.0
230
1.0
  0
LINE
  5
E0
100
AcDbEntity
  8
0
370
    35
390
0
 62
     7
 48
0.052291
100
AcDbLine
 10
743.603027
 20
347.791229
 30
0.0
 11
745.559387
 21
347.051208
 31
0.0
210
0.0
220
0.0
230
1.0
  0
LINE
  5
E1
100
AcDbEntity
  8
0
370
    35
390
0
 62
     7
 48
0.033838
100
AcDbLine
 10
745.559387
 20
347.051208
 30
0.0
 11
746.812195
 21
346.53891
 31
0.0
210
0.0
220
0.0
230
1.0
  0
LINE
  5
E2
100
AcDbEntity
  8
0
370
    35
390
0
 62
     7
 48
0.034021
100
AcDbLine
 10
746.812195
 20
346.53891
 30
0.0
 11
748.047852
 21
345.968811
 31
0.0
210
0.0
220
0.0
230
1.0
  0
LINE
  5
E3
100
AcDbEntity
  8
0
370
    35
390
0
 62
     7
 48
0.080108
100
AcDbLine
 10
748.047852
 20
345.968811
 30
0.0
 11
750.939636
 21
344.588501
 31
0.0
210
0.0
220
0.0
230
1.0
  0
LINE
  5
E4
100
AcDbEntity
  8
0
370
    35
390
0
 62
     7
 48
0.059535
100
AcDbLine
 10
750.939636
 20
344.588501
 30
0.0
 11
753.154846
 21
343.714447
 31
0.0
210
0.0
220
0.0
230
1.0
  0
LINE
  5
E5
100
AcDbEntity
  8
0
370
    35
390
0
 62
     7
 48
0.069398
100
AcDbLine
 10
753.154846
 20
343.714447
 30
0.0
 11
755.787903
 21
342.835388
 31
0.0
210
0.0
220
0.0
230
1.0
  0
LINE
  5
E6
100
AcDbEntity
  8
0
370
    35
390
0
 62
     7
 48
0.076638
100
AcDbLine
 10
755.787903
 20
342.835388
 30
0.0
 11
758.685974
 21
341.83609
 31
0.0
210
0.0
220
0.0
230
1.0
  0
LINE
  5
E7
100
AcDbEntity
  8
0
370
    35
390
0
 62
     7
 48
0.076672
100
AcDbLine
 10
758.685974
 20
341.83609
 30
0.0
 11
761.546631
 21
340.730499
 31
0.0
210
0.0
220
0.0
230
1.0
  0
LINE
  5
E8
100
AcDbEntity
  8
0
370
    35
390
0
 62
     7
 48
0.109468
100
AcDbLine
 10
761.546631
 20
340.730499
 30
0.0
 11
765.632263
 21
339.155487
 31
0.0
210
0.0
220
0.0
230
1.0
  0
LINE
  5
E9
100
AcDbEntity
  8
0
370
    35
390
0
 62
     7
 48
0.054675
100
AcDbLine
 10
765.632263
 20
339.155487
 30
0.0
 11
767.711304
 21
338.476898
 31
0.0
210
0.0
220
0.0
230
1.0
  0
LINE
  5
EA
100
AcDbEntity
  8
0
370
    35
390
0
 62
     7
 48
0.054699
100
AcDbLine
 10
767.711304
 20
338.476898
 30
0.0
 11
769.825867
 21
337.915009
 31
0.0
210
0.0
220
0.0
230
1.0
  0
LINE
  5
EB
100
AcDbEntity
  8
0
370
    35
390
0
 62
     7
 48
0.065713
100
AcDbLine
 10
769.825867
 20
337.915009
 30
0.0
 11
772.402893
 21
337.397247
 31
0.0
210
0.0
220
0.0
230
1.0
  0
LINE
  5
EC
100
AcDbEntity
  8
0
370
    35
390
0
 62
     7
 48
0.074628
100
AcDbLine
 10
772.402893
 20
337.397247
 30
0.0
 11
775.357361
 21
336.970612
 31
0.0
210
0.0
220
0.0
230
1.0
  0
LINE
  5
ED
100
AcDbEntity
  8
0
370
    35
390
0
 62
     7
 48
0.109846
100
AcDbLine
 10
775.357361
 20
336.970612
 30
0.0
 11
779.721924
 21
336.464264
 31
0.0
210
0.0
220
0.0
230
1.0
  0
LINE
  5
EE
100
AcDbEntity
  8
0
370
    35
390
0
 62
     7
 48
0.150166
100
AcDbLine
 10
779.721924
 20
336.464264
 30
0.0
 11
785.677002
 21
335.678772
 31
0.0
210
0.0
220
0.0
230
1.0
  0
LINE
  5
EF
100
AcDbEntity
  8
0
370
    35
390
0
 62
     7
 48
0.063837
100
AcDbLine
 10
785.677002
 20
335.678772
 30
0.0
 11
788.212585
 21
335.376892
 31
0.0
210
0.0
220
0.0
230
1.0
  0
LINE
  5
F0
100
AcDbEntity
  8
0
370
    35
390
0
 62
     7
 48
0.063835
100
AcDbLine
 10
788.212585
 20
335.376892
 30
0.0
 11
790.75708
 21
335.163757
 31
0.0
210
0.0
220
0.0
230
1.0
  0
LINE
  5
F1
100
AcDbEntity
  8
0
370
    35
390
0
 62
     7
 48
0.096272
100
AcDbLine
 10
790.75708
 20
335.163757
 30
0.0
 11
794.6026
 21
334.960876
 31
0.0
210
0.0
220
0.0
230
1.0
  0
LINE
  5
F2
100
AcDbEntity
  8
0
370
    35
390
0
 62
     7
 48
0.073693
100
AcDbLine
 10
794.6026
 20
334.960876
 30
0.0
 11
797.544434
 21
334.774414
 31
0.0
210
0.0
220
0.0
230
1.0
  0
LINE
  5
F3
100
AcDbEntity
  8
0
370
    35
390
0
 62
     7
 48
0.073701
100
AcDbLine
 10
797.544434
 20
334.774414
 30
0.0
 11
800.480957
 21
334.513947
 31
0.0
210
0.0
220
0.0
230
1.0
  0
LINE
  5
F4
100
AcDbEntity
  8
0
370
    35
390
0
 62
     7
 48
0.085399
100
AcDbLine
 10
800.480957
 20
334.513947
 30
0.0
 11
803.885681
 21
334.237
 31
0.0
210
0.0
220
0.0
230
1.0
  0
LINE
  5
F5
100
AcDbEntity
  8
0
370
    35
390
0
 62
     7
 48
0.042798
100
AcDbLine
 10
803.885681
 20
334.237
 30
0.0
 11
805.596375
 21
334.171844
 31
0.0
210
0.0
220
0.0
230
1.0
  0
LINE
  5
F6
100
AcDbEntity
  8
0
370
    35
390
0
 62
     7
 48
0.042853
100
AcDbLine
 10
805.596375
 20
334.171844
 30
0.0
 11
807.310425
 21
334.187805
 31
0.0
210
0.0
220
0.0
230
1.0
  0
LINE
  5
F7
100
AcDbEntity
  8
0
370
    35
390
0
 62
     7
 48
0.028938
100
AcDbLine
 10
807.310425
 20
334.187805
 30
0.0
 11
808.466064
 21
334.253479
 31
0.0
210
0.0
220
0.0
230
1.0
  0
LINE
  5
F8
100
AcDbEntity
  8
0
370
    35
390
0
 62
     7
 48
0.028971
100
AcDbLine
 10
808.466064
 20
334.253479
 30
0.0
 11
809.619202
 21
334.368164
 31
0.0
210
0.0
220
0.0
230
1.0
  0
LINE
  5
F9
100
AcDbEntity
  8
0
370
    35
390
0
 62
     7
 48
0.027011
100
AcDbLine
 10
809.619202
 20
334.368164
 30
0.0
 11
810.688721
 21
334.521423
 31
0.0
210
0.0
220
0.0
230
1.0
  0
LINE
  5
FA
100
AcDbEntity
  8
0
370
    35
390
0
 62
     7
 48
0.02705
100
AcDbLine
 10
810.688721
 20
334.521423
 30
0.0
 11
811.752197
 21
334.720825
 31
0.0
210
0.0
220
0.0
230
1.0
  0
LINE
  5
FB
100
AcDbEntity
  8
0
370
    35
390
0
 62
     7
 48
0.052979
100
AcDbLine
 10
811.752197
 20
334.720825
 30
0.0
 11
813.805664
 21
335.244385
 31
0.0
210
0.0
220
0.0
230
1.0
  0
LINE
  5
FC
100
AcDbEntity
  8
0
370
    35
390
0
 62
     7
 48
0.053768
100
AcDbLine
 10
813.805664
 20
335.244385
 30
0.0
 11
815.838562
 21
335.946503
 31
0.0
210
0.0
220
0.0
230
1.0
  0
LINE
  5
FD
100
AcDbEntity
  8
0
370
    35
390
0
 62
     7
 48
0.056515
100
AcDbLine
 10
815.838562
 20
335.946503
 30
0.0
 11
817.912231
 21
336.846588
 31
0.0
210
0.0
220
0.0
230
1.0
  0
LINE
  5
FE
100
AcDbEntity
  8
0
370
    35
390
0
 62
     7
 48
0.062434
100
AcDbLine
 10
817.912231
 20
336.846588
 30
0.0
 11
820.131348
 21
337.992126
 31
0.0
210
0.0
220
0.0
230
1.0
  0
LINE
  5
FF
100
AcDbEntity
  8
0
370
    35
390
0
 62
     7
 48
0.074821
100
AcDbLine
 10
820.131348
 20
337.992126
 30
0.0
 11
822.714966
 21
339.502747
 31
0.0
210
0.0
220
0.0
230
1.0
  0
LINE
  5
100
100
AcDbEntity
  8
0
370
    35
390
0
 62
     7
 48
0.111783
100
AcDbLine
 10
822.714966
 20
339.502747
 30
0.0
 11
826.497131
 21
341.887695
 31
0.0
210
0.0
220
0.0
230
1.0
  0
LINE
  5
101
100
AcDbEntity
  8
0
370
    35
390
0
 62
     7
 48
0.051594
100
AcDbLine
 10
826.497131
 20
341.887695
 30
0.0
 11
828.207214
 21
343.042969
 31
0.0
210
0.0
220
0.0
230
1.0
  0
LINE
  5
102
100
AcDbEntity
  8
0
370
    35
390
0
 62
     7
 48
0.026137
100
AcDbLine
 10
828.207214
 20
343.042969
 30
0.0
 11
829.049805
 21
343.661926
 31
0.0
210
0.0
220
0.0
230
1.0
  0
LINE
  5
103
100
AcDbEntity
  8
0
370
    35
390
0
 62
     7
 48
0.026128
100
AcDbLine
 10
829.049805
 20
343.661926
 30
0.0
 11
829.862732
 21
344.318787
 31
0.0
210
0.0
220
0.0
230
1.0
  0
LINE
  5
104
100
AcDbEntity
  8
0
370
    35
390
0
 62
     7
 48
0.020767
100
AcDbLine
 10
829.862732
 20
344.318787
 30
0.0
 11
830.476563
 21
344.878479
 31
0.0
210
0.0
220
0.0
230
1.0
  0
LINE
  5
105
100
AcDbEntity
  8
0
370
    35
390
0
 62
     7
 48
0.020501
100
AcDbLine
 10
830.476563
 20
344.878479
 30
0.0
 11
831.042114
 21
345.47229
 31
0.0
210
0.0
220
0.0
230
1.0
  0
LINE
  5
106
100
AcDbEntity
  8
0
370
    35
390
0
 62
     7
 48
0.016082
100
AcDbLine
 10
831.042114
 20
345.47229
 30
0.0
 11
831.448242
 21
345.971161
 31
0.0
210
0.0
220
0.0
230
1.0
  0
LINE
  5
107
100
AcDbEntity
  8
0
370
    35
390
0
 62
     7
 48
0.015902
100
AcDbLine
 10
831.448242
 20
345.971161
 30
0.0
 11
831.809143
 21
346.494965
 31
0.0
210
0.0
220
0.0
230
1.0
  0
LINE
  5
108
100
AcDbEntity
  8
0
370
    35
390
0
 62
     7
 48
0.014152
100
AcDbLine
 10
831.809143
 20
346.494965
 30
0.0
 11
832.09021
 21
346.986359
 31
0.0
210
0.0
220
0.0
230
1.0
  0
LINE
  5
109
100
AcDbEntity
  8
0
370
    35
390
0
 62
     7
 48
0.014106
100
AcDbLine
 10
832.09021
 20
346.986359
 30
0.0
 11
832.328247
 21
347.497925
 31
0.0
210
0.0
220
0.0
230
1.0
  0
LINE
  5
10A
100
AcDbEntity
  8
0
370
    35
390
0
 62
     7
 48
0.027365
100
AcDbLine
 10
832.328247
 20
347.497925
 30
0.0
 11
832.66272
 21
348.540161
 31
0.0
210
0.0
220
0.0
230
1.0
  0
LINE
  5
10B
100
AcDbEntity
  8
0
370
    35
390
0
 62
     7
 48
0.028605
100
AcDbLine
 10
832.66272
 20
348.540161
 30
0.0
 11
832.838257
 21
349.670807
 31
0.0
210
0.0
220
0.0
230
1.0
  0
LINE
  5
10C
100
AcDbEntity
  8
0
370
    35
390
0
 62
     7
 48
0.03156
100
AcDbLine
 10
832.838257
 20
349.670807
 30
0.0
 11
832.8573
 21
350.933044
 31
0.0
210
0.0
220
0.0
230
1.0
  0
LINE
  5
10D
100
AcDbEntity
  8
0
370
    35
390
0
 62
     7
 48
0.036245
100
AcDbLine
 10
832.8573
 20
350.933044
 30
0.0
 11
832.708496
 21
352.375183
 31
0.0
210
0.0
220
0.0
230
1.0
  0
LINE
  5
10E
100
AcDbEntity
  8
0
370
    35
390
0
 62
     7
 48
0.042912
100
AcDbLine
 10
832.708496
 20
352.375183
 30
0.0
 11
832.368713
 21
354.057678
 31
0.0
210
0.0
220
0.0
230
1.0
  0
LINE
  5
10F
100
AcDbEntity
  8
0
370
    35
390
0
 62
     7
 48
0.051486
100
AcDbLine
 10
832.368713
 20
354.057678
 30
0.0
 11
831.80481
 21
356.038422
 31
0.0
210
0.0
220
0.0
230
1.0
  0
LINE
  5
110
100
AcDbEntity
  8
0
370
    35
390
0
 62
     7
 48
0.061854
100
AcDbLine
 10
831.80481
 20
356.038422
 30
0.0
 11
830.977295
 21
358.370087
 31
0.0
210
0.0
220
0.0
230
1.0
  0
LINE
  5
111
100
AcDbEntity
  8
0
370
    35
390
0
 62
     7
 48
0.075459
100
AcDbLine
 10
830.977295
 20
358.370087
 30
0.0
 11
829.821228
 21
361.158295
 31
0.0
210
0.0
220
0.0
230
1.0
  0
LINE
  5
112
100
AcDbEntity
  8
0
370
    35
390
0
 62
     7
 48
0.096187
100
AcDbLine
 10
829.821228
 20
361.158295
 30
0.0
 11
828.202637
 21
364.648743
 31
0.0
210
0.0
220
0.0
230
1.0
  0
LINE
  5
113
100
AcDbEntity
  8
0
370
    35
390
0
 62
     7
 48
0.136473
100
AcDbLine
 10
828.202637
 20
364.648743
 30
0.0
 11
825.765991
 21
369.533691
 31
0.0
210
0.0
220
0.0
230
1.0
  0
LINE
  5
114
100
AcDbEntity
  8
0
370
    35
390
0
 62
     7
 48
0.204065
100
AcDbLine
 10
825.765991
 20
369.533691
 30
0.0
 11
821.993286
 21
376.772125
 31
0.0
210
0.0
220
0.0
230
1.0
  0
LINE
  5
115
100
AcDbEntity
  8
0
370
    35
390
0
 62
     7
 48
0.225322
100
AcDbLine
 10
821.993286
 20
376.772125
 30
0.0
 11
817.842529
 21
384.772308
 31
0.0
210
0.0
220
0.0
230
1.0
  0
LINE
  5
116
100
AcDbEntity
  8
0
370
    35
390
0
 62
     7
 48
0.226382
100
AcDbLine
 10
817.842529
 20
384.772308
 30
0.0
 11
813.761597
 21
392.855896
 31
0.0
210
0.0
220
0.0
230
1.0
  0
LINE
  5
117
100
AcDbEntity
  8
0
370
    35
390
0
 62
     7
 48
0.175563
100
AcDbLine
 10
813.761597
 20
392.855896
 30
0.0
 11
810.600037
 21
399.126495
 31
0.0
210
0.0
220
0.0
230
1.0
  0
LINE
  5
118
100
AcDbEntity
  8
0
370
    35
390
0
 62
     7
 48
0.175771
100
AcDbLine
 10
810.600037
 20
399.126495
 30
0.0
 11
807.588196
 21
405.479553
 31
0.0
210
0.0
220
0.0
230
1.0
  0
LINE
  5
119
100
AcDbEntity
  8
0
370
    35
390
0
 62
     7
 48
0.052201
100
AcDbLine
 10
807.588196
 20
405.479553
 30
0.0
 11
806.652649
 21
407.346283
 31
0.0
210
0.0
220
0.0
230
1.0
  0
LINE
  5
11A
100
AcDbEntity
  8
0
370
    35
390
0
 62
     7
 48
0.052129
100
AcDbLine
 10
806.652649
 20
407.346283
 30
0.0
 11
805.643372
 21
409.170898
 31
0.0
210
0.0
220
0.0
230
1.0
  0
LINE
  5
11B
100
AcDbEntity
  8
0
370
    35
390
0
 62
     7
 48
0.031647
100
AcDbLine
 10
805.643372
 20
409.170898
 30
0.0
 11
804.981201
 21
410.249786
 31
0.0
210
0.0
220
0.0
230
1.0
  0
LINE
  5
11C
100
AcDbEntity
  8
0
370
    35
390
0
 62
     7
 48
0.031642
100
AcDbLine
 10
804.981201
 20
410.249786
 30
0.0
 11
804.275757
 21
411.300629
 31
0.0
210
0.0
220
0.0
230
1.0
  0
LINE
  5
11D
100
AcDbEntity
  8
0
370
    35
390
0
 62
     7
 48
0.028325
100
AcDbLine
 10
804.275757
 20
411.300629
 30
0.0
 11
803.605408
 21
412.21405
 31
0.0
210
0.0
220
0.0
230
1.0
  0
LINE
  5
11E
100
AcDbEntity
  8
0
370
    35
390
0
 62
     7
 48
0.028355
100
AcDbLine
 10
803.605408
 20
412.21405
 30
0.0
 11
802.897156
 21
413.099945
 31
0.0
210
0.0
220
0.0
230
1.0
  0
LINE
  5
11F
100
AcDbEntity
  8
0
370
    35
390
0
 62
     7
 48
0.055458
100
AcDbLine
 10
802.897156
 20
413.099945
 30
0.0
 11
801.408508
 21
414.744568
 31
0.0
210
0.0
220
0.0
230
1.0
  0
LINE
  5
120
100
AcDbEntity
  8
0
370
    35
390
0
 62
     7
 48
0.056721
100
AcDbLine
 10
801.408508
 20
414.744568
 30
0.0
 11
799.758789
 21
416.302124
 31
0.0
210
0.0
220
0.0
230
1.0
  0
LINE
  5
121
100
AcDbEntity
  8
0
370
    35
390
0
 62
     7
 48
0.05968
100
AcDbLine
 10
799.758789
 20
416.302124
 30
0.0
 11
797.907349
 21
417.809082
 31
0.0
210
0.0
220
0.0
230
1.0
  0
LINE
  5
122
100
AcDbEntity
  8
0
370
    35
390
0
 62
     7
 48
0.064162
100
AcDbLine
 10
797.907349
 20
417.809082
 30
0.0
 11
795.812256
 21
419.291473
 31
0.0
210
0.0
220
0.0
230
1.0
  0
LINE
  5
123
100
AcDbEntity
  8
0
370
    35
390
0
 62
     7
 48
0.070504
100
AcDbLine
 10
795.812256
 20
419.291473
 30
0.0
 11
793.415771
 21
420.778168
 31
0.0
210
0.0
220
0.0
230
1.0
  0
LINE
  5
124
100
AcDbEntity
  8
0
370
    35
390
0
 62
     7
 48
0.080516
100
AcDbLine
 10
793.415771
 20
420.778168
 30
0.0
 11
790.595093
 21
422.332611
 31
0.0
210
0.0
220
0.0
230
1.0
  0
LINE
  5
125
100
AcDbEntity
  8
0
370
    35
390
0
 62
     7
 48
0.099512
100
AcDbLine
 10
790.595093
 20
422.332611
 30
0.0
 11
787.035828
 21
424.114685
 31
0.0
210
0.0
220
0.0
230
1.0
  0
LINE
  5
126
100
AcDbEntity
  8
0
370
    35
390
0
 62
     7
 48
0.153781
100
AcDbLine
 10
787.035828
 20
424.114685
 30
0.0
 11
781.480103
 21
426.755035
 31
0.0
210
0.0
220
0.0
230
1.0
  0
LINE
  5
127
100
AcDbEntity
  8
0
370
    35
390
0
 62
     7
 48
0.144118
100
AcDbLine
 10
781.480103
 20
426.755035
 30
0.0
 11
776.285889
 21
429.255432
 31
0.0
210
0.0
220
0.0
230
1.0
  0
LINE
  5
128
100
AcDbEntity
  8
0
370
    35
390
0
 62
     7
 48
0.144489
100
AcDbLine
 10
776.285889
 20
429.255432
 30
0.0
 11
771.099487
 21
431.805847
 31
0.0
210
0.0
220
0.0
230
1.0
  0
LINE
  5
129
100
AcDbEntity
  8
0
370
    35
390
0
 62
     7
 48
0.10937
100
AcDbLine
 10
771.099487
 20
431.805847
 30
0.0
 11
767.154297
 21
433.696411
 31
0.0
210
0.0
220
0.0
230
1.0
  0
LINE
  5
12A
100
AcDbEntity
  8
0
370
    35
390
0
 62
     7
 48
0.108846
100
AcDbLine
 10
767.154297
 20
433.696411
 30
0.0
 11
763.177063
 21
435.467712
 31
0.0
210
0.0
220
0.0
230
1.0
  0
LINE
  5
12B
100
AcDbEntity
  8
0
370
    35
390
0
 62
     7
 48
0.113049
100
AcDbLine
 10
763.177063
 20
435.467712
 30
0.0
 11
758.98053
 21
437.1521
 31
0.0
210
0.0
220
0.0
230
1.0
  0
LINE
  5
12C
100
AcDbEntity
  8
0
370
    35
390
0
 62
     7
 48
0.132513
100
AcDbLine
 10
758.98053
 20
437.1521
 30
0.0
 11
754.006409
 21
438.983368
 31
0.0
210
0.0
220
0.0
230
1.0
  0
LINE
  5
12D
100
AcDbEntity
  8
0
370
    35
390
0
 62
     7
 48
0.1522
100
AcDbLine
 10
754.006409
 20
438.983368
 30
0.0
 11
748.300354
 21
441.105835
 31
0.0
210
0.0
220
0.0
230
1.0
  0
LINE
  5
12E
100
AcDbEntity
  8
0
370
    35
390
0
 62
     7
 48
0.075756
100
AcDbLine
 10
748.300354
 20
441.105835
 30
0.0
 11
745.490051
 21
442.239258
 31
0.0
210
0.0
220
0.0
230
1.0
  0
LINE
  5
12F
100
AcDbEntity
  8
0
370
    35
390
0
 62
     7
 48
0.074878
100
AcDbLine
 10
745.490051
 20
442.239258
 30
0.0
 11
742.731689
 21
443.406433
 31
0.0
210
0.0
220
0.0
230
1.0
  0
LINE
  5
130
100
AcDbEntity
  8
0
370
    35
390
0
 62
     7
 48
0.04956
100
AcDbLine
 10
742.731689
 20
443.406433
 30
0.0
 11
740.902283
 21
444.170105
 31
0.0
210
0.0
220
0.0
230
1.0
  0
LINE
  5
131
100
AcDbEntity
  8
0
370
    35
390
0
 62
     7
 48
0.049798
100
AcDbLine
 10
740.902283
 20
444.170105
 30
0.0
 11
739.042542
 21
444.883575
 31
0.0
210
0.0
220
0.0
230
1.0
  0
LINE
  5
132
100
AcDbEntity
  8
0
370
    35
390
0
 62
     7
 48
0.050627
100
AcDbLine
 10
739.042542
 20
444.883575
 30
0.0
 11
737.121216
 21
445.523407
 31
0.0
210
0.0
220
0.0
230
1.0
  0
LINE
  5
133
100
AcDbEntity
  8
0
370
    35
390
0
 62
     7
 48
0.051617
100
AcDbLine
 10
737.121216
 20
445.523407
 30
0.0
 11
735.141907
 21
446.110962
 31
0.0
210
0.0
220
0.0
230
1.0
  0
LINE
  5
134
100
AcDbEntity
  8
0
370
    35
390
0
 62
     7
 48
0.055644
100
AcDbLine
 10
735.141907
 20
446.110962
 30
0.0
 11
733.02478
 21
446.797852
 31
0.0
210
0.0
220
0.0
230
1.0
  0
LINE
  5
135
100
AcDbEntity
  8
0
370
    35
390
0
 62
     7
 48
0.02734
100
AcDbLine
 10
733.02478
 20
446.797852
 30
0.0
 11
732.015564
 21
447.219055
 31
0.0
210
0.0
220
0.0
230
1.0
  0
LINE
  5
136
100
AcDbEntity
  8
0
370
    35
390
0
 62
     7
 48
0.026942
100
AcDbLine
 10
732.015564
 20
447.219055
 30
0.0
 11
731.061218
 21
447.719635
 31
0.0
210
0.0
220
0.0
230
1.0
  0
LINE
  5
137
100
AcDbEntity
  8
0
370
    35
390
0
 62
     7
 48
0.034325
100
AcDbLine
 10
731.061218
 20
447.719635
 30
0.0
 11
729.926208
 21
448.492188
 31
0.0
210
0.0
220
0.0
230
1.0
  0
LINE
  5
138
100
AcDbEntity
  8
0
370
    35
390
0
 62
     7
 48
0.03696
100
AcDbLine
 10
729.926208
 20
448.492188
 30
0.0
 11
728.805054
 21
449.455872
 31
0.0
210
0.0
220
0.0
230
1.0
  0
LINE
  5
139
100
AcDbEntity
  8
0
370
    35
390
0
 62
     7
 48
0.032915
100
AcDbLine
 10
728.805054
 20
449.455872
 30
0.0
 11
727.840698
 21
450.352203
 31
0.0
210
0.0
220
0.0
230
1.0
  0
LINE
  5
13A
100
AcDbEntity
  8
0
370
    35
390
0
 62
     7
 48
0.032987
100
AcDbLine
 10
727.840698
 20
450.352203
 30
0.0
 11
726.833862
 21
451.205048
 31
0.0
210
0.0
220
0.0
230
1.0
  0
LINE
  5
13B
100
AcDbEntity
  8
0
370
    35
390
0
 62
     7
 48
0.019042
100
AcDbLine
 10
726.833862
 20
451.205048
 30
0.0
 11
726.217285
 21
451.652222
 31
0.0
210
0.0
220
0.0
230
1.0
  0
LINE
  5
13C
100
AcDbEntity
  8
0
370
    35
390
0
 62
     7
 48
0.019035
100
AcDbLine
 10
726.217285
 20
451.652222
 30
0.0
 11
725.573364
 21
452.058533
 31
0.0
210
0.0
220
0.0
230
1.0
  0
LINE
  5
13D
100
AcDbEntity
  8
0
370
    35
390
0
 62
     7
 48
0.036401
100
AcDbLine
 10
725.573364
 20
452.058533
 30
0.0
 11
724.275696
 21
452.718933
 31
0.0
210
0.0
220
0.0
230
1.0
  0
LINE
  5
13E
100
AcDbEntity
  8
0
370
    35
390
0
 62
     7
 48
0.039448
100
AcDbLine
 10
724.275696
 20
452.718933
 30
0.0
 11
722.799805
 21
453.27713
 31
0.0
210
0.0
220
0.0
230
1.0
  0
LINE
  5
13F
100
AcDbEntity
  8
0
370
    35
390
0
 62
     7
 48
0.044475
100
AcDbLine
 10
722.799805
 20
453.27713
 30
0.0
 11
721.083069
 21
453.743622
 31
0.0
210
0.0
220
0.0
230
1.0
  0
LINE
  5
140
100
AcDbEntity
  8
0
370
    35
390
0
 62
     7
 48
0.023719
100
AcDbLine
 10
721.083069
 20
453.743622
 30
0.0
 11
720.152405
 21
453.928009
 31
0.0
210
0.0
220
0.0
230
1.0
  0
LINE
  5
141
100
AcDbEntity
  8
0
370
    35
390
0
 62
     7
 48
0.023728
100
AcDbLine
 10
720.152405
 20
453.928009
 30
0.0
 11
719.212891
 21
454.062622
 31
0.0
210
0.0
220
0.0
230
1.0
  0
LINE
  5
142
100
AcDbEntity
  8
0
370
    35
390
0
 62
     7
 48
0.020487
100
AcDbLine
 10
719.212891
 20
454.062622
 30
0.0
 11
718.39624
 21
454.130798
 31
0.0
210
0.0
220
0.0
230
1.0
  0
LINE
  5
143
100
AcDbEntity
  8
0
370
    35
390
0
 62
     7
 48
0.020476
100
AcDbLine
 10
718.39624
 20
454.130798
 30
0.0
 11
717.577332
 21
454.145813
 31
0.0
210
0.0
220
0.0
230
1.0
  0
LINE
  5
144
100
AcDbEntity
  8
0
370
    35
390
0
 62
     7
 48
0.017624
100
AcDbLine
 10
717.577332
 20
454.145813
 30
0.0
 11
716.873291
 21
454.110199
 31
0.0
210
0.0
220
0.0
230
1.0
  0
LINE
  5
145
100
AcDbEntity
  8
0
370
    35
390
0
 62
     7
 48
0.017631
100
AcDbLine
 10
716.873291
 20
454.110199
 30
0.0
 11
716.173096
 21
454.02594
 31
0.0
210
0.0
220
0.0
230
1.0
  0
LINE
  5
146
100
AcDbEntity
  8
0
370
    35
390
0
 62
     7
 48
0.016531
100
AcDbLine
 10
716.173096
 20
454.02594
 30
0.0
 11
715.523804
 21
453.900909
 31
0.0
210
0.0
220
0.0
230
1.0
  0
LINE
  5
147
100
AcDbEntity
  8
0
370
    35
390
0
 62
     7
 48
0.01653
100
AcDbLine
 10
715.523804
 20
453.900909
 30
0.0
 11
714.884766
 21
453.73114
 31
0.0
210
0.0
220
0.0
230
1.0
  0
LINE
  5
148
100
AcDbEntity
  8
0
370
    35
390
0
 62
     7
 48
0.032798
100
AcDbLine
 10
714.884766
 20
453.73114
 30
0.0
 11
713.657898
 21
453.26651
 31
0.0
210
0.0
220
0.0
230
1.0
  0
LINE
  5
149
100
AcDbEntity
  8
0
370
    35
390
0
 62
     7
 48
0.03418
100
AcDbLine
 10
713.657898
 20
453.26651
 30
0.0
 11
712.451782
 21
452.622711
 31
0.0
210
0.0
220
0.0
230
1.0
  0
LINE
  5
14A
100
AcDbEntity
  8
0
370
    35
390
0
 62
     7
 48
0.037758
100
AcDbLine
 10
712.451782
 20
452.622711
 30
0.0
 11
711.207947
 21
451.765991
 31
0.0
210
0.0
220
0.0
230
1.0
  0
LINE
  5
14B
100
AcDbEntity
  8
0
370
    35
390
0
 62
     7
 48
0.043979
100
AcDbLine
 10
711.207947
 20
451.765991
 30
0.0
 11
709.860229
 21
450.635376
 31
0.0
210
0.0
220
0.0
230
1.0
  0
LINE
  5
14C
100
AcDbEntity
  8
0
370
    35
390
0
 62
     7
 48
0.051022
100
AcDbLine
 10
709.860229
 20
450.635376
 30
0.0
 11
708.408203
 21
449.201233
 31
0.0
210
0.0
220
0.0
230
1.0
  0
LINE
  5
14D
100
AcDbEntity
  8
0
370
    35
390
0
 62
     7
 48
0.063506
100
AcDbLine
 10
708.408203
 20
449.201233
 30
0.0
 11
706.700867
 21
447.320313
 31
0.0
210
0.0
220
0.0
230
1.0
  0
LINE
  5
14E
100
AcDbEntity
  8
0
370
    35
390
0
 62
     7
 48
0.040666
100
AcDbLine
 10
706.700867
 20
447.320313
 30
0.0
 11
705.578857
 21
446.142578
 31
0.0
210
0.0
220
0.0
230
1.0
  0
LINE
  5
14F
100
AcDbEntity
  8
0
370
    35
390
0
 62
     7
 48
0.020286
100
AcDbLine
 10
705.578857
 20
446.142578
 30
0.0
 11
704.984009
 21
445.590698
 31
0.0
210
0.0
220
0.0
230
1.0
  0
LINE
  5
150
100
AcDbEntity
  8
0
370
    35
390
0
 62
     7
 48
0.020209
100
AcDbLine
 10
704.984009
 20
445.590698
 30
0.0
 11
704.358154
 21
445.079102
 31
0.0
210
0.0
220
0.0
230
1.0
  0
LINE
  5
151
100
AcDbEntity
  8
0
370
    35
390
0
 62
     7
 48
0.017305
100
AcDbLine
 10
704.358154
 20
445.079102
 30
0.0
 11
703.79303
 21
444.679413
 31
0.0
210
0.0
220
0.0
230
1.0
  0
LINE
  5
152
100
AcDbEntity
  8
0
370
    35
390
0
 62
     7
 48
0.017335
100
AcDbLine
 10
703.79303
 20
444.679413
 30
0.0
 11
703.199951
 21
444.320129
 31
0.0
210
0.0
220
0.0
230
1.0
  0
LINE
  5
153
100
AcDbEntity
  8
0
370
    35
390
0
 62
     7
 48
0.022426
100
AcDbLine
 10
703.199951
 20
444.320129
 30
0.0
 11
702.392334
 21
443.929657
 31
0.0
210
0.0
220
0.0
230
1.0
  0
LINE
  5
154
100
AcDbEntity
  8
0
370
    35
390
0
 62
     7
100
AcDbLine
 10
719.67981
 20
381.655579
 30
0.0
 11
743.853149
 21
368.551605
 31
0.0
210
0.0
220
0.0
230
1.0
  0
LINE
  5
155
100
AcDbEntity
  8
0
370
    35
390
0
 62
     7
 48
0.364072
100
AcDbLine
 10
726.619995
 20
394.458344
 30
0.0
 11
719.67981
 21
381.655579
 31
0.0
210
0.0
220
0.0
230
1.0
  0
LINE
  5
156
100
AcDbEntity
  8
0
370
    35
390
0
 62
     7
100
AcDbLine
 10
750.793274
 20
381.35437
 30
0.0
 11
726.619995
 21
394.458344
 31
0.0
210
0.0
220
0.0
230
1.0
  0
LINE
  5
157
100
AcDbEntity
  8
0
370
    35
390
0
 62
     7
 48
0.351383
100
AcDbLine
 10
744.094971
 20
368.997803
 30
0.0
 11
750.793274
 21
381.35437
 31
0.0
210
0.0
220
0.0
230
1.0
  0
LINE
  5
158
100
AcDbEntity
  8
0
370
    35
390
0
 62
     7
 48
0.012688
100
AcDbLine
 10
743.853149
 20
368.551605
 30
0.0
 11
744.094971
 21
368.997803
 31
0.0
210
0.0
220
0.0
230
1.0
  0
CIRCLE
  5
159
100
AcDbEntity
  8
0
370
    35
390
0
 62
     7
100
AcDbCircle
 10
760.436218
 20
367.963013
 30
0.0
 40
2.75
210
0.0
220
0.0
230
1.0
  0
CIRCLE
  5
15A
100
AcDbEntity
  8
0
370
    35
390
0
 62
     7
100
AcDbCircle
 10
805.807617
 20
362.624786
 30
0.0
 40
1.5
210
0.0
220
0.0
230
1.0
  0
CIRCLE
  5
15B
100
AcDbEntity
  8
0
370
    35
390
0
 62
     7
100
AcDbCircle
 10
770.557861
 20
362.503815
 30
0.0
 40
3.5
210
0.0
220
0.0
230
1.0
  0
CIRCLE
  5
15C
100
AcDbEntity
  8
0
370
    35
390
0
 62
     7
100
AcDbCircle
 10
735.308044
 20
362.382813
 30
0.0
 40
1.5
210
0.0
220
0.0
230
1.0
  0
CIRCLE
  5
15D
100
AcDbEntity
  8
0
370
    35
390
0
 62
     7
100
AcDbCircle
 10
748.825012
 20
364.340881
 30
0.0
 40
1.5
210
0.0
220
0.0
230
1.0
  0
CIRCLE
  5
15E
100
AcDbEntity
  8
0
370
    35
390
0
 62
     7
100
AcDbCircle
 10
757.085022
 20
379.655304
 30
0.0
 40
1.5
210
0.0
220
0.0
230
1.0
  0
CIRCLE
  5
15F
100
AcDbEntity
  8
0
370
    35
390
0
 62
     7
100
AcDbCircle
 10
803.230896
 20
370.558929
 30
0.0
 40
1.5
210
0.0
220
0.0
230
1.0
  0
CIRCLE
  5
160
100
AcDbEntity
  8
0
370
    35
390
0
 62
     7
100
AcDbCircle
 10
741.359924
 20
403.929779
 30
0.0
 40
1.5
210
0.0
220
0.0
230
1.0
  0
LINE
  5
161
100
AcDbEntity
  8
0
370
    35
390
0
 62
     7
 48
0.22
100
AcDbLine
 10
750.430481
 20
353.154266
 30
0.0
 11
758.901001
 21
350.76886
 31
0.0
210
0.0
220
0.0
230
1.0
  0
LINE
  5
162
100
AcDbEntity
  8
0
370
    35
390
0
 62
     7
 48
0.065
100
AcDbLine
 10
758.901001
 20
350.76886
 30
0.0
 11
758.196228
 21
348.266205
 31
0.0
210
0.0
220
0.0
230
1.0
  0
LINE
  5
163
100
AcDbEntity
  8
0
370
    35
390
0
 62
     7
 48
0.22
100
AcDbLine
 10
770.644287
 20
347.461853
 30
0.0
 11
779.114807
 21
345.076447
 31
0.0
210
0.0
220
0.0
230
1.0
  0
LINE
  5
164
100
AcDbEntity
  8
0
370
    35
390
0
 62
     7
 48
0.065
100
AcDbLine
 10
779.114807
 20
345.076447
 30
0.0
 11
778.410034
 21
342.573792
 31
0.0
210
0.0
220
0.0
230
1.0
  0
LINE
  5
165
100
AcDbEntity
  8
0
370
    35
390
0
 62
     7
 48
0.22
100
AcDbLine
 10
778.410034
 20
342.573792
 30
0.0
 11
769.939514
 21
344.959198
 31
0.0
210
0.0
220
0.0
230
1.0
  0
LINE
  5
166
100
AcDbEntity
  8
0
370
    35
390
0
 62
     7
 48
0.065
100
AcDbLine
 10
769.939514
 20
344.959198
 30
0.0
 11
770.644287
 21
347.461853
 31
0.0
210
0.0
220
0.0
230
1.0
  0
LINE
  5
167
100
AcDbEntity
  8
0
370
    35
390
0
 62
     7
 48
0.245
100
AcDbLine
 10
790.847656
 20
375.760925
 30
0.0
 11
782.22229
 21
380.413116
 31
0.0
210
0.0
220
0.0
230
1.0
  0
LINE
  5
168
100
AcDbEntity
  8
0
370
    35
390
0
 62
     7
 48
0.065
100
AcDbLine
 10
782.22229
 20
380.413116
 30
0.0
 11
783.456543
 21
382.701477
 31
0.0
210
0.0
220
0.0
230
1.0
  0
LINE
  5
169
100
AcDbEntity
  8
0
370
    35
390
0
 62
     7
 48
0.245
100
AcDbLine
 10
783.456543
 20
382.701477
 30
0.0
 11
792.081909
 21
378.049286
 31
0.0
210
0.0
220
0.0
230
1.0
  0
LINE
  5
16A
100
AcDbEntity
  8
0
370
    35
390
0
 62
     7
 48
0.065
100
AcDbLine
 10
792.081909
 20
378.049286
 30
0.0
 11
790.847656
 21
375.760925
 31
0.0
210
0.0
220
0.0
230
1.0
  0
LINE
  5
16B
100
AcDbEntity
  8
0
370
    35
390
0
 62
     7
 48
0.245
100
AcDbLine
 10
761.134277
 20
391.787231
 30
0.0
 11
752.508911
 21
396.439423
 31
0.0
210
0.0
220
0.0
230
1.0
  0
LINE
  5
16C
100
AcDbEntity
  8
0
370
    35
390
0
 62
     7
 48
0.065
100
AcDbLine
 10
752.508911
 20
396.439423
 30
0.0
 11
753.743164
 21
398.727783
 31
0.0
210
0.0
220
0.0
230
1.0
  0
LINE
  5
16D
100
AcDbEntity
  8
0
370
    35
390
0
 62
     7
 48
0.245
100
AcDbLine
 10
753.743164
 20
398.727783
 30
0.0
 11
762.36853
 21
394.075592
 31
0.0
210
0.0
220
0.0
230
1.0
  0
LINE
  5
16E
100
AcDbEntity
  8
0
370
    35
390
0
 62
     7
 48
0.065
100
AcDbLine
 10
762.36853
 20
394.075592
 30
0.0
 11
761.134277
 21
391.787231
 31
0.0
210
0.0
220
0.0
230
1.0
  0
CIRCLE
  5
16F
100
AcDbEntity
  8
0
370
    35
390
0
 62
     7
100
AcDbCircle
 10
717.862427
 20
446.581299
 30
0.0
 40
2.1
210
0.0
220
0.0
230
1.0
  0
CIRCLE
  5
170
100
AcDbEntity
  8
0
370
    35
390
0
 62
     7
100
AcDbCircle
 10
717.862427
 20
446.581299
 30
0.0
 40
4.2
210
0.0
220
0.0
230
1.0
  0
ARC
  5
171
100
AcDbEntity
  8
0
370
    35
390
0
 62
     7
100
AcDbCircle
 10
910.765259
 20
419.782043
 30
0.0
 40
9.0
210
0.0
220
0.0
230
1.0
100
AcDbArc
 50
68.375603
 51
91.269345
  0
ARC
  5
172
100
AcDbEntity
  8
0
370
    35
390
0
 62
     7
100
AcDbCircle
 10
890.284912
 20
425.034119
 30
0.0
 40
20.624
210
0.0
220
0.0
230
1.0
100
AcDbArc
 50
10.464085
 51
14.316822
  0
ARC
  5
173
100
AcDbEntity
  8
0
370
    35
390
0
 62
     7
100
AcDbCircle
 10
906.677979
 20
438.386902
 30
0.0
 40
9.0
210
0.0
220
0.0
230
1.0
100
AcDbArc
 50
293.511565
 51
316.4053
  0
ARC
  5
174
100
AcDbEntity
  8
0
370
    35
390
0
 62
     7
100
AcDbCircle
 10
890.284912
 20
425.034119
 30
0.0
 40
24.0
210
0.0
220
0.0
230
1.0
100
AcDbArc
 50
17.324561
 51
19.456347
  0
ARC
  5
175
100
AcDbEntity
  8
0
370
    35
390
0
 62
     7
100
AcDbCircle
 10
911.409729
 20
424.154907
 30
0.0
 40
9.0
210
0.0
220
0.0
230
1.0
100
AcDbArc
 50
80.375603
 51
103.269346
  0
ARC
  5
176
100
AcDbEntity
  8
0
370
    35
390
0
 62
     7
100
AcDbCircle
 10
890.284912
 20
425.034119
 30
0.0
 40
20.624
210
0.0
220
0.0
230
1.0
100
AcDbArc
 50
22.464084
 51
26.316821
  0
ARC
  5
177
100
AcDbEntity
  8
0
370
    35
390
0
 62
     7
100
AcDbCircle
 10
903.543579
 20
441.503418
 30
0.0
 40
9.0
210
0.0
220
0.0
230
1.0
100
AcDbArc
 50
305.511565
 51
328.405304
  0
ARC
  5
178
100
AcDbEntity
  8
0
370
    35
390
0
 62
     7
100
AcDbCircle
 10
890.284912
 20
425.034119
 30
0.0
 40
24.0
210
0.0
220
0.0
230
1.0
100
AcDbArc
 50
29.32456
 51
31.456347
  0
ARC
  5
179
100
AcDbEntity
  8
0
370
    35
390
0
 62
     7
100
AcDbCircle
 10
911.130859
 20
428.566223
 30
0.0
 40
9.0
210
0.0
220
0.0
230
1.0
100
AcDbArc
 50
92.375604
 51
115.269346
  0
ARC
  5
17A
100
AcDbEntity
  8
0
370
    35
390
0
 62
     7
100
AcDbCircle
 10
890.284912
 20
425.034119
 30
0.0
 40
20.624
210
0.0
220
0.0
230
1.0
100
AcDbArc
 50
34.464086
 51
38.316822
  0
ARC
  5
17B
100
AcDbEntity
  8
0
370
    35
390
0
 62
     7
100
AcDbCircle
 10
899.829651
 20
443.900177
 30
0.0
 40
9.0
210
0.0
220
0.0
230
1.0
100
AcDbArc
 50
317.511562
 51
340.405301
  0
ARC
  5
17C
100
AcDbEntity
  8
0
370
    35
390
0
 62
     7
100
AcDbCircle
 10
890.284912
 20
425.034119
 30
0.0
 40
24.0
210
0.0
220
0.0
230
1.0
100
AcDbArc
 50
41.32456
 51
43.456348
  0
ARC
  5
17D
100
AcDbEntity
  8
0
370
    35
390
0
 62
     7
100
AcDbCircle
 10
909.940979
 20
432.823151
 30
0.0
 40
9.0
210
0.0
220
0.0
230
1.0
100
AcDbArc
 50
104.375604
 51
127.269346
  0
ARC
  5
17E
100
AcDbEntity
  8
0
370
    35
390
0
 62
     7
100
AcDbCircle
 10
890.284912
 20
425.034119
 30
0.0
 40
20.624
210
0.0
220
0.0
230
1.0
100
AcDbArc
 50
46.464083
 51
50.316822
  0
ARC
  5
17F
100
AcDbEntity
  8
0
370
    35
390
0
 62
     7
100
AcDbCircle
 10
895.698608
 20
445.472351
 30
0.0
 40
9.0
210
0.0
220
0.0
230
1.0
100
AcDbArc
 50
329.511566
 51
352.405303
  0
ARC
  5
180
100
AcDbEntity
  8
0
370
    35
390
0
 62
     7
100
AcDbCircle
 10
890.284912
 20
425.034119
 30
0.0
 40
24.0
210
0.0
220
0.0
230
1.0
100
AcDbArc
 50
53.324561
 51
55.456348
  0
ARC
  5
181
100
AcDbEntity
  8
0
370
    35
390
0
 62
     7
100
AcDbCircle
 10
907.892029
 20
436.739685
 30
0.0
 40
9.0
210
0.0
220
0.0
230
1.0
100
AcDbArc
 50
116.375604
 51
139.269347
  0
ARC
  5
182
100
AcDbEntity
  8
0
370
    35
390
0
 62
     7
100
AcDbCircle
 10
890.284912
 20
425.034119
 30
0.0
 40
20.624
210
0.0
220
0.0
230
1.0
100
AcDbArc
 50
58.464083
 51
62.316822
  0
ARC
  5
183
100
AcDbEntity
  8
0
370
    35
390
0
 62
     7
100
AcDbCircle
 10
891.330994
 20
446.151306
 30
0.0
 40
9.0
210
0.0
220
0.0
230
1.0
100
AcDbArc
 50
341.511564
 51
4.405303
  0
ARC
  5
184
100
AcDbEntity
  8
0
370
    35
390
0
 62
     7
100
AcDbCircle
 10
890.284912
 20
425.034119
 30
0.0
 40
24.0
210
0.0
220
0.0
230
1.0
100
AcDbArc
 50
65.324558
 51
67.456348
  0
ARC
  5
185
100
AcDbEntity
  8
0
370
    35
390
0
 62
     7
100
AcDbCircle
 10
905.073547
 20
440.144592
 30
0.0
 40
9.0
210
0.0
220
0.0
230
1.0
100
AcDbArc
 50
128.375605
 51
151.269347
  0
ARC
  5
186
100
AcDbEntity
  8
0
370
    35
390
0
 62
     7
100
AcDbCircle
 10
890.284912
 20
425.034119
 30
0.0
 40
20.624
210
0.0
220
0.0
230
1.0
100
AcDbArc
 50
70.464084
 51
74.316823
  0
ARC
  5
187
100
AcDbEntity
  8
0
370
    35
390
0
 62
     7
100
AcDbCircle
 10
886.917603
 20
445.907349
 30
0.0
 40
9.0
210
0.0
220
0.0
230
1.0
100
AcDbArc
 50
353.511563
 51
16.405303
  0
ARC
  5
188
100
AcDbEntity
  8
0
370
    35
390
0
 62
     7
100
AcDbCircle
 10
890.284912
 20
425.034119
 30
0.0
 40
24.0
210
0.0
220
0.0
230
1.0
100
AcDbArc
 50
77.324558
 51
79.456349
  0
ARC
  5
189
100
AcDbEntity
  8
0
370
    35
390
0
 62
     7
100
AcDbCircle
 10
901.608704
 20
442.88913
 30
0.0
 40
9.0
210
0.0
220
0.0
230
1.0
100
AcDbArc
 50
140.375605
 51
163.269347
  0
ARC
  5
18A
100
AcDbEntity
  8
0
370
    35
390
0
 62
     7
100
AcDbCircle
 10
890.284912
 20
425.034119
 30
0.0
 40
20.624
210
0.0
220
0.0
230
1.0
100
AcDbArc
 50
82.464084
 51
86.316823
  0
ARC
  5
18B
100
AcDbEntity
  8
0
370
    35
390
0
 62
     7
100
AcDbCircle
 10
882.651367
 20
444.751099
 30
0.0
 40
9.0
210
0.0
220
0.0
230
1.0
100
AcDbArc
 50
5.511563
 51
28.405302
  0
ARC
  5
18C
100
AcDbEntity
  8
0
370
    35
390
0
 62
     7
100
AcDbCircle
 10
890.284912
 20
425.034119
 30
0.0
 40
24.0
210
0.0
220
0.0
230
1.0
100
AcDbArc
 50
89.324558
 51
91.456349
  0
ARC
  5
18D
100
AcDbEntity
  8
0
370
    35
390
0
 62
     7
100
AcDbCircle
 10
897.648987
 20
444.853302
 30
0.0
 40
9.0
210
0.0
220
0.0
230
1.0
100
AcDbArc
 50
152.375605
 51
175.269348
  0
ARC
  5
18E
100
AcDbEntity
  8
0
370
    35
390
0
 62
     7
100
AcDbCircle
 10
890.284912
 20
425.034119
 30
0.0
 40
20.624
210
0.0
220
0.0
230
1.0
100
AcDbArc
 50
94.464084
 51
98.316823
  0
ARC
  5
18F
100
AcDbEntity
  8
0
370
    35
390
0
 62
     7
100
AcDbCircle
 10
878.718811
 20
442.733154
 30
0.0
 40
9.0
210
0.0
220
0.0
230
1.0
100
AcDbArc
 50
17.511562
 51
40.405302
  0
ARC
  5
190
100
AcDbEntity
  8
0
370
    35
390
0
 62
     7
100
AcDbCircle
 10
890.284912
 20
425.034119
 30
0.0
 40
24.0
210
0.0
220
0.0
230
1.0
100
AcDbArc
 50
101.324559
 51
103.456349
  0
ARC
  5
191
100
AcDbEntity
  8
0
370
    35
390
0
 62
     7
100
AcDbCircle
 10
893.367432
 20
445.951294
 30
0.0
 40
9.0
210
0.0
220
0.0
230
1.0
100
AcDbArc
 50
164.375606
 51
187.269338
  0
ARC
  5
192
100
AcDbEntity
  8
0
370
    35
390
0
 62
     7
100
AcDbCircle
 10
890.284912
 20
425.034119
 30
0.0
 40
20.624
210
0.0
220
0.0
230
1.0
100
AcDbArc
 50
106.464085
 51
110.316824
  0
ARC
  5
193
100
AcDbEntity
  8
0
370
    35
390
0
 62
     7
100
AcDbCircle
 10
875.291748
 20
439.94165
 30
0.0
 40
9.0
210
0.0
220
0.0
230
1.0
100
AcDbArc
 50
29.511564
 51
52.405303
  0
ARC
  5
194
100
AcDbEntity
  8
0
370
    35
390
0
 62
     7
100
AcDbCircle
 10
890.284912
 20
425.034119
 30
0.0
 40
24.0
210
0.0
220
0.0
230
1.0
100
AcDbArc
 50
113.324559
 51
115.456343
  0
ARC
  5
195
100
AcDbEntity
  8
0
370
    35
390
0
 62
     7
100
AcDbCircle
 10
888.951172
 20
446.135101
 30
0.0
 40
9.0
210
0.0
220
0.0
230
1.0
100
AcDbArc
 50
176.375606
 51
199.269338
  0
ARC
  5
196
100
AcDbEntity
  8
0
370
    35
390
0
 62
     7
100
AcDbCircle
 10
890.284912
 20
425.034119
 30
0.0
 40
20.624
210
0.0
220
0.0
230
1.0
100
AcDbArc
 50
118.464085
 51
122.316817
  0
ARC
  5
197
100
AcDbEntity
  8
0
370
    35
390
0
 62
     7
100
AcDbCircle
 10
872.519897
 20
436.498627
 30
0.0
 40
9.0
210
0.0
220
0.0
230
1.0
100
AcDbArc
 50
41.511564
 51
64.405303
  0
ARC
  5
198
100
AcDbEntity
  8
0
370
    35
390
0
 62
     7
100
AcDbCircle
 10
890.284912
 20
425.034119
 30
0.0
 40
24.0
210
0.0
220
0.0
230
1.0
100
AcDbArc
 50
125.324559
 51
127.456343
  0
ARC
  5
199
100
AcDbEntity
  8
0
370
    35
390
0
 62
     7
100
AcDbCircle
 10
884.59314
 20
445.396667
 30
0.0
 40
9.0
210
0.0
220
0.0
230
1.0
100
AcDbArc
 50
188.37561
 51
211.269339
  0
ARC
  5
19A
100
AcDbEntity
  8
0
370
    35
390
0
 62
     7
100
AcDbCircle
 10
890.284912
 20
425.034119
 30
0.0
 40
20.624
210
0.0
220
0.0
230
1.0
100
AcDbArc
 50
130.464085
 51
134.316818
  0
ARC
  5
19B
100
AcDbEntity
  8
0
370
    35
390
0
 62
     7
100
AcDbCircle
 10
870.524536
 20
432.554535
 30
0.0
 40
9.0
210
0.0
220
0.0
230
1.0
100
AcDbArc
 50
53.511564
 51
76.405303
  0
ARC
  5
19C
100
AcDbEntity
  8
0
370
    35
390
0
 62
     7
100
AcDbCircle
 10
890.284912
 20
425.034119
 30
0.0
 40
24.0
210
0.0
220
0.0
230
1.0
100
AcDbArc
 50
137.32456
 51
139.456344
  0
ARC
  5
19D
100
AcDbEntity
  8
0
370
    35
390
0
 62
     7
100
AcDbCircle
 10
880.483948
 20
443.768341
 30
0.0
 40
9.0
210
0.0
220
0.0
230
1.0
100
AcDbArc
 50
200.37561
 51
223.269339
  0
ARC
  5
19E
100
AcDbEntity
  8
0
370
    35
390
0
 62
     7
100
AcDbCircle
 10
890.284912
 20
425.034119
 30
0.0
 40
20.624
210
0.0
220
0.0
230
1.0
100
AcDbArc
 50
142.464086
 51
146.316818
  0
ARC
  5
19F
100
AcDbEntity
  8
0
370
    35
390
0
 62
     7
100
AcDbCircle
 10
869.392761
 20
428.281799
 30
0.0
 40
9.0
210
0.0
220
0.0
230
1.0
100
AcDbArc
 50
65.511561
 51
88.405304
  0
ARC
  5
1A0
100
AcDbEntity
  8
0
370
    35
390
0
 62
     7
100
AcDbCircle
 10
890.284912
 20
425.034119
 30
0.0
 40
24.0
210
0.0
220
0.0
230
1.0
100
AcDbArc
 50
149.32456
 51
151.456344
  0
ARC
  5
1A1
100
AcDbEntity
  8
0
370
    35
390
0
 62
     7
100
AcDbCircle
 10
876.80304
 20
441.321198
 30
0.0
 40
9.0
210
0.0
220
0.0
230
1.0
100
AcDbArc
 50
212.375611
 51
235.269339
  0
ARC
  5
1A2
100
AcDbEntity
  8
0
370
    35
390
0
 62
     7
100
AcDbCircle
 10
890.284912
 20
425.034119
 30
0.0
 40
20.624
210
0.0
220
0.0
230
1.0
100
AcDbArc
 50
154.464086
 51
158.316818
  0
ARC
  5
1A3
100
AcDbEntity
  8
0
370
    35
390
0
 62
     7
100
AcDbCircle
 10
869.174072
 20
423.867096
 30
0.0
 40
9.0
210
0.0
220
0.0
230
1.0
100
AcDbArc
 50
77.511562
 51
100.405304
  0
ARC
  5
1A4
100
AcDbEntity
  8
0
370
    35
390
0
 62
     7
100
AcDbCircle
 10
890.284912
 20
425.034119
 30
0.0
 40
24.0
210
0.0
220
0.0
230
1.0
100
AcDbArc
 50
161.32456
 51
163.456344
  0
ARC
  5
1A5
100
AcDbEntity
  8
0
370
    35
390
0
 62
     7
100
AcDbCircle
 10
873.711365
 20
438.162262
 30
0.0
 40
9.0
210
0.0
220
0.0
230
1.0
100
AcDbArc
 50
224.375611
 51
247.26934
  0
ARC
  5
1A6
100
AcDbEntity
  8
0
370
    35
390
0
 62
     7
100
AcDbCircle
 10
890.284912
 20
425.034119
 30
0.0
 40
20.624
210
0.0
220
0.0
230
1.0
100
AcDbArc
 50
166.464086
 51
170.316819
  0
ARC
  5
1A7
100
AcDbEntity
  8
0
370
    35
390
0
 62
     7
100
AcDbCircle
 10
869.878052
 20
419.503387
 30
0.0
 40
9.0
210
0.0
220
0.0
230
1.0
100
AcDbArc
 50
89.511562
 51
112.405304
  0
ARC
  5
1A8
100
AcDbEntity
  8
0
370
    35
390
0
 62
     7
100
AcDbCircle
 10
890.284912
 20
425.034119
 30
0.0
 40
24.0
210
0.0
220
0.0
230
1.0
100
AcDbArc
 50
173.324561
 51
175.456345
  0
ARC
  5
1A9
100
AcDbEntity
  8
0
370
    35
390
0
 62
     7
100
AcDbCircle
 10
871.344055
 20
434.429535
 30
0.0
 40
9.0
210
0.0
220
0.0
230
1.0
100
AcDbArc
 50
236.375598
 51
259.26934
  0
ARC
  5
1AA
100
AcDbEntity
  8
0
370
    35
390
0
 62
     7
100
AcDbCircle
 10
890.284912
 20
425.034119
 30
0.0
 40
20.624
210
0.0
220
0.0
230
1.0
100
AcDbArc
 50
178.464087
 51
182.316822
  0
ARC
  5
1AB
100
AcDbEntity
  8
0
370
    35
390
0
 62
     7
100
AcDbCircle
 10
871.473877
 20
415.381439
 30
0.0
 40
9.0
210
0.0
220
0.0
230
1.0
100
AcDbArc
 50
101.511562
 51
124.405298
  0
ARC
  5
1AC
100
AcDbEntity
  8
0
370
    35
390
0
 62
     7
100
AcDbCircle
 10
890.284912
 20
425.034119
 30
0.0
 40
24.0
210
0.0
220
0.0
230
1.0
100
AcDbArc
 50
185.324565
 51
187.456349
  0
ARC
  5
1AD
100
AcDbEntity
  8
0
370
    35
390
0
 62
     7
100
AcDbCircle
 10
869.804565
 20
430.286194
 30
0.0
 40
9.0
210
0.0
220
0.0
230
1.0
100
AcDbArc
 50
248.375605
 51
271.26934
  0
ARC
  5
1AE
100
AcDbEntity
  8
0
370
    35
390
0
 62
     7
100
AcDbCircle
 10
890.284912
 20
425.034119
 30
0.0
 40
20.624
210
0.0
220
0.0
230
1.0
100
AcDbArc
 50
190.464091
 51
194.316823
  0
ARC
  5
1AF
100
AcDbEntity
  8
0
370
    35
390
0
 62
     7
100
AcDbCircle
 10
873.891846
 20
411.681335
 30
0.0
 40
9.0
210
0.0
220
0.0
230
1.0
100
AcDbArc
 50
113.511563
 51
136.405298
  0
ARC
  5
1B0
100
AcDbEntity
  8
0
370
    35
390
0
 62
     7
100
AcDbCircle
 10
890.284912
 20
425.034119
 30
0.0
 40
24.0
210
0.0
220
0.0
230
1.0
100
AcDbArc
 50
197.324565
 51
199.456349
  0
ARC
  5
1B1
100
AcDbEntity
  8
0
370
    35
390
0
 62
     7
100
AcDbCircle
 10
869.160095
 20
425.91333
 30
0.0
 40
9.0
210
0.0
220
0.0
230
1.0
100
AcDbArc
 50
260.375605
 51
283.269341
  0
ARC
  5
1B2
100
AcDbEntity
  8
0
370
    35
390
0
 62
     7
100
AcDbCircle
 10
890.284912
 20
425.034119
 30
0.0
 40
20.624
210
0.0
220
0.0
230
1.0
100
AcDbArc
 50
202.464077
 51
206.316823
  0
ARC
  5
1B3
100
AcDbEntity
  8
0
370
    35
390
0
 62
     7
100
AcDbCircle
 10
877.026245
 20
408.564819
 30
0.0
 40
9.0
210
0.0
220
0.0
230
1.0
100
AcDbArc
 50
125.51157
 51
148.405298
  0
ARC
  5
1B4
100
AcDbEntity
  8
0
370
    35
390
0
 62
     7
100
AcDbCircle
 10
890.284912
 20
425.034119
 30
0.0
 40
24.0
210
0.0
220
0.0
230
1.0
100
AcDbArc
 50
209.324565
 51
211.456349
  0
ARC
  5
1B5
100
AcDbEntity
  8
0
370
    35
390
0
 62
     7
100
AcDbCircle
 10
869.438965
 20
421.502014
 30
0.0
 40
9.0
210
0.0
220
0.0
230
1.0
100
AcDbArc
 50
272.375606
 51
295.269341
  0
ARC
  5
1B6
100
AcDbEntity
  8
0
370
    35
390
0
 62
     7
100
AcDbCircle
 10
890.284912
 20
425.034119
 30
0.0
 40
20.624
210
0.0
220
0.0
230
1.0
100
AcDbArc
 50
214.464091
 51
218.316823
  0
ARC
  5
1B7
100
AcDbEntity
  8
0
370
    35
390
0
 62
     7
100
AcDbCircle
 10
880.740173
 20
406.16806
 30
0.0
 40
9.0
210
0.0
220
0.0
230
1.0
100
AcDbArc
 50
137.511557
 51
160.405299
  0
ARC
  5
1B8
100
AcDbEntity
  8
0
370
    35
390
0
 62
     7
100
AcDbCircle
 10
890.284912
 20
425.034119
 30
0.0
 40
24.0
210
0.0
220
0.0
230
1.0
100
AcDbArc
 50
221.324566
 51
223.45635
  0
ARC
  5
1B9
100
AcDbEntity
  8
0
370
    35
390
0
 62
     7
100
AcDbCircle
 10
870.628845
 20
417.245087
 30
0.0
 40
9.0
210
0.0
220
0.0
230
1.0
100
AcDbArc
 50
284.375606
 51
307.269345
  0
ARC
  5
1BA
100
AcDbEntity
  8
0
370
    35
390
0
 62
     7
100
AcDbCircle
 10
890.284912
 20
425.034119
 30
0.0
 40
20.624
210
0.0
220
0.0
230
1.0
100
AcDbArc
 50
226.464078
 51
230.316824
  0
ARC
  5
1BB
100
AcDbEntity
  8
0
370
    35
390
0
 62
     7
100
AcDbCircle
 10
884.871216
 20
404.595886
 30
0.0
 40
9.0
210
0.0
220
0.0
230
1.0
100
AcDbArc
 50
149.511571
 51
172.405299
  0
ARC
  5
1BC
100
AcDbEntity
  8
0
370
    35
390
0
 62
     7
100
AcDbCircle
 10
890.284912
 20
425.034119
 30
0.0
 40
24.0
210
0.0
220
0.0
230
1.0
100
AcDbArc
 50
233.324566
 51
235.45635
  0
ARC
  5
1BD
100
AcDbEntity
  8
0
370
    35
390
0
 62
     7
100
AcDbCircle
 10
872.677795
 20
413.328552
 30
0.0
 40
9.0
210
0.0
220
0.0
230
1.0
100
AcDbArc
 50
296.375606
 51
319.269342
  0
ARC
  5
1BE
100
AcDbEntity
  8
0
370
    35
390
0
 62
     7
100
AcDbCircle
 10
890.284912
 20
425.034119
 30
0.0
 40
20.624
210
0.0
220
0.0
230
1.0
100
AcDbArc
 50
238.464078
 51
242.316824
  0
ARC
  5
1BF
100
AcDbEntity
  8
0
370
    35
390
0
 62
     7
100
AcDbCircle
 10
889.238831
 20
403.916931
 30
0.0
 40
9.0
210
0.0
220
0.0
230
1.0
100
AcDbArc
 50
161.511571
 51
184.405303
  0
ARC
  5
1C0
100
AcDbEntity
  8
0
370
    35
390
0
 62
     7
100
AcDbCircle
 10
890.284912
 20
425.034119
 30
0.0
 40
24.0
210
0.0
220
0.0
230
1.0
100
AcDbArc
 50
245.324566
 51
247.45635
  0
ARC
  5
1C1
100
AcDbEntity
  8
0
370
    35
390
0
 62
     7
100
AcDbCircle
 10
875.496277
 20
409.923645
 30
0.0
 40
9.0
210
0.0
220
0.0
230
1.0
100
AcDbArc
 50
308.375603
 51
331.269345
  0
ARC
  5
1C2
100
AcDbEntity
  8
0
370
    35
390
0
 62
     7
100
AcDbCircle
 10
890.284912
 20
425.034119
 30
0.0
 40
20.624
210
0.0
220
0.0
230
1.0
100
AcDbArc
 50
250.464086
 51
254.316824
  0
ARC
  5
1C3
100
AcDbEntity
  8
0
370
    35
390
0
 62
     7
100
AcDbCircle
 10
893.652222
 20
404.160889
 30
0.0
 40
9.0
210
0.0
220
0.0
230
1.0
100
AcDbArc
 50
173.511558
 51
196.405303
  0
ARC
  5
1C4
100
AcDbEntity
  8
0
370
    35
390
0
 62
     7
100
AcDbCircle
 10
890.284912
 20
425.034119
 30
0.0
 40
24.0
210
0.0
220
0.0
230
1.0
100
AcDbArc
 50
257.32456
 51
259.456344
  0
ARC
  5
1C5
100
AcDbEntity
  8
0
370
    35
390
0
 62
     7
100
AcDbCircle
 10
878.961121
 20
407.179108
 30
0.0
 40
9.0
210
0.0
220
0.0
230
1.0
100
AcDbArc
 50
320.375607
 51
343.269344
  0
ARC
  5
1C6
100
AcDbEntity
  8
0
370
    35
390
0
 62
     7
100
AcDbCircle
 10
890.284912
 20
425.034119
 30
0.0
 40
20.624
210
0.0
220
0.0
230
1.0
100
AcDbArc
 50
262.464086
 51
266.316825
  0
ARC
  5
1C7
100
AcDbEntity
  8
0
370
    35
390
0
 62
     7
100
AcDbCircle
 10
897.918457
 20
405.317139
 30
0.0
 40
9.0
210
0.0
220
0.0
230
1.0
100
AcDbArc
 50
185.511562
 51
208.405304
  0
ARC
  5
1C8
100
AcDbEntity
  8
0
370
    35
390
0
 62
     7
100
AcDbCircle
 10
890.284912
 20
425.034119
 30
0.0
 40
24.0
210
0.0
220
0.0
230
1.0
100
AcDbArc
 50
269.32456
 51
271.456344
  0
ARC
  5
1C9
100
AcDbEntity
  8
0
370
    35
390
0
 62
     7
100
AcDbCircle
 10
882.920837
 20
405.214935
 30
0.0
 40
9.0
210
0.0
220
0.0
230
1.0
100
AcDbArc
 50
332.375604
 51
355.269344
  0
ARC
  5
1CA
100
AcDbEntity
  8
0
370
    35
390
0
 62
     7
100
AcDbCircle
 10
890.284912
 20
425.034119
 30
0.0
 40
20.624
210
0.0
220
0.0
230
1.0
100
AcDbArc
 50
274.464086
 51
278.316825
  0
ARC
  5
1CB
100
AcDbEntity
  8
0
370
    35
390
0
 62
     7
100
AcDbCircle
 10
901.851013
 20
407.335083
 30
0.0
 40
9.0
210
0.0
220
0.0
230
1.0
100
AcDbArc
 50
197.511562
 51
220.405304
  0
ARC
  5
1CC
100
AcDbEntity
  8
0
370
    35
390
0
 62
     7
100
AcDbCircle
 10
890.284912
 20
425.034119
 30
0.0
 40
24.0
210
0.0
220
0.0
230
1.0
100
AcDbArc
 50
281.32456
 51
283.456344
  0
ARC
  5
1CD
100
AcDbEntity
  8
0
370
    35
390
0
 62
     7
100
AcDbCircle
 10
887.202393
 20
404.116943
 30
0.0
 40
9.0
210
0.0
220
0.0
230
1.0
100
AcDbArc
 50
344.375604
 51
7.269343
  0
ARC
  5
1CE
100
AcDbEntity
  8
0
370
    35
390
0
 62
     7
100
AcDbCircle
 10
890.284912
 20
425.034119
 30
0.0
 40
20.624
210
0.0
220
0.0
230
1.0
100
AcDbArc
 50
286.464087
 51
290.316819
  0
ARC
  5
1CF
100
AcDbEntity
  8
0
370
    35
390
0
 62
     7
100
AcDbCircle
 10
905.278076
 20
410.126587
 30
0.0
 40
9.0
210
0.0
220
0.0
230
1.0
100
AcDbArc
 50
209.511562
 51
232.405304
  0
ARC
  5
1D0
100
AcDbEntity
  8
0
370
    35
390
0
 62
     7
100
AcDbCircle
 10
890.284912
 20
425.034119
 30
0.0
 40
24.0
210
0.0
220
0.0
230
1.0
100
AcDbArc
 50
293.324561
 51
295.456345
  0
ARC
  5
1D1
100
AcDbEntity
  8
0
370
    35
390
0
 62
     7
100
AcDbCircle
 10
891.618652
 20
403.933136
 30
0.0
 40
9.0
210
0.0
220
0.0
230
1.0
100
AcDbArc
 50
356.375605
 51
19.269345
  0
ARC
  5
1D2
100
AcDbEntity
  8
0
370
    35
390
0
 62
     7
100
AcDbCircle
 10
890.284912
 20
425.034119
 30
0.0
 40
20.624
210
0.0
220
0.0
230
1.0
100
AcDbArc
 50
298.46408
 51
302.316819
  0
ARC
  5
1D3
100
AcDbEntity
  8
0
370
    35
390
0
 62
     7
100
AcDbCircle
 10
908.049927
 20
413.569611
 30
0.0
 40
9.0
210
0.0
220
0.0
230
1.0
100
AcDbArc
 50
221.511563
 51
244.405305
  0
ARC
  5
1D4
100
AcDbEntity
  8
0
370
    35
390
0
 62
     7
100
AcDbCircle
 10
890.284912
 20
425.034119
 30
0.0
 40
24.0
210
0.0
220
0.0
230
1.0
100
AcDbArc
 50
305.324561
 51
307.456345
  0
ARC
  5
1D5
100
AcDbEntity
  8
0
370
    35
390
0
 62
     7
100
AcDbCircle
 10
895.976685
 20
404.67157
 30
0.0
 40
9.0
210
0.0
220
0.0
230
1.0
100
AcDbArc
 50
8.375604
 51
31.269344
  0
ARC
  5
1D6
100
AcDbEntity
  8
0
370
    35
390
0
 62
     7
100
AcDbCircle
 10
890.284912
 20
425.034119
 30
0.0
 40
20.624
210
0.0
220
0.0
230
1.0
100
AcDbArc
 50
310.464084
 51
314.316823
  0
ARC
  5
1D7
100
AcDbEntity
  8
0
370
    35
390
0
 62
     7
100
AcDbCircle
 10
910.045288
 20
417.513702
 30
0.0
 40
9.0
210
0.0
220
0.0
230
1.0
100
AcDbArc
 50
233.511563
 51
256.405305
  0
ARC
  5
1D8
100
AcDbEntity
  8
0
370
    35
390
0
 62
     7
100
AcDbCircle
 10
890.284912
 20
425.034119
 30
0.0
 40
24.0
210
0.0
220
0.0
230
1.0
100
AcDbArc
 50
317.324561
 51
319.456345
  0
ARC
  5
1D9
100
AcDbEntity
  8
0
370
    35
390
0
 62
     7
100
AcDbCircle
 10
900.085876
 20
406.299896
 30
0.0
 40
9.0
210
0.0
220
0.0
230
1.0
100
AcDbArc
 50
20.375603
 51
43.269344
  0
ARC
  5
1DA
100
AcDbEntity
  8
0
370
    35
390
0
 62
     7
100
AcDbCircle
 10
890.284912
 20
425.034119
 30
0.0
 40
20.624
210
0.0
220
0.0
230
1.0
100
AcDbArc
 50
322.464088
 51
326.316823
  0
ARC
  5
1DB
100
AcDbEntity
  8
0
370
    35
390
0
 62
     7
100
AcDbCircle
 10
911.177063
 20
421.786438
 30
0.0
 40
9.0
210
0.0
220
0.0
230
1.0
100
AcDbArc
 50
245.511563
 51
268.405305
  0
ARC
  5
1DC
100
AcDbEntity
  8
0
370
    35
390
0
 62
     7
100
AcDbCircle
 10
890.284912
 20
425.034119
 30
0.0
 40
24.0
210
0.0
220
0.0
230
1.0
100
AcDbArc
 50
329.324562
 51
331.456346
  0
ARC
  5
1DD
100
AcDbEntity
  8
0
370
    35
390
0
 62
     7
100
AcDbCircle
 10
903.766785
 20
408.74704
 30
0.0
 40
9.0
210
0.0
220
0.0
230
1.0
100
AcDbArc
 50
32.375606
 51
55.269344
  0
ARC
  5
1DE
100
AcDbEntity
  8
0
370
    35
390
0
 62
     7
100
AcDbCircle
 10
890.284912
 20
425.034119
 30
0.0
 40
20.624
210
0.0
220
0.0
230
1.0
100
AcDbArc
 50
334.464084
 51
338.316822
  0
ARC
  5
1DF
100
AcDbEntity
  8
0
370
    35
390
0
 62
     7
100
AcDbCircle
 10
911.395752
 20
426.201141
 30
0.0
 40
9.0
210
0.0
220
0.0
230
1.0
100
AcDbArc
 50
257.511564
 51
280.405299
  0
ARC
  5
1E0
100
AcDbEntity
  8
0
370
    35
390
0
 62
     7
100
AcDbCircle
 10
890.284912
 20
425.034119
 30
0.0
 40
24.0
210
0.0
220
0.0
230
1.0
100
AcDbArc
 50
341.32456
 51
343.456346
  0
ARC
  5
1E1
100
AcDbEntity
  8
0
370
    35
390
0
 62
     7
100
AcDbCircle
 10
906.858459
 20
411.905975
 30
0.0
 40
9.0
210
0.0
220
0.0
230
1.0
100
AcDbArc
 50
44.375606
 51
67.269345
  0
ARC
  5
1E2
100
AcDbEntity
  8
0
370
    35
390
0
 62
     7
100
AcDbCircle
 10
890.284912
 20
425.034119
 30
0.0
 40
20.624
210
0.0
220
0.0
230
1.0
100
AcDbArc
 50
346.464084
 51
350.316822
  0
ARC
  5
1E3
100
AcDbEntity
  8
0
370
    35
390
0
 62
     7
100
AcDbCircle
 10
910.691772
 20
430.56485
 30
0.0
 40
9.0
210
0.0
220
0.0
230
1.0
100
AcDbArc
 50
269.511564
 51
292.405299
  0
ARC
  5
1E4
100
AcDbEntity
  8
0
370
    35
390
0
 62
     7
100
AcDbCircle
 10
890.284912
 20
425.034119
 30
0.0
 40
24.0
210
0.0
220
0.0
230
1.0
100
AcDbArc
 50
353.32456
 51
355.456347
  0
ARC
  5
1E5
100
AcDbEntity
  8
0
370
    35
390
0
 62
     7
100
AcDbCircle
 10
909.225769
 20
415.638702
 30
0.0
 40
9.0
210
0.0
220
0.0
230
1.0
100
AcDbArc
 50
56.375603
 51
79.269345
  0
ARC
  5
1E6
100
AcDbEntity
  8
0
370
    35
390
0
 62
     7
100
AcDbCircle
 10
890.284912
 20
425.034119
 30
0.0
 40
20.624
210
0.0
220
0.0
230
1.0
100
AcDbArc
 50
358.464084
 51
2.316822
  0
ARC
  5
1E7
100
AcDbEntity
  8
0
370
    35
390
0
 62
     7
100
AcDbCircle
 10
909.095947
 20
434.686798
 30
0.0
 40
9.0
210
0.0
220
0.0
230
1.0
100
AcDbArc
 50
281.511564
 51
304.4053
  0
ARC
  5
1E8
100
AcDbEntity
  8
0
370
    35
390
0
 62
     7
100
AcDbCircle
 10
890.284912
 20
425.034119
 30
0.0
 40
24.0
210
0.0
220
0.0
230
1.0
100
AcDbArc
 50
5.32456
 51
7.456347
  0
CIRCLE
  5
1E9
100
AcDbEntity
  8
0
370
    35
390
0
 62
     7
100
AcDbCircle
 10
890.284912
 20
425.034119
 30
0.0
 40
3.94
210
0.0
220
0.0
230
1.0
  0
CIRCLE
  5
1EA
100
AcDbEntity
  8
0
370
    35
390
0
 62
     7
100
AcDbCircle
 10
893.292419
 20
440.548523
 30
0.0
 40
1.5
210
0.0
220
0.0
230
1.0
  0
ARC
  5
1EB
100
AcDbEntity
  8
0
370
    35
390
0
 62
     7
100
AcDbCircle
 10
953.403809
 20
439.098419
 30
0.0
 40
4.0
210
0.0
220
0.0
230
1.0
100
AcDbArc
 50
90.000003
 51
224.417221
  0
LINE
  5
1EC
100
AcDbEntity
  8
0
370
    35
390
0
 62
     7
 48
0.204382
100
AcDbLine
 10
956.268433
 20
430.459625
 30
0.0
 11
950.546753
 21
436.29892
 31
0.0
210
0.0
220
0.0
230
1.0
  0
ARC
  5
1ED
100
AcDbEntity
  8
0
370
    35
390
0
 62
     7
100
AcDbCircle
 10
961.982544
 20
436.058655
 30
0.0
 40
8.0
210
0.0
220
0.0
230
1.0
100
AcDbArc
 50
224.417221
 51
262.429498
  0
ARC
  5
1EE
100
AcDbEntity
  8
0
370
    35
390
0
 62
     7
100
AcDbCircle
 10
957.634949
 20
403.346313
 30
0.0
 40
25.0
210
0.0
220
0.0
230
1.0
100
AcDbArc
 50
6.404936
 51
82.429496
  0
ARC
  5
1EF
100
AcDbEntity
  8
0
370
    35
390
0
 62
     7
100
AcDbCircle
 10
990.428955
 20
407.027588
 30
0.0
 40
8.0
210
0.0
220
0.0
230
1.0
100
AcDbArc
 50
186.404937
 51
224.417221
  0
LINE
  5
1F0
100
AcDbEntity
  8
0
370
    35
390
0
 62
     7
 48
0.204382
100
AcDbLine
 10
990.436523
 20
395.589294
 30
0.0
 11
984.714844
 21
401.428589
 31
0.0
210
0.0
220
0.0
230
1.0
  0
ARC
  5
1F1
100
AcDbEntity
  8
0
370
    35
390
0
 62
     7
100
AcDbCircle
 10
996.150635
 20
401.188324
 30
0.0
 40
8.0
210
0.0
220
0.0
230
1.0
100
AcDbArc
 50
224.417221
 51
315.593385
  0
LINE
  5
1F2
100
AcDbEntity
  8
0
370
    35
390
0
 62
     7
 48
0.195004
100
AcDbLine
 10
1001.865784
 20
395.590363
 30
0.0
 11
1007.323914
 21
401.16272
 31
0.0
210
0.0
220
0.0
230
1.0
  0
ARC
  5
1F3
100
AcDbEntity
  8
0
370
    35
390
0
 62
     7
100
AcDbCircle
 10
1001.608765
 20
406.760681
 30
0.0
 40
8.0
210
0.0
220
0.0
230
1.0
100
AcDbArc
 50
315.593385
 51
353.605663
  0
ARC
  5
1F4
100
AcDbEntity
  8
0
370
    35
390
0
 62
     7
100
AcDbCircle
 10
1034.403442
 20
403.085449
 30
0.0
 40
25.0
210
0.0
220
0.0
230
1.0
100
AcDbArc
 50
97.581103
 51
173.605664
  0
ARC
  5
1F5
100
AcDbEntity
  8
0
370
    35
390
0
 62
     7
100
AcDbCircle
 10
1030.049805
 20
435.796997
 30
0.0
 40
8.0
210
0.0
220
0.0
230
1.0
100
AcDbArc
 50
277.581104
 51
315.593385
  0
LINE
  5
1F6
100
AcDbEntity
  8
0
370
    35
390
0
 62
     7
 48
0.213482
100
AcDbLine
 10
1035.764893
 20
430.199036
 30
0.0
 11
1041.740234
 21
436.299438
 31
0.0
210
0.0
220
0.0
230
1.0
  0
ARC
  5
1F7
100
AcDbEntity
  8
0
370
    35
390
0
 62
     7
100
AcDbCircle
 10
1038.88269
 20
439.098419
 30
0.0
 40
4.0
210
0.0
220
0.0
230
1.0
100
AcDbArc
 50
315.593385
 51
90.000003
  0
LINE
  5
1F8
100
AcDbEntity
  8
0
370
    35
390
0
 62
     7
100
AcDbLine
 10
1016.473022
 20
443.098419
 30
0.0
 11
1038.88269
 21
443.098419
 31
0.0
210
0.0
220
0.0
230
1.0
  0
ARC
  5
1F9
100
AcDbEntity
  8
0
370
    35
390
0
 62
     7
100
AcDbCircle
 10
1016.473022
 20
435.098419
 30
0.0
 40
8.0
210
0.0
220
0.0
230
1.0
100
AcDbArc
 50
90.000003
 51
128.01228
  0
ARC
  5
1FA
100
AcDbEntity
  8
0
370
    35
390
0
 62
     7
100
AcDbCircle
 10
996.150635
 20
461.098419
 30
0.0
 40
25.0
210
0.0
220
0.0
230
1.0
100
AcDbArc
 50
231.98772
 51
308.012278
  0
ARC
  5
1FB
100
AcDbEntity
  8
0
370
    35
390
0
 62
     7
100
AcDbCircle
 10
975.828247
 20
435.098419
 30
0.0
 40
8.0
210
0.0
220
0.0
230
1.0
100
AcDbArc
 50
51.987722
 51
90.000003
  0
LINE
  5
1FC
100
AcDbEntity
  8
0
370
    35
390
0
 62
     7
100
AcDbLine
 10
953.403809
 20
443.098419
 30
0.0
 11
975.828247
 21
443.098419
 31
0.0
210
0.0
220
0.0
230
1.0
  0
CIRCLE
  5
1FD
100
AcDbEntity
  8
0
370
    35
390
0
 62
     7
100
AcDbCircle
 10
1030.647095
 20
435.113708
 30
0.0
 40
1.75
210
0.0
220
0.0
230
1.0
  0
CIRCLE
  5
1FE
100
AcDbEntity
  8
0
370
    35
390
0
 62
     7
100
AcDbCircle
 10
960.147034
 20
435.113708
 30
0.0
 40
1.75
210
0.0
220
0.0
230
1.0
  0
CIRCLE
  5
1FF
100
AcDbEntity
  8
0
370
    35
390
0
 62
     7
100
AcDbCircle
 10
1055.953979
 20
342.739594
 30
0.0
 40
1.75
210
0.0
220
0.0
230
1.0
  0
CIRCLE
  5
200
100
AcDbEntity
  8
0
370
    35
390
0
 62
     7
100
AcDbCircle
 10
1058.984741
 20
358.249481
 30
0.0
 40
1.5
210
0.0
220
0.0
230
1.0
  0
POLYLINE
  5
201
100
AcDbEntity
  8
0
370
    35
390
0
 62
     7
100
AcDb2dPolyline
 66
     1
 10
0.0
 20
0.0
 30
0.0
 71
    80
  0
VERTEX
  5
202
100
AcDbEntity
  8
0
370
     0
390
0
100
AcDbVertex
100
AcDb2dVertex
 10
1064.825439
 20
361.358032
 30
0.0
  0
VERTEX
  5
203
100
AcDbEntity
  8
0
370
     0
390
0
100
AcDbVertex
100
AcDb2dVertex
 10
1064.759399
 20
360.861084
 30
0.0
  0
VERTEX
  5
204
100
AcDbEntity
  8
0
370
     0
390
0
100
AcDbVertex
100
AcDb2dVertex
 10
1064.60437
 20
359.873596
 30
0.0
  0
VERTEX
  5
205
100
AcDbEntity
  8
0
370
     0
390
0
100
AcDbVertex
100
AcDb2dVertex
 10
1064.346802
 20
358.299316
 30
0.0
  0
VERTEX
  5
206
100
AcDbEntity
  8
0
370
     0
390
0
100
AcDbVertex
100
AcDb2dVertex
 10
1064.193481
 20
357.13443
 30
0.0
  0
VERTEX
  5
207
100
AcDbEntity
  8
0
370
     0
390
0
100
AcDbVertex
100
AcDb2dVertex
 10
1064.073853
 20
355.962158
 30
0.0
  0
VERTEX
  5
208
100
AcDbEntity
  8
0
370
     0
390
0
100
AcDbVertex
100
AcDb2dVertex
 10
1063.951904
 20
354.390686
 30
0.0
  0
VERTEX
  5
209
100
AcDbEntity
  8
0
370
     0
390
0
100
AcDbVertex
100
AcDb2dVertex
 10
1063.854248
 20
352.813416
 30
0.0
  0
VERTEX
  5
20A
100
AcDbEntity
  8
0
370
     0
390
0
100
AcDbVertex
100
AcDb2dVertex
 10
1063.76062
 20
351.234436
 30
0.0
  0
VERTEX
  5
20B
100
AcDbEntity
  8
0
370
     0
390
0
100
AcDbVertex
100
AcDb2dVertex
 10
1063.632935
 20
349.489349
 30
0.0
  0
VERTEX
  5
20C
100
AcDbEntity
  8
0
370
     0
390
0
100
AcDbVertex
100
AcDb2dVertex
 10
1063.546143
 20
348.621124
 30
0.0
  0
VERTEX
  5
20D
100
AcDbEntity
  8
0
370
     0
390
0
100
AcDbVertex
100
AcDb2dVertex
 10
1063.369507
 20
347.327759
 30
0.0
  0
VERTEX
  5
20E
100
AcDbEntity
  8
0
370
     0
390
0
100
AcDbVertex
100
AcDb2dVertex
 10
1063.126465
 20
346.052643
 30
0.0
  0
VERTEX
  5
20F
100
AcDbEntity
  8
0
370
     0
390
0
100
AcDbVertex
100
AcDb2dVertex
 10
1062.932251
 20
345.207275
 30
0.0
  0
VERTEX
  5
210
100
AcDbEntity
  8
0
370
     0
390
0
100
AcDbVertex
100
AcDb2dVertex
 10
1062.489624
 20
343.518768
 30
0.0
  0
VERTEX
  5
211
100
AcDbEntity
  8
0
370
     0
390
0
100
AcDbVertex
100
AcDb2dVertex
 10
1062.223511
 20
342.593719
 30
0.0
  0
VERTEX
  5
212
100
AcDbEntity
  8
0
370
     0
390
0
100
AcDbVertex
100
AcDb2dVertex
 10
1062.079224
 20
342.135742
 30
0.0
  0
VERTEX
  5
213
100
AcDbEntity
  8
0
370
     0
390
0
100
AcDbVertex
100
AcDb2dVertex
 10
1061.840576
 20
341.460876
 30
0.0
  0
VERTEX
  5
214
100
AcDbEntity
  8
0
370
     0
390
0
100
AcDbVertex
100
AcDb2dVertex
 10
1061.639282
 20
340.968353
 30
0.0
  0
VERTEX
  5
215
100
AcDbEntity
  8
0
370
     0
390
0
100
AcDbVertex
100
AcDb2dVertex
 10
1061.414185
 20
340.491089
 30
0.0
  0
VERTEX
  5
216
100
AcDbEntity
  8
0
370
     0
390
0
100
AcDbVertex
100
AcDb2dVertex
 10
1061.10022
 20
339.922974
 30
0.0
  0
VERTEX
  5
217
100
AcDbEntity
  8
0
370
     0
390
0
100
AcDbVertex
100
AcDb2dVertex
 10
1060.873535
 20
339.552948
 30
0.0
  0
VERTEX
  5
218
100
AcDbEntity
  8
0
370
     0
390
0
100
AcDbVertex
100
AcDb2dVertex
 10
1060.39563
 20
338.814758
 30
0.0
  0
VERTEX
  5
219
100
AcDbEntity
  8
0
370
     0
390
0
100
AcDbVertex
100
AcDb2dVertex
 10
1059.849976
 20
337.951752
 30
0.0
  0
VERTEX
  5
21A
100
AcDbEntity
  8
0
370
     0
390
0
100
AcDbVertex
100
AcDb2dVertex
 10
1059.494507
 20
337.351105
 30
0.0
  0
VERTEX
  5
21B
100
AcDbEntity
  8
0
370
     0
390
0
100
AcDbVertex
100
AcDb2dVertex
 10
1059.310059
 20
337.059448
 30
0.0
  0
VERTEX
  5
21C
100
AcDbEntity
  8
0
370
     0
390
0
100
AcDbVertex
100
AcDb2dVertex
 10
1059.011353
 20
336.657593
 30
0.0
  0
VERTEX
  5
21D
100
AcDbEntity
  8
0
370
     0
390
0
100
AcDbVertex
100
AcDb2dVertex
 10
1058.76123
 20
336.399933
 30
0.0
  0
VERTEX
  5
21E
100
AcDbEntity
  8
0
370
     0
390
0
100
AcDbVertex
100
AcDb2dVertex
 10
1058.481201
 20
336.193756
 30
0.0
  0
VERTEX
  5
21F
100
AcDbEntity
  8
0
370
     0
390
0
100
AcDbVertex
100
AcDb2dVertex
 10
1058.187012
 20
336.054626
 30
0.0
  0
VERTEX
  5
220
100
AcDbEntity
  8
0
370
     0
390
0
100
AcDbVertex
100
AcDb2dVertex
 10
1057.866089
 20
335.960388
 30
0.0
  0
VERTEX
  5
221
100
AcDbEntity
  8
0
370
     0
390
0
100
AcDbVertex
100
AcDb2dVertex
 10
1057.616943
 20
335.913147
 30
0.0
  0
VERTEX
  5
222
100
AcDbEntity
  8
0
370
     0
390
0
100
AcDbVertex
100
AcDb2dVertex
 10
1057.358521
 20
335.879364
 30
0.0
  0
VERTEX
  5
223
100
AcDbEntity
  8
0
370
     0
390
0
100
AcDbVertex
100
AcDb2dVertex
 10
1056.897827
 20
335.839508
 30
0.0
  0
VERTEX
  5
224
100
AcDbEntity
  8
0
370
     0
390
0
100
AcDbVertex
100
AcDb2dVertex
 10
1056.428101
 20
335.80307
 30
0.0
  0
VERTEX
  5
225
100
AcDbEntity
  8
0
370
     0
390
0
100
AcDbVertex
100
AcDb2dVertex
 10
1055.497925
 20
335.702393
 30
0.0
  0
VERTEX
  5
226
100
AcDbEntity
  8
0
370
     0
390
0
100
AcDbVertex
100
AcDb2dVertex
 10
1054.945435
 20
335.663452
 30
0.0
  0
VERTEX
  5
227
100
AcDbEntity
  8
0
370
     0
390
0
100
AcDbVertex
100
AcDb2dVertex
 10
1054.677368
 20
335.663544
 30
0.0
  0
VERTEX
  5
228
100
AcDbEntity
  8
0
370
     0
390
0
100
AcDbVertex
100
AcDb2dVertex
 10
1054.271851
 20
335.702576
 30
0.0
  0
VERTEX
  5
229
100
AcDbEntity
  8
0
370
     0
390
0
100
AcDbVertex
100
AcDb2dVertex
 10
1054.076294
 20
335.744141
 30
0.0
  0
VERTEX
  5
22A
100
AcDbEntity
  8
0
370
     0
390
0
100
AcDbVertex
100
AcDb2dVertex
 10
1053.88623
 20
335.80307
 30
0.0
  0
VERTEX
  5
22B
100
AcDbEntity
  8
0
370
     0
390
0
100
AcDbVertex
100
AcDb2dVertex
 10
1053.585571
 20
335.940063
 30
0.0
  0
VERTEX
  5
22C
100
AcDbEntity
  8
0
370
     0
390
0
100
AcDbVertex
100
AcDb2dVertex
 10
1053.297974
 20
336.119781
 30
0.0
  0
VERTEX
  5
22D
100
AcDbEntity
  8
0
370
     0
390
0
100
AcDbVertex
100
AcDb2dVertex
 10
1052.930176
 20
336.40921
 30
0.0
  0
VERTEX
  5
22E
100
AcDbEntity
  8
0
370
     0
390
0
100
AcDbVertex
100
AcDb2dVertex
 10
1052.692017
 20
336.623505
 30
0.0
  0
VERTEX
  5
22F
100
AcDbEntity
  8
0
370
     0
390
0
100
AcDbVertex
100
AcDb2dVertex
 10
1052.224243
 20
337.072754
 30
0.0
  0
VERTEX
  5
230
100
AcDbEntity
  8
0
370
     0
390
0
100
AcDbVertex
100
AcDb2dVertex
 10
1051.735229
 20
337.543152
 30
0.0
  0
VERTEX
  5
231
100
AcDbEntity
  8
0
370
     0
390
0
100
AcDbVertex
100
AcDb2dVertex
 10
1051.500244
 20
337.779053
 30
0.0
  0
VERTEX
  5
232
100
AcDbEntity
  8
0
370
     0
390
0
100
AcDbVertex
100
AcDb2dVertex
 10
1051.171265
 20
338.142944
 30
0.0
  0
VERTEX
  5
233
100
AcDbEntity
  8
0
370
     0
390
0
100
AcDbVertex
100
AcDb2dVertex
 10
1050.950195
 20
338.429535
 30
0.0
  0
VERTEX
  5
234
100
AcDbEntity
  8
0
370
     0
390
0
100
AcDbVertex
100
AcDb2dVertex
 10
1050.75769
 20
338.733093
 30
0.0
  0
VERTEX
  5
235
100
AcDbEntity
  8
0
370
     0
390
0
100
AcDbVertex
100
AcDb2dVertex
 10
1050.579102
 20
339.101501
 30
0.0
  0
VERTEX
  5
236
100
AcDbEntity
  8
0
370
     0
390
0
100
AcDbVertex
100
AcDb2dVertex
 10
1050.439453
 20
339.49231
 30
0.0
  0
VERTEX
  5
237
100
AcDbEntity
  8
0
370
     0
390
0
100
AcDbVertex
100
AcDb2dVertex
 10
1050.353516
 20
339.813446
 30
0.0
  0
VERTEX
  5
238
100
AcDbEntity
  8
0
370
     0
390
0
100
AcDbVertex
100
AcDb2dVertex
 10
1050.286255
 20
340.1427
 30
0.0
  0
VERTEX
  5
239
100
AcDbEntity
  8
0
370
     0
390
0
100
AcDbVertex
100
AcDb2dVertex
 10
1050.214111
 20
340.656921
 30
0.0
  0
VERTEX
  5
23A
100
AcDbEntity
  8
0
370
     0
390
0
100
AcDbVertex
100
AcDb2dVertex
 10
1050.171143
 20
341.174744
 30
0.0
  0
VERTEX
  5
23B
100
AcDbEntity
  8
0
370
     0
390
0
100
AcDbVertex
100
AcDb2dVertex
 10
1050.14502
 20
341.900116
 30
0.0
  0
VERTEX
  5
23C
100
AcDbEntity
  8
0
370
     0
390
0
100
AcDbVertex
100
AcDb2dVertex
 10
1050.143188
 20
342.379028
 30
0.0
  0
VERTEX
  5
23D
100
AcDbEntity
  8
0
370
     0
390
0
100
AcDbVertex
100
AcDb2dVertex
 10
1050.158569
 20
343.330139
 30
0.0
  0
VERTEX
  5
23E
100
AcDbEntity
  8
0
370
     0
390
0
100
AcDbVertex
100
AcDb2dVertex
 10
1050.143677
 20
345.634125
 30
0.0
  0
VERTEX
  5
23F
100
AcDbEntity
  8
0
370
     0
390
0
100
AcDbVertex
100
AcDb2dVertex
 10
1050.120117
 20
346.736176
 30
0.0
  0
VERTEX
  5
240
100
AcDbEntity
  8
0
370
     0
390
0
100
AcDbVertex
100
AcDb2dVertex
 10
1050.125122
 20
347.286499
 30
0.0
  0
VERTEX
  5
241
100
AcDbEntity
  8
0
370
     0
390
0
100
AcDbVertex
100
AcDb2dVertex
 10
1050.171143
 20
348.1091
 30
0.0
  0
VERTEX
  5
242
100
AcDbEntity
  8
0
370
     0
390
0
100
AcDbVertex
100
AcDb2dVertex
 10
1050.225708
 20
348.587585
 30
0.0
  0
VERTEX
  5
243
100
AcDbEntity
  8
0
370
     0
390
0
100
AcDbVertex
100
AcDb2dVertex
 10
1050.300293
 20
349.063873
 30
0.0
  0
VERTEX
  5
244
100
AcDbEntity
  8
0
370
     0
390
0
100
AcDbVertex
100
AcDb2dVertex
 10
1050.501465
 20
350.008789
 30
0.0
  0
VERTEX
  5
245
100
AcDbEntity
  8
0
370
     0
390
0
100
AcDbVertex
100
AcDb2dVertex
 10
1050.75769
 20
350.941437
 30
0.0
  0
VERTEX
  5
246
100
AcDbEntity
  8
0
370
     0
390
0
100
AcDbVertex
100
AcDb2dVertex
 10
1051.149902
 20
352.16333
 30
0.0
  0
VERTEX
  5
247
100
AcDbEntity
  8
0
370
     0
390
0
100
AcDbVertex
100
AcDb2dVertex
 10
1051.539795
 20
353.383118
 30
0.0
  0
VERTEX
  5
248
100
AcDbEntity
  8
0
370
     0
390
0
100
AcDbVertex
100
AcDb2dVertex
 10
1051.735474
 20
354.077637
 30
0.0
  0
VERTEX
  5
249
100
AcDbEntity
  8
0
370
     0
390
0
100
AcDbVertex
100
AcDb2dVertex
 10
1052.085815
 20
355.479279
 30
0.0
  0
VERTEX
  5
24A
100
AcDbEntity
  8
0
370
     0
390
0
100
AcDbVertex
100
AcDb2dVertex
 10
1052.428833
 20
356.884186
 30
0.0
  0
VERTEX
  5
24B
100
AcDbEntity
  8
0
370
     0
390
0
100
AcDbVertex
100
AcDb2dVertex
 10
1052.615234
 20
357.582794
 30
0.0
  0
VERTEX
  5
24C
100
AcDbEntity
  8
0
370
     0
390
0
100
AcDbVertex
100
AcDb2dVertex
 10
1052.926147
 20
358.60849
 30
0.0
  0
VERTEX
  5
24D
100
AcDbEntity
  8
0
370
     0
390
0
100
AcDbVertex
100
AcDb2dVertex
 10
1053.283325
 20
359.618958
 30
0.0
  0
VERTEX
  5
24E
100
AcDbEntity
  8
0
370
     0
390
0
100
AcDbVertex
100
AcDb2dVertex
 10
1053.690674
 20
360.610474
 30
0.0
  0
VERTEX
  5
24F
100
AcDbEntity
  8
0
370
     0
390
0
100
AcDbVertex
100
AcDb2dVertex
 10
1054.114502
 20
361.521179
 30
0.0
  0
VERTEX
  5
250
100
AcDbEntity
  8
0
370
     0
390
0
100
AcDbVertex
100
AcDb2dVertex
 10
1054.691406
 20
362.729065
 30
0.0
  0
VERTEX
  5
251
100
AcDbEntity
  8
0
370
     0
390
0
100
AcDbVertex
100
AcDb2dVertex
 10
1054.960938
 20
363.339691
 30
0.0
  0
SEQEND
  5
252
100
AcDbEntity
  8
0
370
     0
390
0
  0
ARC
  5
253
100
AcDbEntity
  8
0
370
    35
390
0
 62
     7
100
AcDbCircle
 10
1055.953979
 20
342.739594
 30
0.0
 40
20.624
210
0.0
220
0.0
230
1.0
100
AcDbArc
 50
64.522796
 51
92.759911
  0
CIRCLE
  5
254
100
AcDbEntity
  8
0
370
    35
390
0
 62
     7
100
AcDbCircle
 10
877.40564
 20
354.150909
 30
0.0
 40
10.0
210
0.0
220
0.0
230
1.0
  0
CIRCLE
  5
255
100
AcDbEntity
  8
0
370
    35
390
0
 62
     7
100
AcDbCircle
 10
877.40564
 20
354.150909
 30
0.0
 40
1.0
210
0.0
220
0.0
230
1.0
  0
CIRCLE
  5
256
100
AcDbEntity
  8
0
370
    35
390
0
 62
     7
100
AcDbCircle
 10
877.40564
 20
347.969971
 30
0.0
 40
0.95
210
0.0
220
0.0
230
1.0
  0
CIRCLE
  5
257
100
AcDbEntity
  8
0
370
    35
390
0
 62
     7
100
AcDbCircle
 10
877.40564
 20
360.331848
 30
0.0
 40
0.95
210
0.0
220
0.0
230
1.0
  0
CIRCLE
  5
258
100
AcDbEntity
  8
0
370
    35
390
0
 62
     7
100
AcDbCircle
 10
979.556335
 20
348.475098
 30
0.0
 40
0.95
210
0.0
220
0.0
230
1.0
  0
ARC
  5
259
100
AcDbEntity
  8
0
370
    35
390
0
 62
     7
100
AcDbCircle
 10
989.525818
 20
361.404144
 30
0.0
 40
5.1
210
0.0
220
0.0
230
1.0
100
AcDbArc
 50
108.36675
 51
149.106732
  0
ARC
  5
25A
100
AcDbEntity
  8
0
370
    35
390
0
 62
     7
100
AcDbCircle
 10
979.625854
 20
354.656006
 30
0.0
 40
14.25
210
0.0
220
0.0
230
1.0
100
AcDbArc
 50
51.470957
 51
54.411397
  0
ARC
  5
25B
100
AcDbEntity
  8
0
370
    35
390
0
 62
     7
100
AcDbCircle
 10
983.407166
 20
366.02475
 30
0.0
 40
5.1
210
0.0
220
0.0
230
1.0
100
AcDbArc
 50
316.775623
 51
357.515606
  0
ARC
  5
25C
100
AcDbEntity
  8
0
370
    35
390
0
 62
     7
100
AcDbCircle
 10
979.625854
 20
354.656006
 30
0.0
 40
10.874
210
0.0
220
0.0
230
1.0
100
AcDbArc
 50
38.295778
 51
46.410104
  0
ARC
  5
25D
100
AcDbEntity
  8
0
370
    35
390
0
 62
     7
100
AcDbCircle
 10
991.294983
 20
357.372192
 30
0.0
 40
5.1
210
0.0
220
0.0
230
1.0
100
AcDbArc
 50
87.190274
 51
127.930263
  0
ARC
  5
25E
100
AcDbEntity
  8
0
370
    35
390
0
 62
     7
100
AcDbCircle
 10
979.625854
 20
354.656006
 30
0.0
 40
14.25
210
0.0
220
0.0
230
1.0
100
AcDbArc
 50
30.294484
 51
33.234929
  0
ARC
  5
25F
100
AcDbEntity
  8
0
370
    35
390
0
 62
     7
100
AcDbCircle
 10
987.258667
 20
363.891083
 30
0.0
 40
5.1
210
0.0
220
0.0
230
1.0
100
AcDbArc
 50
295.599157
 51
336.339135
  0
ARC
  5
260
100
AcDbEntity
  8
0
370
    35
390
0
 62
     7
100
AcDbCircle
 10
979.625854
 20
354.656006
 30
0.0
 40
10.874
210
0.0
220
0.0
230
1.0
100
AcDbArc
 50
17.119306
 51
25.233635
  0
ARC
  5
261
100
AcDbEntity
  8
0
370
    35
390
0
 62
     7
100
AcDbCircle
 10
991.48822
 20
352.973389
 30
0.0
 40
5.1
210
0.0
220
0.0
230
1.0
100
AcDbArc
 50
66.013806
 51
106.753787
  0
ARC
  5
262
100
AcDbEntity
  8
0
370
    35
390
0
 62
     7
100
AcDbCircle
 10
979.625854
 20
354.656006
 30
0.0
 40
14.25
210
0.0
220
0.0
230
1.0
100
AcDbArc
 50
9.118013
 51
12.058457
  0
ARC
  5
263
100
AcDbEntity
  8
0
370
    35
390
0
 62
     7
100
AcDbCircle
 10
990.079346
 20
360.510162
 30
0.0
 40
5.1
210
0.0
220
0.0
230
1.0
100
AcDbArc
 50
274.422682
 51
315.162667
  0
ARC
  5
264
100
AcDbEntity
  8
0
370
    35
390
0
 62
     7
100
AcDbCircle
 10
979.625854
 20
354.656006
 30
0.0
 40
10.874
210
0.0
220
0.0
230
1.0
100
AcDbArc
 50
355.942836
 51
4.057164
  0
ARC
  5
265
100
AcDbEntity
  8
0
370
    35
390
0
 62
     7
100
AcDbCircle
 10
990.079346
 20
348.801849
 30
0.0
 40
5.1
210
0.0
220
0.0
230
1.0
100
AcDbArc
 50
44.837333
 51
85.577318
  0
ARC
  5
266
100
AcDbEntity
  8
0
370
    35
390
0
 62
     7
100
AcDbCircle
 10
979.625854
 20
354.656006
 30
0.0
 40
14.25
210
0.0
220
0.0
230
1.0
100
AcDbArc
 50
347.941543
 51
350.881987
  0
ARC
  5
267
100
AcDbEntity
  8
0
370
    35
390
0
 62
     7
100
AcDbCircle
 10
991.48822
 20
356.338623
 30
0.0
 40
5.1
210
0.0
220
0.0
230
1.0
100
AcDbArc
 50
253.246213
 51
293.986194
  0
ARC
  5
268
100
AcDbEntity
  8
0
370
    35
390
0
 62
     7
100
AcDbCircle
 10
979.625854
 20
354.656006
 30
0.0
 40
10.874
210
0.0
220
0.0
230
1.0
100
AcDbArc
 50
334.766365
 51
342.880694
  0
ARC
  5
269
100
AcDbEntity
  8
0
370
    35
390
0
 62
     7
100
AcDbCircle
 10
987.258667
 20
345.420929
 30
0.0
 40
5.1
210
0.0
220
0.0
230
1.0
100
AcDbArc
 50
23.660865
 51
64.400843
  0
ARC
  5
26A
100
AcDbEntity
  8
0
370
    35
390
0
 62
     7
100
AcDbCircle
 10
979.625854
 20
354.656006
 30
0.0
 40
14.25
210
0.0
220
0.0
230
1.0
100
AcDbArc
 50
326.765071
 51
329.705516
  0
ARC
  5
26B
100
AcDbEntity
  8
0
370
    35
390
0
 62
     7
100
AcDbCircle
 10
991.294983
 20
351.939819
 30
0.0
 40
5.1
210
0.0
220
0.0
230
1.0
100
AcDbArc
 50
232.069737
 51
272.809726
  0
ARC
  5
26C
100
AcDbEntity
  8
0
370
    35
390
0
 62
     7
100
AcDbCircle
 10
979.625854
 20
354.656006
 30
0.0
 40
10.874
210
0.0
220
0.0
230
1.0
100
AcDbArc
 50
313.589896
 51
321.704222
  0
ARC
  5
26D
100
AcDbEntity
  8
0
370
    35
390
0
 62
     7
100
AcDbCircle
 10
983.407166
 20
343.287262
 30
0.0
 40
5.1
210
0.0
220
0.0
230
1.0
100
AcDbArc
 50
2.484394
 51
43.224377
  0
ARC
  5
26E
100
AcDbEntity
  8
0
370
    35
390
0
 62
     7
100
AcDbCircle
 10
979.625854
 20
354.656006
 30
0.0
 40
14.25
210
0.0
220
0.0
230
1.0
100
AcDbArc
 50
305.588603
 51
308.529043
  0
ARC
  5
26F
100
AcDbEntity
  8
0
370
    35
390
0
 62
     7
100
AcDbCircle
 10
989.525818
 20
347.907867
 30
0.0
 40
5.1
210
0.0
220
0.0
230
1.0
100
AcDbArc
 50
210.893268
 51
251.63325
  0
ARC
  5
270
100
AcDbEntity
  8
0
370
    35
390
0
 62
     7
100
AcDbCircle
 10
979.625854
 20
354.656006
 30
0.0
 40
10.874
210
0.0
220
0.0
230
1.0
100
AcDbArc
 50
292.413427
 51
300.527753
  0
ARC
  5
271
100
AcDbEntity
  8
0
370
    35
390
0
 62
     7
100
AcDbCircle
 10
979.044922
 20
342.689026
 30
0.0
 40
5.1
210
0.0
220
0.0
230
1.0
100
AcDbArc
 50
341.307924
 51
22.047904
  0
ARC
  5
272
100
AcDbEntity
  8
0
370
    35
390
0
 62
     7
100
AcDbCircle
 10
979.625854
 20
354.656006
 30
0.0
 40
14.25
210
0.0
220
0.0
230
1.0
100
AcDbArc
 50
284.412134
 51
287.352571
  0
ARC
  5
273
100
AcDbEntity
  8
0
370
    35
390
0
 62
     7
100
AcDbCircle
 10
986.419556
 20
344.787292
 30
0.0
 40
5.1
210
0.0
220
0.0
230
1.0
100
AcDbArc
 50
189.7168
 51
230.456788
  0
ARC
  5
274
100
AcDbEntity
  8
0
370
    35
390
0
 62
     7
100
AcDbCircle
 10
979.625854
 20
354.656006
 30
0.0
 40
10.874
210
0.0
220
0.0
230
1.0
100
AcDbArc
 50
271.236952
 51
279.351285
  0
ARC
  5
275
100
AcDbEntity
  8
0
370
    35
390
0
 62
     7
100
AcDbCircle
 10
974.761169
 20
343.70697
 30
0.0
 40
5.1
210
0.0
220
0.0
230
1.0
100
AcDbArc
 50
320.131452
 51
0.871435
  0
ARC
  5
276
100
AcDbEntity
  8
0
370
    35
390
0
 62
     7
100
AcDbCircle
 10
979.625854
 20
354.656006
 30
0.0
 40
14.25
210
0.0
220
0.0
230
1.0
100
AcDbArc
 50
263.235658
 51
266.176102
  0
ARC
  5
277
100
AcDbEntity
  8
0
370
    35
390
0
 62
     7
100
AcDbCircle
 10
982.395813
 20
342.999512
 30
0.0
 40
5.1
210
0.0
220
0.0
230
1.0
100
AcDbArc
 50
168.540327
 51
209.280306
  0
ARC
  5
278
100
AcDbEntity
  8
0
370
    35
390
0
 62
     7
100
AcDbCircle
 10
979.625854
 20
354.656006
 30
0.0
 40
10.874
210
0.0
220
0.0
230
1.0
100
AcDbArc
 50
250.060483
 51
258.174809
  0
ARC
  5
279
100
AcDbEntity
  8
0
370
    35
390
0
 62
     7
100
AcDbCircle
 10
971.13446
 20
346.203674
 30
0.0
 40
5.1
210
0.0
220
0.0
230
1.0
100
AcDbArc
 50
298.954979
 51
339.694964
  0
ARC
  5
27A
100
AcDbEntity
  8
0
370
    35
390
0
 62
     7
100
AcDbCircle
 10
979.625854
 20
354.656006
 30
0.0
 40
14.25
210
0.0
220
0.0
230
1.0
100
AcDbArc
 50
242.059189
 51
244.99964
  0
ARC
  5
27B
100
AcDbEntity
  8
0
370
    35
390
0
 62
     7
100
AcDbCircle
 10
977.997986
 20
342.786041
 30
0.0
 40
5.1
210
0.0
220
0.0
230
1.0
100
AcDbArc
 50
147.363859
 51
188.103837
  0
ARC
  5
27C
100
AcDbEntity
  8
0
370
    35
390
0
 62
     7
100
AcDbCircle
 10
979.625854
 20
354.656006
 30
0.0
 40
10.874
210
0.0
220
0.0
230
1.0
100
AcDbArc
 50
228.884014
 51
236.998347
  0
ARC
  5
27D
100
AcDbEntity
  8
0
370
    35
390
0
 62
     7
100
AcDbCircle
 10
968.65448
 20
349.841888
 30
0.0
 40
5.1
210
0.0
220
0.0
230
1.0
100
AcDbArc
 50
277.778511
 51
318.518492
  0
ARC
  5
27E
100
AcDbEntity
  8
0
370
    35
390
0
 62
     7
100
AcDbCircle
 10
979.625854
 20
354.656006
 30
0.0
 40
14.25
210
0.0
220
0.0
230
1.0
100
AcDbArc
 50
220.882721
 51
223.823158
  0
ARC
  5
27F
100
AcDbEntity
  8
0
370
    35
390
0
 62
     7
100
AcDbCircle
 10
973.819946
 20
344.175659
 30
0.0
 40
5.1
210
0.0
220
0.0
230
1.0
100
AcDbArc
 50
126.18739
 51
166.927364
  0
ARC
  5
280
100
AcDbEntity
  8
0
370
    35
390
0
 62
     7
100
AcDbCircle
 10
979.625854
 20
354.656006
 30
0.0
 40
10.874
210
0.0
220
0.0
230
1.0
100
AcDbArc
 50
207.707545
 51
215.821865
  0
ARC
  5
281
100
AcDbEntity
  8
0
370
    35
390
0
 62
     7
100
AcDbCircle
 10
967.656311
 20
354.13028
 30
0.0
 40
5.1
210
0.0
220
0.0
230
1.0
100
AcDbArc
 50
256.602042
 51
297.342023
  0
ARC
  5
282
100
AcDbEntity
  8
0
370
    35
390
0
 62
     7
100
AcDbCircle
 10
979.625854
 20
354.656006
 30
0.0
 40
14.25
210
0.0
220
0.0
230
1.0
100
AcDbArc
 50
199.706252
 51
202.646689
  0
ARC
  5
283
100
AcDbEntity
  8
0
370
    35
390
0
 62
     7
100
AcDbCircle
 10
970.426086
 20
346.980682
 30
0.0
 40
5.1
210
0.0
220
0.0
230
1.0
100
AcDbArc
 50
105.010921
 51
145.750896
  0
ARC
  5
284
100
AcDbEntity
  8
0
370
    35
390
0
 62
     7
100
AcDbCircle
 10
979.625854
 20
354.656006
 30
0.0
 40
10.874
210
0.0
220
0.0
230
1.0
100
AcDbArc
 50
186.531077
 51
194.645396
  0
ARC
  5
285
100
AcDbEntity
  8
0
370
    35
390
0
 62
     7
100
AcDbCircle
 10
968.274658
 20
358.489685
 30
0.0
 40
5.1
210
0.0
220
0.0
230
1.0
100
AcDbArc
 50
235.425573
 51
276.165555
  0
ARC
  5
286
100
AcDbEntity
  8
0
370
    35
390
0
 62
     7
100
AcDbCircle
 10
979.625854
 20
354.656006
 30
0.0
 40
14.25
210
0.0
220
0.0
230
1.0
100
AcDbArc
 50
178.529779
 51
181.470221
  0
ARC
  5
287
100
AcDbEntity
  8
0
370
    35
390
0
 62
     7
100
AcDbCircle
 10
968.274658
 20
350.822327
 30
0.0
 40
5.1
210
0.0
220
0.0
230
1.0
100
AcDbArc
 50
83.834445
 51
124.574427
  0
ARC
  5
288
100
AcDbEntity
  8
0
370
    35
390
0
 62
     7
100
AcDbCircle
 10
979.625854
 20
354.656006
 30
0.0
 40
10.874
210
0.0
220
0.0
230
1.0
100
AcDbArc
 50
165.354604
 51
173.468923
  0
ARC
  5
289
100
AcDbEntity
  8
0
370
    35
390
0
 62
     7
100
AcDbCircle
 10
970.426086
 20
362.331329
 30
0.0
 40
5.1
210
0.0
220
0.0
230
1.0
100
AcDbArc
 50
214.249104
 51
254.989079
  0
ARC
  5
28A
100
AcDbEntity
  8
0
370
    35
390
0
 62
     7
100
AcDbCircle
 10
979.625854
 20
354.656006
 30
0.0
 40
14.25
210
0.0
220
0.0
230
1.0
100
AcDbArc
 50
157.353311
 51
160.293748
  0
ARC
  5
28B
100
AcDbEntity
  8
0
370
    35
390
0
 62
     7
100
AcDbCircle
 10
967.656311
 20
355.181732
 30
0.0
 40
5.1
210
0.0
220
0.0
230
1.0
100
AcDbArc
 50
62.657977
 51
103.397958
  0
ARC
  5
28C
100
AcDbEntity
  8
0
370
    35
390
0
 62
     7
100
AcDbCircle
 10
979.625854
 20
354.656006
 30
0.0
 40
10.874
210
0.0
220
0.0
230
1.0
100
AcDbArc
 50
144.178135
 51
152.292455
  0
ARC
  5
28D
100
AcDbEntity
  8
0
370
    35
390
0
 62
     7
100
AcDbCircle
 10
973.819946
 20
365.136353
 30
0.0
 40
5.1
210
0.0
220
0.0
230
1.0
100
AcDbArc
 50
193.072636
 51
233.81261
  0
ARC
  5
28E
100
AcDbEntity
  8
0
370
    35
390
0
 62
     7
100
AcDbCircle
 10
979.625854
 20
354.656006
 30
0.0
 40
14.25
210
0.0
220
0.0
230
1.0
100
AcDbArc
 50
136.176842
 51
139.117279
  0
ARC
  5
28F
100
AcDbEntity
  8
0
370
    35
390
0
 62
     7
100
AcDbCircle
 10
968.65448
 20
359.470123
 30
0.0
 40
5.1
210
0.0
220
0.0
230
1.0
100
AcDbArc
 50
41.481508
 51
82.221489
  0
ARC
  5
290
100
AcDbEntity
  8
0
370
    35
390
0
 62
     7
100
AcDbCircle
 10
979.625854
 20
354.656006
 30
0.0
 40
10.874
210
0.0
220
0.0
230
1.0
100
AcDbArc
 50
123.001653
 51
131.115986
  0
ARC
  5
291
100
AcDbEntity
  8
0
370
    35
390
0
 62
     7
100
AcDbCircle
 10
977.997986
 20
366.52597
 30
0.0
 40
5.1
210
0.0
220
0.0
230
1.0
100
AcDbArc
 50
171.896163
 51
212.636141
  0
ARC
  5
292
100
AcDbEntity
  8
0
370
    35
390
0
 62
     7
100
AcDbCircle
 10
979.625854
 20
354.656006
 30
0.0
 40
14.25
210
0.0
220
0.0
230
1.0
100
AcDbArc
 50
115.00036
 51
117.940811
  0
ARC
  5
293
100
AcDbEntity
  8
0
370
    35
390
0
 62
     7
100
AcDbCircle
 10
971.13446
 20
363.108337
 30
0.0
 40
5.1
210
0.0
220
0.0
230
1.0
100
AcDbArc
 50
20.305036
 51
61.045021
  0
ARC
  5
294
100
AcDbEntity
  8
0
370
    35
390
0
 62
     7
100
AcDbCircle
 10
979.625854
 20
354.656006
 30
0.0
 40
10.874
210
0.0
220
0.0
230
1.0
100
AcDbArc
 50
101.825191
 51
109.939517
  0
ARC
  5
295
100
AcDbEntity
  8
0
370
    35
390
0
 62
     7
100
AcDbCircle
 10
982.395813
 20
366.3125
 30
0.0
 40
5.1
210
0.0
220
0.0
230
1.0
100
AcDbArc
 50
150.719694
 51
191.459673
  0
ARC
  5
296
100
AcDbEntity
  8
0
370
    35
390
0
 62
     7
100
AcDbCircle
 10
979.625854
 20
354.656006
 30
0.0
 40
14.25
210
0.0
220
0.0
230
1.0
100
AcDbArc
 50
93.823898
 51
96.764342
  0
ARC
  5
297
100
AcDbEntity
  8
0
370
    35
390
0
 62
     7
100
AcDbCircle
 10
974.761169
 20
365.605042
 30
0.0
 40
5.1
210
0.0
220
0.0
230
1.0
100
AcDbArc
 50
359.128565
 51
39.868548
  0
ARC
  5
298
100
AcDbEntity
  8
0
370
    35
390
0
 62
     7
100
AcDbCircle
 10
979.625854
 20
354.656006
 30
0.0
 40
10.874
210
0.0
220
0.0
230
1.0
100
AcDbArc
 50
80.648715
 51
88.763048
  0
ARC
  5
299
100
AcDbEntity
  8
0
370
    35
390
0
 62
     7
100
AcDbCircle
 10
986.419556
 20
364.524719
 30
0.0
 40
5.1
210
0.0
220
0.0
230
1.0
100
AcDbArc
 50
129.543212
 51
170.2832
  0
ARC
  5
29A
100
AcDbEntity
  8
0
370
    35
390
0
 62
     7
100
AcDbCircle
 10
979.625854
 20
354.656006
 30
0.0
 40
14.25
210
0.0
220
0.0
230
1.0
100
AcDbArc
 50
72.647429
 51
75.587866
  0
ARC
  5
29B
100
AcDbEntity
  8
0
370
    35
390
0
 62
     7
100
AcDbCircle
 10
979.044922
 20
366.622986
 30
0.0
 40
5.1
210
0.0
220
0.0
230
1.0
100
AcDbArc
 50
337.952096
 51
18.692076
  0
ARC
  5
29C
100
AcDbEntity
  8
0
370
    35
390
0
 62
     7
100
AcDbCircle
 10
979.625854
 20
354.656006
 30
0.0
 40
10.874
210
0.0
220
0.0
230
1.0
100
AcDbArc
 50
59.472247
 51
67.586573
  0
ARC
  5
29D
100
AcDbEntity
  8
0
370
    35
390
0
 62
     7
100
AcDbCircle
 10
979.535828
 20
354.656006
 30
0.0
 40
2.6
210
0.0
220
0.0
230
1.0
100
AcDbArc
 50
44.639774
 51
135.360225
  0
LINE
  5
29E
100
AcDbEntity
  8
0
370
    35
390
0
 62
     7
 48
0.091344
100
AcDbLine
 10
977.685852
 20
356.48288
 30
0.0
 11
977.685852
 21
352.829132
 31
0.0
210
0.0
220
0.0
230
1.0
  0
ARC
  5
29F
100
AcDbEntity
  8
0
370
    35
390
0
 62
     7
100
AcDbCircle
 10
979.535828
 20
354.656006
 30
0.0
 40
2.6
210
0.0
220
0.0
230
1.0
100
AcDbArc
 50
224.639775
 51
315.360226
  0
LINE
  5
2A0
100
AcDbEntity
  8
0
370
    35
390
0
 62
     7
 48
0.091344
100
AcDbLine
 10
981.385803
 20
352.829132
 30
0.0
 11
981.385803
 21
356.48288
 31
0.0
210
0.0
220
0.0
230
1.0
  0
CIRCLE
  5
2A1
100
AcDbEntity
  8
0
370
    35
390
0
 62
     7
100
AcDbCircle
 10
979.51532
 20
360.836914
 30
0.0
 40
0.95
210
0.0
220
0.0
230
1.0
  0
CIRCLE
  5
2A2
100
AcDbEntity
  8
0
370
    35
390
0
 62
     7
100
AcDbCircle
 10
913.172546
 20
352.876282
 30
0.0
 40
10.0
210
0.0
220
0.0
230
1.0
  0
ARC
  5
2A3
100
AcDbEntity
  8
0
370
    35
390
0
 62
     7
100
AcDbCircle
 10
913.172546
 20
352.876282
 30
0.0
 40
2.6
210
0.0
220
0.0
230
1.0
100
AcDbArc
 50
224.639775
 51
315.360226
  0
LINE
  5
2A4
100
AcDbEntity
  8
0
370
    35
390
0
 62
     7
 48
0.091344
100
AcDbLine
 10
911.322571
 20
354.703156
 30
0.0
 11
911.322571
 21
351.049408
 31
0.0
210
0.0
220
0.0
230
1.0
  0
ARC
  5
2A5
100
AcDbEntity
  8
0
370
    35
390
0
 62
     7
100
AcDbCircle
 10
913.172546
 20
352.876282
 30
0.0
 40
2.6
210
0.0
220
0.0
230
1.0
100
AcDbArc
 50
44.639774
 51
135.360225
  0
LINE
  5
2A6
100
AcDbEntity
  8
0
370
    35
390
0
 62
     7
 48
0.091344
100
AcDbLine
 10
915.022522
 20
351.049408
 30
0.0
 11
915.022522
 21
354.703156
 31
0.0
210
0.0
220
0.0
230
1.0
  0
CIRCLE
  5
2A7
100
AcDbEntity
  8
0
370
    35
390
0
 62
     7
100
AcDbCircle
 10
913.152039
 20
359.05719
 30
0.0
 40
0.95
210
0.0
220
0.0
230
1.0
  0
CIRCLE
  5
2A8
100
AcDbEntity
  8
0
370
    35
390
0
 62
     7
100
AcDbCircle
 10
913.193054
 20
346.695374
 30
0.0
 40
0.95
210
0.0
220
0.0
230
1.0
  0
LINE
  5
2A9
100
AcDbEntity
  8
0
370
    35
390
0
 62
     7
 48
0.404613
100
AcDbLine
 10
938.042725
 20
359.388855
 30
0.0
 11
954.227234
 21
359.388855
 31
0.0
210
0.0
220
0.0
230
1.0
  0
LINE
  5
2AA
100
AcDbEntity
  8
0
370
    35
390
0
 62
     7
 48
0.3
100
AcDbLine
 10
938.042725
 20
347.388855
 30
0.0
 11
938.042725
 21
359.388855
 31
0.0
210
0.0
220
0.0
230
1.0
  0
LINE
  5
2AB
100
AcDbEntity
  8
0
370
    35
390
0
 62
     7
 48
0.404613
100
AcDbLine
 10
954.227234
 20
347.388855
 30
0.0
 11
938.042725
 21
347.388855
 31
0.0
210
0.0
220
0.0
230
1.0
  0
LINE
  5
2AC
100
AcDbEntity
  8
0
370
    35
390
0
 62
     7
 48
0.3
100
AcDbLine
 10
954.227234
 20
359.388855
 30
0.0
 11
954.227234
 21
347.388855
 31
0.0
210
0.0
220
0.0
230
1.0
  0
CIRCLE
  5
2AD
100
AcDbEntity
  8
0
370
    35
390
0
 62
     7
100
AcDbCircle
 10
940.446411
 20
357.355011
 30
0.0
 40
1.0
210
0.0
220
0.0
230
1.0
  0
CIRCLE
  5
2AE
100
AcDbEntity
  8
0
370
    35
390
0
 62
     7
100
AcDbCircle
 10
951.823547
 20
357.355011
 30
0.0
 40
1.0
210
0.0
220
0.0
230
1.0
  0
CIRCLE
  5
2AF
100
AcDbEntity
  8
0
370
    35
390
0
 62
     7
100
AcDbCircle
 10
951.823547
 20
349.422699
 30
0.0
 40
1.0
210
0.0
220
0.0
230
1.0
  0
CIRCLE
  5
2B0
100
AcDbEntity
  8
0
370
    35
390
0
 62
     7
100
AcDbCircle
 10
940.446411
 20
349.422699
 30
0.0
 40
1.0
210
0.0
220
0.0
230
1.0
  0
LINE
  5
2B1
100
AcDbEntity
  8
0
370
    35
390
0
 62
     7
 48
0.260671
100
AcDbLine
 10
510.309784
 20
384.521484
 30
0.0
 11
499.882935
 21
384.521484
 31
0.0
210
0.0
220
0.0
230
1.0
  0
LINE
  5
2B2
100
AcDbEntity
  8
0
370
    35
390
0
 62
     7
 48
0.05
100
AcDbLine
 10
510.309784
 20
382.521484
 30
0.0
 11
510.309784
 21
384.521484
 31
0.0
210
0.0
220
0.0
230
1.0
  0
LINE
  5
2B3
100
AcDbEntity
  8
0
370
    35
390
0
 62
     7
 48
0.03
100
AcDbLine
 10
509.109802
 20
382.521484
 30
0.0
 11
510.309784
 21
382.521484
 31
0.0
210
0.0
220
0.0
230
1.0
  0
LINE
  5
2B4
100
AcDbEntity
  8
0
370
    35
390
0
 62
     7
 48
0.06
100
AcDbLine
 10
509.109802
 20
380.12149
 30
0.0
 11
509.109802
 21
382.521484
 31
0.0
210
0.0
220
0.0
230
1.0
  0
LINE
  5
2B5
100
AcDbEntity
  8
0
370
    35
390
0
 62
     7
 48
0.03
100
AcDbLine
 10
510.309784
 20
380.12149
 30
0.0
 11
509.109802
 21
380.12149
 31
0.0
210
0.0
220
0.0
230
1.0
  0
LINE
  5
2B6
100
AcDbEntity
  8
0
370
    35
390
0
 62
     7
 48
0.09
100
AcDbLine
 10
510.309784
 20
376.521484
 30
0.0
 11
510.309784
 21
380.12149
 31
0.0
210
0.0
220
0.0
230
1.0
  0
LINE
  5
2B7
100
AcDbEntity
  8
0
370
    35
390
0
 62
     7
 48
0.075001
100
AcDbLine
 10
513.309814
 20
376.521484
 30
0.0
 11
510.309784
 21
376.521484
 31
0.0
210
0.0
220
0.0
230
1.0
  0
LINE
  5
2B8
100
AcDbEntity
  8
0
370
    35
390
0
 62
     7
 48
0.09
100
AcDbLine
 10
513.309814
 20
380.12149
 30
0.0
 11
513.309814
 21
376.521484
 31
0.0
210
0.0
220
0.0
230
1.0
  0
LINE
  5
2B9
100
AcDbEntity
  8
0
370
    35
390
0
 62
     7
 48
0.029999
100
AcDbLine
 10
514.509766
 20
380.12149
 30
0.0
 11
513.309814
 21
380.12149
 31
0.0
210
0.0
220
0.0
230
1.0
  0
LINE
  5
2BA
100
AcDbEntity
  8
0
370
    35
390
0
 62
     7
 48
0.06
100
AcDbLine
 10
514.509766
 20
382.521484
 30
0.0
 11
514.509766
 21
380.12149
 31
0.0
210
0.0
220
0.0
230
1.0
  0
LINE
  5
2BB
100
AcDbEntity
  8
0
370
    35
390
0
 62
     7
 48
0.029999
100
AcDbLine
 10
513.309814
 20
382.521484
 30
0.0
 11
514.509766
 21
382.521484
 31
0.0
210
0.0
220
0.0
230
1.0
  0
LINE
  5
2BC
100
AcDbEntity
  8
0
370
    35
390
0
 62
     7
 48
0.05
100
AcDbLine
 10
513.309814
 20
384.521484
 30
0.0
 11
513.309814
 21
382.521484
 31
0.0
210
0.0
220
0.0
230
1.0
  0
LINE
  5
2BD
100
AcDbEntity
  8
0
370
    35
390
0
 62
     7
 48
0.294211
100
AcDbLine
 10
525.078247
 20
384.521484
 30
0.0
 11
513.309814
 21
384.521484
 31
0.0
210
0.0
220
0.0
230
1.0
  0
LINE
  5
2BE
100
AcDbEntity
  8
0
370
    35
390
0
 62
     7
 48
0.07
100
AcDbLine
 10
525.078247
 20
387.321472
 30
0.0
 11
525.078247
 21
384.521484
 31
0.0
210
0.0
220
0.0
230
1.0
  0
LINE
  5
2BF
100
AcDbEntity
  8
0
370
    35
390
0
 62
     7
 48
0.25
100
AcDbLine
 10
535.078247
 20
387.321472
 30
0.0
 11
525.078247
 21
387.321472
 31
0.0
210
0.0
220
0.0
230
1.0
  0
LINE
  5
2C0
100
AcDbEntity
  8
0
370
    35
390
0
 62
     7
 48
0.07
100
AcDbLine
 10
535.078247
 20
384.521484
 30
0.0
 11
535.078247
 21
387.321472
 31
0.0
210
0.0
220
0.0
230
1.0
  0
LINE
  5
2C1
100
AcDbEntity
  8
0
370
    35
390
0
 62
     7
100
AcDbLine
 10
558.838074
 20
384.521484
 30
0.0
 11
535.078247
 21
384.521484
 31
0.0
210
0.0
220
0.0
230
1.0
  0
LINE
  5
2C2
100
AcDbEntity
  8
0
370
    35
390
0
 62
     7
 48
0.07
100
AcDbLine
 10
558.838074
 20
384.521484
 30
0.0
 11
558.838074
 21
387.321472
 31
0.0
210
0.0
220
0.0
230
1.0
  0
LINE
  5
2C3
100
AcDbEntity
  8
0
370
    35
390
0
 62
     7
 48
0.25
100
AcDbLine
 10
558.838074
 20
387.321472
 30
0.0
 11
568.838074
 21
387.321472
 31
0.0
210
0.0
220
0.0
230
1.0
  0
LINE
  5
2C4
100
AcDbEntity
  8
0
370
    35
390
0
 62
     7
 48
0.07
100
AcDbLine
 10
568.838074
 20
387.321472
 30
0.0
 11
568.838074
 21
384.521484
 31
0.0
210
0.0
220
0.0
230
1.0
  0
LINE
  5
2C5
100
AcDbEntity
  8
0
370
    35
390
0
 62
     7
 48
0.294211
100
AcDbLine
 10
580.606506
 20
384.521484
 30
0.0
 11
568.838074
 21
384.521484
 31
0.0
210
0.0
220
0.0
230
1.0
  0
LINE
  5
2C6
100
AcDbEntity
  8
0
370
    35
390
0
 62
     7
 48
0.05
100
AcDbLine
 10
580.606506
 20
384.521484
 30
0.0
 11
580.606506
 21
382.521484
 31
0.0
210
0.0
220
0.0
230
1.0
  0
LINE
  5
2C7
100
AcDbEntity
  8
0
370
    35
390
0
 62
     7
 48
0.03
100
AcDbLine
 10
580.606506
 20
382.521484
 30
0.0
 11
579.406494
 21
382.521484
 31
0.0
210
0.0
220
0.0
230
1.0
  0
LINE
  5
2C8
100
AcDbEntity
  8
0
370
    35
390
0
 62
     7
 48
0.06
100
AcDbLine
 10
579.406494
 20
382.521484
 30
0.0
 11
579.406494
 21
380.12149
 31
0.0
210
0.0
220
0.0
230
1.0
  0
LINE
  5
2C9
100
AcDbEntity
  8
0
370
    35
390
0
 62
     7
 48
0.03
100
AcDbLine
 10
579.406494
 20
380.12149
 30
0.0
 11
580.606506
 21
380.12149
 31
0.0
210
0.0
220
0.0
230
1.0
  0
LINE
  5
2CA
100
AcDbEntity
  8
0
370
    35
390
0
 62
     7
 48
0.09
100
AcDbLine
 10
580.606506
 20
380.12149
 30
0.0
 11
580.606506
 21
376.521484
 31
0.0
210
0.0
220
0.0
230
1.0
  0
LINE
  5
2CB
100
AcDbEntity
  8
0
370
    35
390
0
 62
     7
 48
0.075
100
AcDbLine
 10
580.606506
 20
376.521484
 30
0.0
 11
583.606506
 21
376.521484
 31
0.0
210
0.0
220
0.0
230
1.0
  0
LINE
  5
2CC
100
AcDbEntity
  8
0
370
    35
390
0
 62
     7
 48
0.09
100
AcDbLine
 10
583.606506
 20
376.521484
 30
0.0
 11
583.606506
 21
380.12149
 31
0.0
210
0.0
220
0.0
230
1.0
  0
LINE
  5
2CD
100
AcDbEntity
  8
0
370
    35
390
0
 62
     7
 48
0.03
100
AcDbLine
 10
583.606506
 20
380.12149
 30
0.0
 11
584.806519
 21
380.12149
 31
0.0
210
0.0
220
0.0
230
1.0
  0
LINE
  5
2CE
100
AcDbEntity
  8
0
370
    35
390
0
 62
     7
 48
0.06
100
AcDbLine
 10
584.806519
 20
380.12149
 30
0.0
 11
584.806519
 21
382.521484
 31
0.0
210
0.0
220
0.0
230
1.0
  0
LINE
  5
2CF
100
AcDbEntity
  8
0
370
    35
390
0
 62
     7
 48
0.03
100
AcDbLine
 10
584.806519
 20
382.521484
 30
0.0
 11
583.606506
 21
382.521484
 31
0.0
210
0.0
220
0.0
230
1.0
  0
LINE
  5
2D0
100
AcDbEntity
  8
0
370
    35
390
0
 62
     7
 48
0.05
100
AcDbLine
 10
583.606506
 20
382.521484
 30
0.0
 11
583.606506
 21
384.521484
 31
0.0
210
0.0
220
0.0
230
1.0
  0
LINE
  5
2D1
100
AcDbEntity
  8
0
370
    35
390
0
 62
     7
 48
0.260672
100
AcDbLine
 10
594.033386
 20
384.521484
 30
0.0
 11
583.606506
 21
384.521484
 31
0.0
210
0.0
220
0.0
230
1.0
  0
LINE
  5
2D2
100
AcDbEntity
  8
0
370
    35
390
0
 62
     7
100
AcDbLine
 10
594.033386
 20
328.521484
 30
0.0
 11
594.033386
 21
384.521484
 31
0.0
210
0.0
220
0.0
230
1.0
  0
LINE
  5
2D3
100
AcDbEntity
  8
0
370
    35
390
0
 62
     7
 48
0.260672
100
AcDbLine
 10
583.606506
 20
328.521484
 30
0.0
 11
594.033386
 21
328.521484
 31
0.0
210
0.0
220
0.0
230
1.0
  0
LINE
  5
2D4
100
AcDbEntity
  8
0
370
    35
390
0
 62
     7
 48
0.05
100
AcDbLine
 10
583.606506
 20
330.521484
 30
0.0
 11
583.606506
 21
328.521484
 31
0.0
210
0.0
220
0.0
230
1.0
  0
LINE
  5
2D5
100
AcDbEntity
  8
0
370
    35
390
0
 62
     7
 48
0.03
100
AcDbLine
 10
584.806519
 20
330.521484
 30
0.0
 11
583.606506
 21
330.521484
 31
0.0
210
0.0
220
0.0
230
1.0
  0
LINE
  5
2D6
100
AcDbEntity
  8
0
370
    35
390
0
 62
     7
 48
0.06
100
AcDbLine
 10
584.806519
 20
332.921478
 30
0.0
 11
584.806519
 21
330.521484
 31
0.0
210
0.0
220
0.0
230
1.0
  0
LINE
  5
2D7
100
AcDbEntity
  8
0
370
    35
390
0
 62
     7
 48
0.03
100
AcDbLine
 10
583.606506
 20
332.921478
 30
0.0
 11
584.806519
 21
332.921478
 31
0.0
210
0.0
220
0.0
230
1.0
  0
LINE
  5
2D8
100
AcDbEntity
  8
0
370
    35
390
0
 62
     7
 48
0.09
100
AcDbLine
 10
583.606506
 20
336.521484
 30
0.0
 11
583.606506
 21
332.921478
 31
0.0
210
0.0
220
0.0
230
1.0
  0
LINE
  5
2D9
100
AcDbEntity
  8
0
370
    35
390
0
 62
     7
 48
0.075
100
AcDbLine
 10
580.606506
 20
336.521484
 30
0.0
 11
583.606506
 21
336.521484
 31
0.0
210
0.0
220
0.0
230
1.0
  0
LINE
  5
2DA
100
AcDbEntity
  8
0
370
    35
390
0
 62
     7
 48
0.09
100
AcDbLine
 10
580.606506
 20
332.921478
 30
0.0
 11
580.606506
 21
336.521484
 31
0.0
210
0.0
220
0.0
230
1.0
  0
LINE
  5
2DB
100
AcDbEntity
  8
0
370
    35
390
0
 62
     7
 48
0.03
100
AcDbLine
 10
579.406494
 20
332.921478
 30
0.0
 11
580.606506
 21
332.921478
 31
0.0
210
0.0
220
0.0
230
1.0
  0
LINE
  5
2DC
100
AcDbEntity
  8
0
370
    35
390
0
 62
     7
 48
0.06
100
AcDbLine
 10
579.406494
 20
330.521484
 30
0.0
 11
579.406494
 21
332.921478
 31
0.0
210
0.0
220
0.0
230
1.0
  0
LINE
  5
2DD
100
AcDbEntity
  8
0
370
    35
390
0
 62
     7
 48
0.03
100
AcDbLine
 10
580.606506
 20
330.521484
 30
0.0
 11
579.406494
 21
330.521484
 31
0.0
210
0.0
220
0.0
230
1.0
  0
LINE
  5
2DE
100
AcDbEntity
  8
0
370
    35
390
0
 62
     7
 48
0.05
100
AcDbLine
 10
580.606506
 20
328.521484
 30
0.0
 11
580.606506
 21
330.521484
 31
0.0
210
0.0
220
0.0
230
1.0
  0
LINE
  5
2DF
100
AcDbEntity
  8
0
370
    35
390
0
 62
     7
 48
0.294211
100
AcDbLine
 10
568.838074
 20
328.521484
 30
0.0
 11
580.606506
 21
328.521484
 31
0.0
210
0.0
220
0.0
230
1.0
  0
LINE
  5
2E0
100
AcDbEntity
  8
0
370
    35
390
0
 62
     7
 48
0.07
100
AcDbLine
 10
568.838074
 20
325.721497
 30
0.0
 11
568.838074
 21
328.521484
 31
0.0
210
0.0
220
0.0
230
1.0
  0
LINE
  5
2E1
100
AcDbEntity
  8
0
370
    35
390
0
 62
     7
 48
0.25
100
AcDbLine
 10
558.838074
 20
325.721497
 30
0.0
 11
568.838074
 21
325.721497
 31
0.0
210
0.0
220
0.0
230
1.0
  0
LINE
  5
2E2
100
AcDbEntity
  8
0
370
    35
390
0
 62
     7
 48
0.07
100
AcDbLine
 10
558.838074
 20
328.521484
 30
0.0
 11
558.838074
 21
325.721497
 31
0.0
210
0.0
220
0.0
230
1.0
  0
LINE
  5
2E3
100
AcDbEntity
  8
0
370
    35
390
0
 62
     7
100
AcDbLine
 10
558.838074
 20
328.521484
 30
0.0
 11
535.078247
 21
328.521484
 31
0.0
210
0.0
220
0.0
230
1.0
  0
LINE
  5
2E4
100
AcDbEntity
  8
0
370
    35
390
0
 62
     7
 48
0.07
100
AcDbLine
 10
535.078247
 20
328.521484
 30
0.0
 11
535.078247
 21
325.721497
 31
0.0
210
0.0
220
0.0
230
1.0
  0
LINE
  5
2E5
100
AcDbEntity
  8
0
370
    35
390
0
 62
     7
 48
0.25
100
AcDbLine
 10
535.078247
 20
325.721497
 30
0.0
 11
525.078247
 21
325.721497
 31
0.0
210
0.0
220
0.0
230
1.0
  0
LINE
  5
2E6
100
AcDbEntity
  8
0
370
    35
390
0
 62
     7
 48
0.07
100
AcDbLine
 10
525.078247
 20
325.721497
 30
0.0
 11
525.078247
 21
328.521484
 31
0.0
210
0.0
220
0.0
230
1.0
  0
LINE
  5
2E7
100
AcDbEntity
  8
0
370
    35
390
0
 62
     7
 48
0.294211
100
AcDbLine
 10
513.309814
 20
328.521484
 30
0.0
 11
525.078247
 21
328.521484
 31
0.0
210
0.0
220
0.0
230
1.0
  0
LINE
  5
2E8
100
AcDbEntity
  8
0
370
    35
390
0
 62
     7
 48
0.05
100
AcDbLine
 10
513.309814
 20
328.521484
 30
0.0
 11
513.309814
 21
330.521484
 31
0.0
210
0.0
220
0.0
230
1.0
  0
LINE
  5
2E9
100
AcDbEntity
  8
0
370
    35
390
0
 62
     7
 48
0.029999
100
AcDbLine
 10
513.309814
 20
330.521484
 30
0.0
 11
514.509766
 21
330.521484
 31
0.0
210
0.0
220
0.0
230
1.0
  0
LINE
  5
2EA
100
AcDbEntity
  8
0
370
    35
390
0
 62
     7
 48
0.06
100
AcDbLine
 10
514.509766
 20
330.521484
 30
0.0
 11
514.509766
 21
332.921478
 31
0.0
210
0.0
220
0.0
230
1.0
  0
LINE
  5
2EB
100
AcDbEntity
  8
0
370
    35
390
0
 62
     7
 48
0.029999
100
AcDbLine
 10
514.509766
 20
332.921478
 30
0.0
 11
513.309814
 21
332.921478
 31
0.0
210
0.0
220
0.0
230
1.0
  0
LINE
  5
2EC
100
AcDbEntity
  8
0
370
    35
390
0
 62
     7
 48
0.09
100
AcDbLine
 10
513.309814
 20
332.921478
 30
0.0
 11
513.309814
 21
336.521484
 31
0.0
210
0.0
220
0.0
230
1.0
  0
LINE
  5
2ED
100
AcDbEntity
  8
0
370
    35
390
0
 62
     7
 48
0.075001
100
AcDbLine
 10
513.309814
 20
336.521484
 30
0.0
 11
510.309784
 21
336.521484
 31
0.0
210
0.0
220
0.0
230
1.0
  0
LINE
  5
2EE
100
AcDbEntity
  8
0
370
    35
390
0
 62
     7
 48
0.09
100
AcDbLine
 10
510.309784
 20
336.521484
 30
0.0
 11
510.309784
 21
332.921478
 31
0.0
210
0.0
220
0.0
230
1.0
  0
LINE
  5
2EF
100
AcDbEntity
  8
0
370
    35
390
0
 62
     7
 48
0.03
100
AcDbLine
 10
510.309784
 20
332.921478
 30
0.0
 11
509.109802
 21
332.921478
 31
0.0
210
0.0
220
0.0
230
1.0
  0
LINE
  5
2F0
100
AcDbEntity
  8
0
370
    35
390
0
 62
     7
 48
0.06
100
AcDbLine
 10
509.109802
 20
332.921478
 30
0.0
 11
509.109802
 21
330.521484
 31
0.0
210
0.0
220
0.0
230
1.0
  0
LINE
  5
2F1
100
AcDbEntity
  8
0
370
    35
390
0
 62
     7
 48
0.03
100
AcDbLine
 10
509.109802
 20
330.521484
 30
0.0
 11
510.309784
 21
330.521484
 31
0.0
210
0.0
220
0.0
230
1.0
  0
LINE
  5
2F2
100
AcDbEntity
  8
0
370
    35
390
0
 62
     7
 48
0.05
100
AcDbLine
 10
510.309784
 20
330.521484
 30
0.0
 11
510.309784
 21
328.521484
 31
0.0
210
0.0
220
0.0
230
1.0
  0
LINE
  5
2F3
100
AcDbEntity
  8
0
370
    35
390
0
 62
     7
 48
0.260671
100
AcDbLine
 10
499.882935
 20
328.521484
 30
0.0
 11
510.309784
 21
328.521484
 31
0.0
210
0.0
220
0.0
230
1.0
  0
LINE
  5
2F4
100
AcDbEntity
  8
0
370
    35
390
0
 62
     7
100
AcDbLine
 10
499.882935
 20
384.521484
 30
0.0
 11
499.882935
 21
328.521484
 31
0.0
210
0.0
220
0.0
230
1.0
  0
CIRCLE
  5
2F5
100
AcDbEntity
  8
0
370
    35
390
0
 62
     7
100
AcDbCircle
 10
545.457947
 20
340.021484
 30
0.0
 40
1.75
210
0.0
220
0.0
230
1.0
  0
CIRCLE
  5
2F6
100
AcDbEntity
  8
0
370
    35
390
0
 62
     7
100
AcDbCircle
 10
545.457947
 20
370.021484
 30
0.0
 40
1.75
210
0.0
220
0.0
230
1.0
  0
LINE
  5
2F7
100
AcDbEntity
  8
0
370
    35
390
0
 62
     7
 48
0.325
100
AcDbLine
 10
505.056671
 20
348.605774
 30
0.0
 11
505.056671
 21
361.605774
 31
0.0
210
0.0
220
0.0
230
1.0
  0
LINE
  5
2F8
100
AcDbEntity
  8
0
370
    35
390
0
 62
     7
 48
0.212499
100
AcDbLine
 10
513.556641
 20
348.605774
 30
0.0
 11
505.056671
 21
348.605774
 31
0.0
210
0.0
220
0.0
230
1.0
  0
LINE
  5
2F9
100
AcDbEntity
  8
0
370
    35
390
0
 62
     7
 48
0.325
100
AcDbLine
 10
513.556641
 20
361.605774
 30
0.0
 11
513.556641
 21
348.605774
 31
0.0
210
0.0
220
0.0
230
1.0
  0
LINE
  5
2FA
100
AcDbEntity
  8
0
370
    35
390
0
 62
     7
 48
0.212499
100
AcDbLine
 10
505.056671
 20
361.605774
 30
0.0
 11
513.556641
 21
361.605774
 31
0.0
210
0.0
220
0.0
230
1.0
  0
CIRCLE
  5
2FB
100
AcDbEntity
  8
0
370
    35
390
0
 62
     7
100
AcDbCircle
 10
1017.0354
 20
335.708527
 30
0.0
 40
3.94
210
0.0
220
0.0
230
1.0
  0
ARC
  5
2FC
100
AcDbEntity
  8
0
370
    35
390
0
 62
     7
100
AcDbCircle
 10
1029.583496
 20
369.327606
 30
0.0
 40
7.0
210
0.0
220
0.0
230
1.0
100
AcDbArc
 50
263.731571
 51
174.020161
  0
ARC
  5
2FD
100
AcDbEntity
  8
0
370
    35
390
0
 62
     7
100
AcDbCircle
 10
1028.60083
 20
360.381409
 30
0.0
 40
2.0
210
0.0
220
0.0
230
1.0
100
AcDbArc
 50
83.731569
 51
146.886838
  0
POLYLINE
  5
2FE
100
AcDbEntity
  8
0
370
    35
390
0
 62
     7
100
AcDb2dPolyline
 66
     1
 10
0.0
 20
0.0
 30
0.0
 71
   113
  0
VERTEX
  5
2FF
100
AcDbEntity
  8
0
370
     0
390
0
100
AcDbVertex
100
AcDb2dVertex
 10
1026.925659
 20
361.473999
 30
0.0
  0
VERTEX
  5
300
100
AcDbEntity
  8
0
370
     0
390
0
100
AcDbVertex
100
AcDb2dVertex
 10
1026.699219
 20
361.132629
 30
0.0
  0
VERTEX
  5
301
100
AcDbEntity
  8
0
370
     0
390
0
100
AcDbVertex
100
AcDb2dVertex
 10
1026.467163
 20
360.789581
 30
0.0
  0
VERTEX
  5
302
100
AcDbEntity
  8
0
370
     0
390
0
100
AcDbVertex
100
AcDb2dVertex
 10
1026.357178
 20
360.616455
 30
0.0
  0
VERTEX
  5
303
100
AcDbEntity
  8
0
370
     0
390
0
100
AcDbVertex
100
AcDb2dVertex
 10
1026.210327
 20
360.351288
 30
0.0
  0
VERTEX
  5
304
100
AcDbEntity
  8
0
370
     0
390
0
100
AcDbVertex
100
AcDb2dVertex
 10
1026.111694
 20
360.124756
 30
0.0
  0
VERTEX
  5
305
100
AcDbEntity
  8
0
370
     0
390
0
100
AcDbVertex
100
AcDb2dVertex
 10
1026.033691
 20
359.891785
 30
0.0
  0
VERTEX
  5
306
100
AcDbEntity
  8
0
370
     0
390
0
100
AcDbVertex
100
AcDb2dVertex
 10
1025.931885
 20
359.408905
 30
0.0
  0
VERTEX
  5
307
100
AcDbEntity
  8
0
370
     0
390
0
100
AcDbVertex
100
AcDb2dVertex
 10
1025.889282
 20
358.907288
 30
0.0
  0
VERTEX
  5
308
100
AcDbEntity
  8
0
370
     0
390
0
100
AcDbVertex
100
AcDb2dVertex
 10
1025.890503
 20
358.391541
 30
0.0
  0
VERTEX
  5
309
100
AcDbEntity
  8
0
370
     0
390
0
100
AcDbVertex
100
AcDb2dVertex
 10
1025.907959
 20
358.042175
 30
0.0
  0
VERTEX
  5
30A
100
AcDbEntity
  8
0
370
     0
390
0
100
AcDbVertex
100
AcDb2dVertex
 10
1025.962036
 20
357.336273
 30
0.0
  0
VERTEX
  5
30B
100
AcDbEntity
  8
0
370
     0
390
0
100
AcDbVertex
100
AcDb2dVertex
 10
1026.014771
 20
356.542267
 30
0.0
  0
VERTEX
  5
30C
100
AcDbEntity
  8
0
370
     0
390
0
100
AcDbVertex
100
AcDb2dVertex
 10
1026.022827
 20
355.939453
 30
0.0
  0
VERTEX
  5
30D
100
AcDbEntity
  8
0
370
     0
390
0
100
AcDbVertex
100
AcDb2dVertex
 10
1026.000977
 20
355.344391
 30
0.0
  0
VERTEX
  5
30E
100
AcDbEntity
  8
0
370
     0
390
0
100
AcDbVertex
100
AcDb2dVertex
 10
1025.938477
 20
354.603638
 30
0.0
  0
VERTEX
  5
30F
100
AcDbEntity
  8
0
370
     0
390
0
100
AcDbVertex
100
AcDb2dVertex
 10
1025.846558
 20
353.870758
 30
0.0
  0
VERTEX
  5
310
100
AcDbEntity
  8
0
370
     0
390
0
100
AcDbVertex
100
AcDb2dVertex
 10
1025.639648
 20
352.568085
 30
0.0
  0
VERTEX
  5
311
100
AcDbEntity
  8
0
370
     0
390
0
100
AcDbVertex
100
AcDb2dVertex
 10
1025.428223
 20
351.26825
 30
0.0
  0
VERTEX
  5
312
100
AcDbEntity
  8
0
370
     0
390
0
100
AcDbVertex
100
AcDb2dVertex
 10
1025.27478
 20
350.103363
 30
0.0
  0
VERTEX
  5
313
100
AcDbEntity
  8
0
370
     0
390
0
100
AcDbVertex
100
AcDb2dVertex
 10
1025.155151
 20
348.931091
 30
0.0
  0
VERTEX
  5
314
100
AcDbEntity
  8
0
370
     0
390
0
100
AcDbVertex
100
AcDb2dVertex
 10
1025.033325
 20
347.359619
 30
0.0
  0
VERTEX
  5
315
100
AcDbEntity
  8
0
370
     0
390
0
100
AcDbVertex
100
AcDb2dVertex
 10
1024.935669
 20
345.782349
 30
0.0
  0
VERTEX
  5
316
100
AcDbEntity
  8
0
370
     0
390
0
100
AcDbVertex
100
AcDb2dVertex
 10
1024.841919
 20
344.203369
 30
0.0
  0
VERTEX
  5
317
100
AcDbEntity
  8
0
370
     0
390
0
100
AcDbVertex
100
AcDb2dVertex
 10
1024.714355
 20
342.458282
 30
0.0
  0
VERTEX
  5
318
100
AcDbEntity
  8
0
370
     0
390
0
100
AcDbVertex
100
AcDb2dVertex
 10
1024.627441
 20
341.590057
 30
0.0
  0
VERTEX
  5
319
100
AcDbEntity
  8
0
370
     0
390
0
100
AcDbVertex
100
AcDb2dVertex
 10
1024.450928
 20
340.296692
 30
0.0
  0
VERTEX
  5
31A
100
AcDbEntity
  8
0
370
     0
390
0
100
AcDbVertex
100
AcDb2dVertex
 10
1024.207764
 20
339.021576
 30
0.0
  0
VERTEX
  5
31B
100
AcDbEntity
  8
0
370
     0
390
0
100
AcDbVertex
100
AcDb2dVertex
 10
1024.01355
 20
338.176208
 30
0.0
  0
VERTEX
  5
31C
100
AcDbEntity
  8
0
370
     0
390
0
100
AcDbVertex
100
AcDb2dVertex
 10
1023.570984
 20
336.487701
 30
0.0
  0
VERTEX
  5
31D
100
AcDbEntity
  8
0
370
     0
390
0
100
AcDbVertex
100
AcDb2dVertex
 10
1023.304932
 20
335.562653
 30
0.0
  0
VERTEX
  5
31E
100
AcDbEntity
  8
0
370
     0
390
0
100
AcDbVertex
100
AcDb2dVertex
 10
1023.160583
 20
335.104675
 30
0.0
  0
VERTEX
  5
31F
100
AcDbEntity
  8
0
370
     0
390
0
100
AcDbVertex
100
AcDb2dVertex
 10
1022.921997
 20
334.42981
 30
0.0
  0
VERTEX
  5
320
100
AcDbEntity
  8
0
370
     0
390
0
100
AcDbVertex
100
AcDb2dVertex
 10
1022.720581
 20
333.937286
 30
0.0
  0
VERTEX
  5
321
100
AcDbEntity
  8
0
370
     0
390
0
100
AcDbVertex
100
AcDb2dVertex
 10
1022.495544
 20
333.460022
 30
0.0
  0
VERTEX
  5
322
100
AcDbEntity
  8
0
370
     0
390
0
100
AcDbVertex
100
AcDb2dVertex
 10
1022.18158
 20
332.891907
 30
0.0
  0
VERTEX
  5
323
100
AcDbEntity
  8
0
370
     0
390
0
100
AcDbVertex
100
AcDb2dVertex
 10
1021.954956
 20
332.521881
 30
0.0
  0
VERTEX
  5
324
100
AcDbEntity
  8
0
370
     0
390
0
100
AcDbVertex
100
AcDb2dVertex
 10
1021.47699
 20
331.783691
 30
0.0
  0
VERTEX
  5
325
100
AcDbEntity
  8
0
370
     0
390
0
100
AcDbVertex
100
AcDb2dVertex
 10
1020.931274
 20
330.920685
 30
0.0
  0
VERTEX
  5
326
100
AcDbEntity
  8
0
370
     0
390
0
100
AcDbVertex
100
AcDb2dVertex
 10
1020.575806
 20
330.320038
 30
0.0
  0
VERTEX
  5
327
100
AcDbEntity
  8
0
370
     0
390
0
100
AcDbVertex
100
AcDb2dVertex
 10
1020.391357
 20
330.028381
 30
0.0
  0
VERTEX
  5
328
100
AcDbEntity
  8
0
370
     0
390
0
100
AcDbVertex
100
AcDb2dVertex
 10
1020.092651
 20
329.626526
 30
0.0
  0
VERTEX
  5
329
100
AcDbEntity
  8
0
370
     0
390
0
100
AcDbVertex
100
AcDb2dVertex
 10
1019.84259
 20
329.368866
 30
0.0
  0
VERTEX
  5
32A
100
AcDbEntity
  8
0
370
     0
390
0
100
AcDbVertex
100
AcDb2dVertex
 10
1019.562561
 20
329.162689
 30
0.0
  0
VERTEX
  5
32B
100
AcDbEntity
  8
0
370
     0
390
0
100
AcDbVertex
100
AcDb2dVertex
 10
1019.268433
 20
329.02356
 30
0.0
  0
VERTEX
  5
32C
100
AcDbEntity
  8
0
370
     0
390
0
100
AcDbVertex
100
AcDb2dVertex
 10
1018.94751
 20
328.929321
 30
0.0
  0
VERTEX
  5
32D
100
AcDbEntity
  8
0
370
     0
390
0
100
AcDbVertex
100
AcDb2dVertex
 10
1018.698242
 20
328.88208
 30
0.0
  0
VERTEX
  5
32E
100
AcDbEntity
  8
0
370
     0
390
0
100
AcDbVertex
100
AcDb2dVertex
 10
1018.439941
 20
328.848297
 30
0.0
  0
VERTEX
  5
32F
100
AcDbEntity
  8
0
370
     0
390
0
100
AcDbVertex
100
AcDb2dVertex
 10
1017.979187
 20
328.808441
 30
0.0
  0
VERTEX
  5
330
100
AcDbEntity
  8
0
370
     0
390
0
100
AcDbVertex
100
AcDb2dVertex
 10
1017.509521
 20
328.772003
 30
0.0
  0
VERTEX
  5
331
100
AcDbEntity
  8
0
370
     0
390
0
100
AcDbVertex
100
AcDb2dVertex
 10
1016.579224
 20
328.671326
 30
0.0
  0
VERTEX
  5
332
100
AcDbEntity
  8
0
370
     0
390
0
100
AcDbVertex
100
AcDb2dVertex
 10
1016.026794
 20
328.632385
 30
0.0
  0
VERTEX
  5
333
100
AcDbEntity
  8
0
370
     0
390
0
100
AcDbVertex
100
AcDb2dVertex
 10
1015.758728
 20
328.632477
 30
0.0
  0
VERTEX
  5
334
100
AcDbEntity
  8
0
370
     0
390
0
100
AcDbVertex
100
AcDb2dVertex
 10
1015.35321
 20
328.671509
 30
0.0
  0
VERTEX
  5
335
100
AcDbEntity
  8
0
370
     0
390
0
100
AcDbVertex
100
AcDb2dVertex
 10
1015.157715
 20
328.713074
 30
0.0
  0
VERTEX
  5
336
100
AcDbEntity
  8
0
370
     0
390
0
100
AcDbVertex
100
AcDb2dVertex
 10
1014.96759
 20
328.772003
 30
0.0
  0
VERTEX
  5
337
100
AcDbEntity
  8
0
370
     0
390
0
100
AcDbVertex
100
AcDb2dVertex
 10
1014.66687
 20
328.908997
 30
0.0
  0
VERTEX
  5
338
100
AcDbEntity
  8
0
370
     0
390
0
100
AcDbVertex
100
AcDb2dVertex
 10
1014.379272
 20
329.088715
 30
0.0
  0
VERTEX
  5
339
100
AcDbEntity
  8
0
370
     0
390
0
100
AcDbVertex
100
AcDb2dVertex
 10
1014.011475
 20
329.378143
 30
0.0
  0
VERTEX
  5
33A
100
AcDbEntity
  8
0
370
     0
390
0
100
AcDbVertex
100
AcDb2dVertex
 10
1013.773376
 20
329.592438
 30
0.0
  0
VERTEX
  5
33B
100
AcDbEntity
  8
0
370
     0
390
0
100
AcDbVertex
100
AcDb2dVertex
 10
1013.305603
 20
330.041687
 30
0.0
  0
VERTEX
  5
33C
100
AcDbEntity
  8
0
370
     0
390
0
100
AcDbVertex
100
AcDb2dVertex
 10
1012.816589
 20
330.512085
 30
0.0
  0
VERTEX
  5
33D
100
AcDbEntity
  8
0
370
     0
390
0
100
AcDbVertex
100
AcDb2dVertex
 10
1012.581604
 20
330.747986
 30
0.0
  0
VERTEX
  5
33E
100
AcDbEntity
  8
0
370
     0
390
0
100
AcDbVertex
100
AcDb2dVertex
 10
1012.252625
 20
331.111877
 30
0.0
  0
VERTEX
  5
33F
100
AcDbEntity
  8
0
370
     0
390
0
100
AcDbVertex
100
AcDb2dVertex
 10
1012.031616
 20
331.398468
 30
0.0
  0
VERTEX
  5
340
100
AcDbEntity
  8
0
370
     0
390
0
100
AcDbVertex
100
AcDb2dVertex
 10
1011.839111
 20
331.702026
 30
0.0
  0
VERTEX
  5
341
100
AcDbEntity
  8
0
370
     0
390
0
100
AcDbVertex
100
AcDb2dVertex
 10
1011.6604
 20
332.070435
 30
0.0
  0
VERTEX
  5
342
100
AcDbEntity
  8
0
370
     0
390
0
100
AcDbVertex
100
AcDb2dVertex
 10
1011.520813
 20
332.461243
 30
0.0
  0
VERTEX
  5
343
100
AcDbEntity
  8
0
370
     0
390
0
100
AcDbVertex
100
AcDb2dVertex
 10
1011.434875
 20
332.782379
 30
0.0
  0
VERTEX
  5
344
100
AcDbEntity
  8
0
370
     0
390
0
100
AcDbVertex
100
AcDb2dVertex
 10
1011.367676
 20
333.111633
 30
0.0
  0
VERTEX
  5
345
100
AcDbEntity
  8
0
370
     0
390
0
100
AcDbVertex
100
AcDb2dVertex
 10
1011.29541
 20
333.625854
 30
0.0
  0
VERTEX
  5
346
100
AcDbEntity
  8
0
370
     0
390
0
100
AcDbVertex
100
AcDb2dVertex
 10
1011.252502
 20
334.143677
 30
0.0
  0
VERTEX
  5
347
100
AcDbEntity
  8
0
370
     0
390
0
100
AcDbVertex
100
AcDb2dVertex
 10
1011.226318
 20
334.869049
 30
0.0
  0
VERTEX
  5
348
100
AcDbEntity
  8
0
370
     0
390
0
100
AcDbVertex
100
AcDb2dVertex
 10
1011.224548
 20
335.347961
 30
0.0
  0
VERTEX
  5
349
100
AcDbEntity
  8
0
370
     0
390
0
100
AcDbVertex
100
AcDb2dVertex
 10
1011.239929
 20
336.299072
 30
0.0
  0
VERTEX
  5
34A
100
AcDbEntity
  8
0
370
     0
390
0
100
AcDbVertex
100
AcDb2dVertex
 10
1011.224976
 20
338.603058
 30
0.0
  0
VERTEX
  5
34B
100
AcDbEntity
  8
0
370
     0
390
0
100
AcDbVertex
100
AcDb2dVertex
 10
1011.201477
 20
339.705109
 30
0.0
  0
VERTEX
  5
34C
100
AcDbEntity
  8
0
370
     0
390
0
100
AcDbVertex
100
AcDb2dVertex
 10
1011.206482
 20
340.255432
 30
0.0
  0
VERTEX
  5
34D
100
AcDbEntity
  8
0
370
     0
390
0
100
AcDbVertex
100
AcDb2dVertex
 10
1011.252502
 20
341.078033
 30
0.0
  0
VERTEX
  5
34E
100
AcDbEntity
  8
0
370
     0
390
0
100
AcDbVertex
100
AcDb2dVertex
 10
1011.307068
 20
341.556519
 30
0.0
  0
VERTEX
  5
34F
100
AcDbEntity
  8
0
370
     0
390
0
100
AcDbVertex
100
AcDb2dVertex
 10
1011.381653
 20
342.032806
 30
0.0
  0
VERTEX
  5
350
100
AcDbEntity
  8
0
370
     0
390
0
100
AcDbVertex
100
AcDb2dVertex
 10
1011.582825
 20
342.977722
 30
0.0
  0
VERTEX
  5
351
100
AcDbEntity
  8
0
370
     0
390
0
100
AcDbVertex
100
AcDb2dVertex
 10
1011.839111
 20
343.91037
 30
0.0
  0
VERTEX
  5
352
100
AcDbEntity
  8
0
370
     0
390
0
100
AcDbVertex
100
AcDb2dVertex
 10
1012.231323
 20
345.132263
 30
0.0
  0
VERTEX
  5
353
100
AcDbEntity
  8
0
370
     0
390
0
100
AcDbVertex
100
AcDb2dVertex
 10
1012.621216
 20
346.352051
 30
0.0
  0
VERTEX
  5
354
100
AcDbEntity
  8
0
370
     0
390
0
100
AcDbVertex
100
AcDb2dVertex
 10
1012.816833
 20
347.04657
 30
0.0
  0
VERTEX
  5
355
100
AcDbEntity
  8
0
370
     0
390
0
100
AcDbVertex
100
AcDb2dVertex
 10
1013.167175
 20
348.448212
 30
0.0
  0
VERTEX
  5
356
100
AcDbEntity
  8
0
370
     0
390
0
100
AcDbVertex
100
AcDb2dVertex
 10
1013.510193
 20
349.853119
 30
0.0
  0
VERTEX
  5
357
100
AcDbEntity
  8
0
370
     0
390
0
100
AcDbVertex
100
AcDb2dVertex
 10
1013.696655
 20
350.551727
 30
0.0
  0
VERTEX
  5
358
100
AcDbEntity
  8
0
370
     0
390
0
100
AcDbVertex
100
AcDb2dVertex
 10
1014.007446
 20
351.577423
 30
0.0
  0
VERTEX
  5
359
100
AcDbEntity
  8
0
370
     0
390
0
100
AcDbVertex
100
AcDb2dVertex
 10
1014.364624
 20
352.587891
 30
0.0
  0
VERTEX
  5
35A
100
AcDbEntity
  8
0
370
     0
390
0
100
AcDbVertex
100
AcDb2dVertex
 10
1014.772034
 20
353.579407
 30
0.0
  0
VERTEX
  5
35B
100
AcDbEntity
  8
0
370
     0
390
0
100
AcDbVertex
100
AcDb2dVertex
 10
1015.273193
 20
354.650452
 30
0.0
  0
VERTEX
  5
35C
100
AcDbEntity
  8
0
370
     0
390
0
100
AcDbVertex
100
AcDb2dVertex
 10
1015.726563
 20
355.598114
 30
0.0
  0
VERTEX
  5
35D
100
AcDbEntity
  8
0
370
     0
390
0
100
AcDbVertex
100
AcDb2dVertex
 10
1015.942505
 20
356.075684
 30
0.0
  0
VERTEX
  5
35E
100
AcDbEntity
  8
0
370
     0
390
0
100
AcDbVertex
100
AcDb2dVertex
 10
1016.238525
 20
356.802399
 30
0.0
  0
VERTEX
  5
35F
100
AcDbEntity
  8
0
370
     0
390
0
100
AcDbVertex
100
AcDb2dVertex
 10
1016.518372
 20
357.631958
 30
0.0
  0
VERTEX
  5
360
100
AcDbEntity
  8
0
370
     0
390
0
100
AcDbVertex
100
AcDb2dVertex
 10
1016.683044
 20
358.193359
 30
0.0
  0
VERTEX
  5
361
100
AcDbEntity
  8
0
370
     0
390
0
100
AcDbVertex
100
AcDb2dVertex
 10
1016.991699
 20
359.324463
 30
0.0
  0
VERTEX
  5
362
100
AcDbEntity
  8
0
370
     0
390
0
100
AcDbVertex
100
AcDb2dVertex
 10
1017.204956
 20
360.076141
 30
0.0
  0
VERTEX
  5
363
100
AcDbEntity
  8
0
370
     0
390
0
100
AcDbVertex
100
AcDb2dVertex
 10
1017.509521
 20
361.002075
 30
0.0
  0
VERTEX
  5
364
100
AcDbEntity
  8
0
370
     0
390
0
100
AcDbVertex
100
AcDb2dVertex
 10
1017.713928
 20
361.523804
 30
0.0
  0
VERTEX
  5
365
100
AcDbEntity
  8
0
370
     0
390
0
100
AcDbVertex
100
AcDb2dVertex
 10
1017.938965
 20
362.037537
 30
0.0
  0
VERTEX
  5
366
100
AcDbEntity
  8
0
370
     0
390
0
100
AcDbVertex
100
AcDb2dVertex
 10
1018.265076
 20
362.711609
 30
0.0
  0
VERTEX
  5
367
100
AcDbEntity
  8
0
370
     0
390
0
100
AcDbVertex
100
AcDb2dVertex
 10
1018.495361
 20
363.154938
 30
0.0
  0
VERTEX
  5
368
100
AcDbEntity
  8
0
370
     0
390
0
100
AcDbVertex
100
AcDb2dVertex
 10
1018.976013
 20
364.029755
 30
0.0
  0
VERTEX
  5
369
100
AcDbEntity
  8
0
370
     0
390
0
100
AcDbVertex
100
AcDb2dVertex
 10
1019.75769
 20
365.393005
 30
0.0
  0
VERTEX
  5
36A
100
AcDbEntity
  8
0
370
     0
390
0
100
AcDbVertex
100
AcDb2dVertex
 10
1020.540222
 20
366.764404
 30
0.0
  0
VERTEX
  5
36B
100
AcDbEntity
  8
0
370
     0
390
0
100
AcDbVertex
100
AcDb2dVertex
 10
1020.979553
 20
367.535889
 30
0.0
  0
VERTEX
  5
36C
100
AcDbEntity
  8
0
370
     0
390
0
100
AcDbVertex
100
AcDb2dVertex
 10
1021.21637
 20
367.907379
 30
0.0
  0
VERTEX
  5
36D
100
AcDbEntity
  8
0
370
     0
390
0
100
AcDbVertex
100
AcDb2dVertex
 10
1021.408081
 20
368.17334
 30
0.0
  0
VERTEX
  5
36E
100
AcDbEntity
  8
0
370
     0
390
0
100
AcDbVertex
100
AcDb2dVertex
 10
1021.615662
 20
368.424744
 30
0.0
  0
VERTEX
  5
36F
100
AcDbEntity
  8
0
370
     0
390
0
100
AcDbVertex
100
AcDb2dVertex
 10
1021.966248
 20
368.774933
 30
0.0
  0
SEQEND
  5
370
100
AcDbEntity
  8
0
370
     0
390
0
  0
ARC
  5
371
100
AcDbEntity
  8
0
370
    35
390
0
 62
     7
100
AcDbCircle
 10
1020.632446
 20
370.265228
 30
0.0
 40
2.0
210
0.0
220
0.0
230
1.0
100
AcDbArc
 50
311.828578
 51
354.020154
  0
CIRCLE
  5
372
100
AcDbEntity
  8
0
370
    35
390
0
 62
     7
100
AcDbCircle
 10
1029.583496
 20
369.327606
 30
0.0
 40
3.94
210
0.0
220
0.0
230
1.0
  0
CIRCLE
  5
373
100
AcDbEntity
  8
0
370
    35
390
0
 62
     7
100
AcDbCircle
 10
1020.066101
 20
351.218414
 30
0.0
 40
1.5
210
0.0
220
0.0
230
1.0
  0
ENDSEC
  0
SECTION
  2
OBJECTS
  0
DICTIONARY
  5
19
100
AcDbDictionary
280
     0
281
     1
  3
ACAD_GROUP
350
1A
  3
ACAD_MLINESTYLE
350
1B
  3
ACAD_LAYOUT
350
1E
  3
ACAD_PLOTSETTINGS
350
22
  3
ACAD_PLOTSTYLENAME
350
1F
  3
ACAD_WIPEOUT_VARS
350
23
  0
DICTIONARY
  5
1A
102
{ACAD_REACTORS
330
19
102
}
100
AcDbDictionary
280
     0
281
     1
  0
DICTIONARY
  5
1B
102
{ACAD_REACTORS
330
19
102
}
100
AcDbDictionary
280
     0
281
     1
  3
Standard
350
1C
  0
MLINESTYLE
  5
1C
102
{ACAD_REACTORS
330
1B
102
}
100
AcDbMlineStyle
  2
Standard
 70
     0
  3

 62
     0
 51
90.0
 52
90.0
 71
     2
 49
0.5
 62
   256
  6
ByLayer
 49
-0.5
 62
   256
  6
ByLayer
  0
ACDBDICTIONARYWDFLT
  5
1F
102
{ACAD_REACTORS
330
19
102
}
100
AcDbDictionary
281
     1
  3
Normal
350
1D
100
AcDbDictionaryWithDefault
340
1D
  0
ACDBPLACEHOLDER
  5
1D
102
{ACAD_REACTORS
330
1F
102
}
  0
LAYOUT
  5
20
102
{ACAD_REACTORS
330
1E
102
}
100
AcDbPlotSettings
  1

  2

  4

  6

 40
0.0
 41
0.0
 42
0.0
 43
0.0
 44
0.0
 45
0.0
 46
0.0
 47
0.0
 48
0.0
 49
0.0
140
0.0
141
0.0
142
1.0
143
1.0
 70
  1024
 72
     0
 73
     0
 74
     0
  7

 75
     0
147
1.0
148
0.0
149
0.0
100
AcDbLayout
  1
Model
 70
     0
 71
     0
 10
0.0
 20
0.0
 11
0.0
 21
0.0
 12
0.0
 22
0.0
 32
0.0
 14
0.0
 24
0.0
 34
0.0
 15
0.0
 25
0.0
 35
0.0
146
0.0
 13
0.0
 23
0.0
 33
0.0
 16
0.0
 26
0.0
 36
0.0
 17
0.0
 27
0.0
 37
0.0
 76
     0
330
A
331
0
345
0
346
0
  0
LAYOUT
  5
21
102
{ACAD_REACTORS
330
1E
102
}
100
AcDbPlotSettings
  1

  2

  4

  6

 40
0.0
 41
0.0
 42
0.0
 43
0.0
 44
0.0
 45
0.0
 46
0.0
 47
0.0
 48
0.0
 49
0.0
140
0.0
141
0.0
142
1.0
143
1.0
 70
     0
 72
     0
 73
     0
 74
     0
  7

 75
     0
147
1.0
148
0.0
149
0.0
100
AcDbLayout
  1
Layout1
 70
     0
 71
     0
 10
0.0
 20
0.0
 11
0.0
 21
0.0
 12
0.0
 22
0.0
 32
0.0
 14
0.0
 24
0.0
 34
0.0
 15
0.0
 25
0.0
 35
0.0
146
0.0
 13
0.0
 23
0.0
 33
0.0
 16
0.0
 26
0.0
 36
0.0
 17
0.0
 27
0.0
 37
0.0
 76
     0
330
B
331
0
345
0
346
0
  0
DICTIONARY
  5
1E
102
{ACAD_REACTORS
330
19
102
}
100
AcDbDictionary
280
     0
281
     1
  3
Layout1
350
21
  3
Model
350
20
  0
DICTIONARY
  5
22
102
{ACAD_REACTORS
330
19
102
}
100
AcDbDictionary
280
     0
281
     1
  0
WIPEOUTVARIABLES
  5
23
100
AcDbWipeoutVariables
 70
     1
  0
ENDSEC
  0
EOF
