  0
SECTION
  2
HEADER
  9
$ACADVER
  1
AC1015
  9
$ACADMAINTVER
 70
     6
  9
$DWGCODEPAGE
  3
ANSI_1252
  9
$INSBASE
 10
0.0
 20
0.0
 30
0.0
  9
$EXTMIN
 10
0.0
 20
0.0
 30
0.0
  9
$EXTMAX
 10
1083.428223
 20
365.625
 30
2.0
  9
$LIMMIN
 10
0.0
 20
0.0
  9
$LIMMAX
 10
420.0
 20
297.0
  9
$ORTHOMODE
 70
     0
  9
$REGENMODE
 70
     1
  9
$FILLMODE
 70
     1
  9
$QTEXTMODE
 70
     0
  9
$MIRRTEXT
 70
     1
  9
$LTSCALE
 40
1.0
  9
$ATTMODE
 70
     1
  9
$TEXTSIZE
 40
2.5
  9
$TRACEWID
 40
1.0
  9
$TEXTSTYLE
  7
Standard
  9
$CLAYER
  8
0
  9
$CELTYPE
  6
ByLayer
  9
$CECOLOR
 62
   256
  9
$CELTSCALE
 40
1.0
  9
$DISPSILH
 70
     0
  9
$DIMSCALE
 40
1.0
  9
$DIMASZ
 40
2.5
  9
$DIMEXO
 40
0.625
  9
$DIMDLI
 40
3.75
  9
$DIMRND
 40
0.0
  9
$DIMDLE
 40
0.0
  9
$DIMEXE
 40
1.25
  9
$DIMTP
 40
0.0
  9
$DIMTM
 40
0.0
  9
$DIMTXT
 40
2.5
  9
$DIMCEN
 40
2.5
  9
$DIMTSZ
 40
0.0
  9
$DIMTOL
 70
     0
  9
$DIMLIM
 70
     0
  9
$DIMTIH
 70
     0
  9
$DIMTOH
 70
     0
  9
$DIMSE1
 70
     0
  9
$DIMSE2
 70
     0
  9
$DIMTAD
 70
     1
  9
$DIMZIN
 70
     8
  9
$DIMBLK
  1

  9
$DIMASO
 70
     1
  9
$DIMSHO
 70
     1
  9
$DIMPOST
  1

  9
$DIMAPOST
  1

  9
$DIMALT
 70
     0
  9
$DIMALTD
 70
     3
  9
$DIMALTF
 40
0.03937
  9
$DIMLFAC
 40
1.0
  9
$DIMTOFL
 70
     1
  9
$DIMTVP
 40
0.0
  9
$DIMTIX
 70
     0
  9
$DIMSOXD
 70
     0
  9
$DIMSAH
 70
     0
  9
$DIMBLK1
  1

  9
$DIMBLK2
  1

  9
$DIMSTYLE
  2

  9
$DIMCLRD
 70
     0
  9
$DIMCLRE
 70
     0
  9
$DIMCLRT
 70
     0
  9
$DIMTFAC
 40
1.0
  9
$DIMGAP
 40
0.625
  9
$DIMJUST
 70
     0
  9
$DIMSD1
 70
     0
  9
$DIMSD2
 70
     0
  9
$DIMTOLJ
 70
     0
  9
$DIMTZIN
 70
     8
  9
$DIMALTZ
 70
     0
  9
$DIMALTTZ
 70
     0
  9
$DIMUPT
 70
     0
  9
$DIMDEC
 70
     2
  9
$DIMTDEC
 70
     2
  9
$DIMALTU
 70
     2
  9
$DIMALTTD
 70
     3
  9
$DIMTXSTY
  7
Standard
  9
$DIMAUNIT
 70
     0
  9
$DIMADEC
 70
     0
  9
$DIMALTRND
 40
0.0
  9
$DIMAZIN
 70
     0
  9
$DIMDSEP
 70
    44
  9
$DIMATFIT
 70
     0
  9
$DIMFRAC
 70
     0
  9
$DIMLDRBLK
  1

  9
$DIMLUNIT
 70
     2
  9
$DIMLWD
 70
    -2
  9
$DIMLWE
 70
    -2
  9
$DIMTMOVE
 70
     0
  9
$LUNITS
 70
     2
  9
$LUPREC
 70
     4
  9
$SKETCHINC
 40
1.0
  9
$FILLETRAD
 40
2.5
  9
$AUNITS
 70
     0
  9
$AUPREC
 70
     0
  9
$MENU
  1
.
  9
$ELEVATION
 40
0.0
  9
$PELEVATION
 40
0.0
  9
$THICKNESS
 40
0.0
  9
$LIMCHECK
 70
     0
  9
$CHAMFERA
 40
2.5
  9
$CHAMFERB
 40
2.5
  9
$CHAMFERC
 40
0.0
  9
$CHAMFERD
 40
0.0
  9
$SKPOLY
 70
     0
  9
$TDCREATE
 40
0.000000000
  9
$TDUCREATE
 40
0.000000000
  9
$TDUPDATE
 40
0.000000000
  9
$TDUUPDATE
 40
0.000000000
  9
$TDINDWG
 40
0.0000000000
  9
$TDUSRTIMER
 40
0.0000000000
  9
$USRTIMER
 70
     1
  9
$ANGBASE
 50
0.0
  9
$ANGDIR
 70
     0
  9
$PDMODE
 70
     0
  9
$PDSIZE
 40
0.0
  9
$PLINEWID
 40
0.0
  9
$SPLFRAME
 70
     0
  9
$SPLINETYPE
 70
     6
  9
$SPLINESEGS
 70
     8
  9
$HANDSEED
  5
16F
  9
$SURFTAB1
 70
     6
  9
$SURFTAB2
 70
     6
  9
$SURFTYPE
 70
     6
  9
$SURFU
 70
     6
  9
$SURFV
 70
     6
  9
$UCSBASE
  2

  9
$UCSNAME
  2

  9
$UCSORG
 10
0.0
 20
0.0
 30
0.0
  9
$UCSXDIR
 10
1.0
 20
0.0
 30
0.0
  9
$UCSYDIR
 10
0.0
 20
1.0
 30
0.0
  9
$UCSORTHOREF
  2

  9
$UCSORTHOVIEW
 70
     1
  9
$UCSORGTOP
 10
0.0
 20
0.0
 30
0.0
  9
$UCSORGBOTTOM
 10
0.0
 20
0.0
 30
0.0
  9
$UCSORGLEFT
 10
0.0
 20
0.0
 30
0.0
  9
$UCSORGRIGHT
 10
0.0
 20
0.0
 30
0.0
  9
$UCSORGFRONT
 10
0.0
 20
0.0
 30
0.0
  9
$UCSORGBACK
 10
0.0
 20
0.0
 30
0.0
  9
$PUCSBASE
  2

  9
$PUCSNAME
  2

  9
$PUCSORG
 10
0.0
 20
0.0
 30
0.0
  9
$PUCSXDIR
 10
1.0
 20
0.0
 30
0.0
  9
$PUCSYDIR
 10
0.0
 20
1.0
 30
0.0
  9
$PUCSORTHOREF
  2

  9
$PUCSORTHOVIEW
 70
     0
  9
$PUCSORGTOP
 10
0.0
 20
0.0
 30
0.0
  9
$PUCSORGBOTTOM
 10
0.0
 20
0.0
 30
0.0
  9
$PUCSORGLEFT
 10
0.0
 20
0.0
 30
0.0
  9
$PUCSORGRIGHT
 10
0.0
 20
0.0
 30
0.0
  9
$PUCSORGFRONT
 10
0.0
 20
0.0
 30
0.0
  9
$PUCSORGBACK
 10
0.0
 20
0.0
 30
0.0
  9
$USERI1
 70
     0
  9
$USERI2
 70
     0
  9
$USERI3
 70
     0
  9
$USERI4
 70
     0
  9
$USERI5
 70
     0
  9
$USERR1
 40
0.0
  9
$USERR2
 40
0.0
  9
$USERR3
 40
0.0
  9
$USERR4
 40
0.0
  9
$USERR5
 40
0.0
  9
$WORLDVIEW
 70
     1
  9
$SHADEDGE
 70
     3
  9
$SHADEDIF
 70
    70
  9
$TILEMODE
 70
     1
  9
$MAXACTVP
 70
    48
  9
$PINSBASE
 10
0.0
 20
0.0
 30
0.0
  9
$PLIMCHECK
 70
     0
  9
$PEXTMIN
 10
0.0
 20
0.0
 30
0.0
  9
$PEXTMAX
 10
1083.428223
 20
365.625
 30
2.0
  9
$PLIMMIN
 10
0.0
 20
0.0
  9
$PLIMMAX
 10
420.0
 20
297.0
  9
$UNITMODE
 70
     0
  9
$VISRETAIN
 70
     0
  9
$PLINEGEN
 70
     0
  9
$PSLTSCALE
 70
     1
  9
$TREEDEPTH
 70
  3020
  9
$CMLSTYLE
  2
Standard
  9
$CMLJUST
 70
     0
  9
$CMLSCALE
 40
20.0
  9
$PROXYGRAPHICS
 70
     1
  9
$MEASUREMENT
 70
     1
  9
$CELWEIGHT
370
    -1
  9
$ENDCAPS
280
     0
  9
$JOINSTYLE
280
     0
  9
$LWDISPLAY
290
     0
  9
$INSUNITS
 70
     0
  9
$HYPERLINKBASE
  1

  9
$STYLESHEET
  1

  9
$XEDIT
290
     1
  9
$CEPSNTYPE
380
     0
  9
$PSTYLEMODE
290
     0
  9
$FINGERPRINTGUID
  2

  9
$VERSIONGUID
  2

  9
$EXTNAMES
290
     0
  9
$PSVPSCALE
 40
0.0
  0
ENDSEC
  0
SECTION
  2
CLASSES
  0
CLASS
  1
LWPOLYLINE
  2
AcDbPolyline
  3
AutoCAD 2000
 90
        0
280
     0
281
     1
  0
CLASS
  1
IMAGE
  2
AcDbRasterImage
  3
ISM
 90
      127
280
     0
281
     1
  0
CLASS
  1
OLE2FRAME
  2
AcDbOle2Frame
  3
AutoCAD 2000
 90
        0
280
     0
281
     1
  0
CLASS
  1
HATCH
  2
AcDbHatch
  3
AutoCAD 2000
 90
        0
280
     0
281
     1
  0
CLASS
  1
DICTIONARYVAR
  2
AcDbDictionaryVar
  3
AutoCAD 2000
 90
        0
280
     0
281
     0
  0
CLASS
  1
RASTERVARIABLES
  2
AcDbRasterVariables
  3
ISM
 90
        0
280
     0
281
     0
  0
CLASS
  1
IMAGEDEF
  2
AcDbRasterImageDef
  3
ISM
 90
        0
280
     0
281
     0
  0
CLASS
  1
IMAGEDEF_REACTOR
  2
AcDbRasterImageDefReactor
  3
ISM
 90
        1
280
     0
281
     0
  0
CLASS
  1
IDBUFFER
  2
AcDbIdBuffer
  3
AutoCAD 2000
 90
        0
280
     0
281
     0
  0
CLASS
  1
SPATIAL_FILTER
  2
AcDbSpatialFilter
  3
AutoCAD 2000
 90
        0
280
     0
281
     0
  0
CLASS
  1
XRECORD
  2
AcDbXrecord
  3
AutoCAD 2000
 90
        0
280
     0
281
     0
  0
CLASS
  1
SORTENTSTABLE
  2
AcDbSortentsTable
  3
AutoCAD 2000
 90
        0
280
     0
281
     0
  0
CLASS
  1
LAYER_INDEX
  2
AcDbLayerIndex
  3
AutoCAD 2000
 90
        0
280
     0
281
     0
  0
CLASS
  1
SPATIAL_INDEX
  2
AcDbSpatialIndex
  3
AutoCAD 2000
 90
        0
280
     0
281
     0
  0
CLASS
  1
OBJECT_PTR
  2
CAseDLPNTableRecord
  3
"ASE-LPNTableRecord"
 90
        1
280
     0
281
     0
  0
CLASS
  1
LAYOUT
  2
AcDbLayout
  3
AutoCAD 2000
 90
        0
280
     0
281
     0
  0
CLASS
  1
PLOTSETTINGS
  2
AcDbPlotSettings
  3
AutoCAD 2000
 90
        0
280
     0
281
     0
  0
CLASS
  1
ACDBDICTIONARYWDFLT
  2
AcDbDictionaryWithDefault
  3
AutoCAD 2000
 90
        0
280
     0
281
     0
  0
CLASS
  1
ACDBPLACEHOLDER
  2
AcDbPlaceHolder
  3
AutoCAD 2000
 90
        0
280
     0
281
     0
  0
CLASS
  1
VBA_PROJECT
  2
AcDbVbaProject
  3
acadvba
 90
        0
280
     0
281
     0
  0
CLASS
  1
WIPEOUT
  2
AcDbWipeout
  3
WipeOut|AutoCAD Express Tool|expresstools@autodesk.com
 90
      127
280
     0
281
     1
  0
CLASS
  1
WIPEOUTVARIABLES
  2
AcDbWipeoutVariables
  3
WipeOut|AutoCAD Express Tool|expresstools@autodesk.com
 90
        0
280
     0
281
     0
  0
CLASS
  1
RTEXT
  2
RText
  3
RText|AutoCAD Express Tool|expresstools@autodesk.com
 90
        0
280
     0
281
     1
  0
CLASS
  1
ARCALIGNEDTEXT
  2
AcDbArcAlignedText
  3
ATEXT|AutoCAD Express Tool|expresstools@autodesk.com
 90
        0
280
     0
281
     1
  0
ENDSEC
  0
SECTION
  2
TABLES
  0
TABLE
  2
VPORT
  5
7
100
AcDbSymbolTable
 70
     1
  0
VPORT
  5
15
100
AcDbSymbolTableRecord
100
AcDbViewportTableRecord
  2
*ACTIVE
 70
     0
 10
0.0
 20
0.0
 11
1.0
 21
1.0
 12
6.591288
 22
4.579184
 13
0.0
 23
0.0
 14
1.0
 24
1.0
 15
0.0
 25
0.0
 16
0.0
 26
0.0
 36
1.0
 17
0.0
 27
0.0
 37
0.0
 40
9.158369
 41
0.688564
 42
50.0
 43
0.0
 44
0.0
 50
0.0
 51
0.0
 71
     0
 72
   100
 73
     1
 74
     1
 75
     0
 76
     0
 77
     0
 78
     0
281
     0
 65
     0
110
0.0
120
0.0
130
0.0
111
1.0
121
0.0
131
0.0
112
0.0
122
1.0
132
0.0
345
0
346
0
 79
     0
146
0.0
  0
ENDTAB
  0
TABLE
  2
LTYPE
  5
4
100
AcDbSymbolTable
 70
     3
  0
LTYPE
  5
11
100
AcDbSymbolTableRecord
100
AcDbLinetypeTableRecord
  2
ByBlock
 70
    64
  3

 72
    65
 73
     0
 40
0.0
  0
LTYPE
  5
12
100
AcDbSymbolTableRecord
100
AcDbLinetypeTableRecord
  2
ByLayer
 70
    64
  3

 72
    65
 73
     0
 40
0.0
  0
LTYPE
  5
13
100
AcDbSymbolTableRecord
100
AcDbLinetypeTableRecord
  2
Continuous
 70
    64
  3
Solid line
 72
    65
 73
     0
 40
0.0
  0
ENDTAB
  0
TABLE
  2
LAYER
  5
2
100
AcDbSymbolTable
 70
     1
  0
LAYER
  5
14
100
AcDbSymbolTableRecord
100
AcDbLayerTableRecord
  2
0
 70
     0
 62
     7
  6
Continuous
290
     1
370
    -3
390
1D
  0
ENDTAB
  0
TABLE
  2
STYLE
  5
3
100
AcDbSymbolTable
 70
     1
  0
STYLE
  5
17
100
AcDbSymbolTableRecord
100
AcDbTextStyleTableRecord
  2
Standard
 70
     0
 40
0.0
 41
1.0
 50
0.0
 71
     0
 42
0.0
  3
txt
  4

  0
ENDTAB
  0
TABLE
  2
VIEW
  5
5
100
AcDbSymbolTable
 70
     0
  0
ENDTAB
  0
TABLE
  2
UCS
  5
6
100
AcDbSymbolTable
 70
     0
  0
ENDTAB
  0
TABLE
  2
APPID
  5
8
100
AcDbSymbolTable
 70
     1
  0
APPID
  5
16
100
AcDbSymbolTableRecord
100
AcDbRegAppTableRecord
  2
ACAD
 70
     0
  0
ENDTAB
  0
TABLE
  2
DIMSTYLE
  5
9
100
AcDbSymbolTable
 70
     1
100
AcDbDimStyleTable
 71
     0
  0
DIMSTYLE
105
18
100
AcDbSymbolTableRecord
100
AcDbDimStyleTableRecord
  2
Standard
 70
     0
  3

  4

 40
1.0
 41
0.18
 42
0.0625
 43
0.38
 44
0.18
 45
0.0
 46
0.0
 47
0.0
 48
0.0
 71
     0
 72
     0
 73
     1
 74
     1
 75
     0
 76
     0
 77
     0
 78
     0
 79
     0
140
0.18
141
0.09
142
0.0
143
25.4
144
1.0
145
0.0
146
1.0
147
0.09
148
0.0
170
     0
171
     2
172
     0
173
     0
174
     0
175
     0
176
     0
177
     0
178
     0
179
     0
271
     4
272
     4
273
     2
274
     2
275
     0
276
     0
277
     2
278
    46
279
     0
280
     0
281
     0
282
     0
283
     1
284
     0
285
     0
286
     0
288
     0
289
     3
340
17
341
0
342
0
343
0
344
0
371
    -2
372
    -2
  0
ENDTAB
  0
TABLE
  2
BLOCK_RECORD
  5
1
100
AcDbSymbolTable
 70
     0
  0
BLOCK_RECORD
  5
A
100
AcDbSymbolTableRecord
100
AcDbBlockTableRecord
  2
*MODEL_SPACE
340
20
  0
BLOCK_RECORD
  5
B
100
AcDbSymbolTableRecord
100
AcDbBlockTableRecord
  2
*PAPER_SPACE
340
21
  0
ENDTAB
  0
ENDSEC
  0
SECTION
  2
BLOCKS
  0
BLOCK
  5
D
100
AcDbEntity
  8
0
390
0
100
AcDbBlockBegin
  2
*MODEL_SPACE
 70
     0
 10
0.0
 20
0.0
 30
0.0
  3
*MODEL_SPACE
  1

  0
ENDBLK
  5
E
100
AcDbEntity
  8
0
390
0
100
AcDbBlockEnd
  0
BLOCK
  5
F
100
AcDbEntity
 67
     1
  8
0
390
0
100
AcDbBlockBegin
  2
*PAPER_SPACE
 70
     0
 10
0.0
 20
0.0
 30
0.0
  3
*PAPER_SPACE
  1

  0
ENDBLK
  5
10
100
AcDbEntity
 67
     1
  8
0
390
0
100
AcDbBlockEnd
  0
ENDSEC
  0
SECTION
  2
ENTITIES
  0
VIEWPORT
  5
16E
100
AcDbEntity
 67
     1
  8
0
370
     0
390
0
 62
     0
 48
0.0
100
AcDbViewport
 10
0.0
 20
0.0
 30
0.0
 40
1000.0
 41
1000.0
 68
     1
 69
     1
 12
0.0
 22
0.0
 13
0.0
 23
0.0
 14
1.0
 24
1.0
 15
1.0
 25
1.0
 16
0.0
 26
0.0
 36
1.0
 17
0.0
 27
0.0
 37
0.0
 42
50.0
 43
0.0
 44
0.0
 45
1000.0
 50
0.0
 51
0.0
 72
   100
 90
        0
340
0
  1

281
     0
 71
     0
 74
     1
110
0.0
120
0.0
130
0.0
111
1.0
121
0.0
131
0.0
112
0.0
122
1.0
132
0.0
345
0
346
0
 79
     0
146
0.0
  0
CIRCLE
  5
24
100
AcDbEntity
  8
0
370
    35
390
0
 62
     7
100
AcDbCircle
 10
413.409149
 20
297.0
 30
0.0
 40
1.5
210
0.0
220
0.0
230
1.0
  0
LINE
  5
25
100
AcDbEntity
  8
0
370
    35
390
0
 62
     7
 48
0.075
100
AcDbLine
 10
450.409149
 20
277.0
 30
0.0
 11
453.409149
 21
277.0
 31
0.0
210
0.0
220
0.0
230
1.0
  0
ARC
  5
26
100
AcDbEntity
  8
0
370
    35
390
0
 62
     7
100
AcDbCircle
 10
453.409149
 20
272.0
 30
0.0
 40
5.0
210
0.0
220
0.0
230
1.0
100
AcDbArc
 50
269.999997
 51
90.000003
  0
LINE
  5
27
100
AcDbEntity
  8
0
370
    35
390
0
 62
     7
 48
0.075
100
AcDbLine
 10
453.409149
 20
267.0
 30
0.0
 11
450.409149
 21
267.0
 31
0.0
210
0.0
220
0.0
230
1.0
  0
LINE
  5
28
100
AcDbEntity
  8
0
370
    35
390
0
 62
     7
 48
0.0875
100
AcDbLine
 10
382.409149
 20
244.0
 30
0.0
 11
385.909149
 21
244.0
 31
0.0
210
0.0
220
0.0
230
1.0
  0
LINE
  5
29
100
AcDbEntity
  8
0
370
    35
390
0
 62
     7
100
AcDbLine
 10
382.409149
 20
350.0
 30
0.0
 11
382.409149
 21
244.0
 31
0.0
210
0.0
220
0.0
230
1.0
  0
LINE
  5
2A
100
AcDbEntity
  8
0
370
    35
390
0
 62
     7
 48
0.0875
100
AcDbLine
 10
385.909149
 20
350.0
 30
0.0
 11
382.409149
 21
350.0
 31
0.0
210
0.0
220
0.0
230
1.0
  0
LINE
  5
2B
100
AcDbEntity
  8
0
370
    35
390
0
 62
     7
 48
0.075
100
AcDbLine
 10
453.409149
 20
327.0
 30
0.0
 11
450.409149
 21
327.0
 31
0.0
210
0.0
220
0.0
230
1.0
  0
ARC
  5
2C
100
AcDbEntity
  8
0
370
    35
390
0
 62
     7
100
AcDbCircle
 10
453.409149
 20
322.0
 30
0.0
 40
5.0
210
0.0
220
0.0
230
1.0
100
AcDbArc
 50
269.999997
 51
90.000003
  0
LINE
  5
2D
100
AcDbEntity
  8
0
370
    35
390
0
 62
     7
 48
0.075
100
AcDbLine
 10
450.409149
 20
317.0
 30
0.0
 11
453.409149
 21
317.0
 31
0.0
210
0.0
220
0.0
230
1.0
  0
CIRCLE
  5
2E
100
AcDbEntity
  8
0
370
    35
390
0
 62
     7
100
AcDbCircle
 10
414.909149
 20
274.75
 30
0.0
 40
1.75
210
0.0
220
0.0
230
1.0
  0
CIRCLE
  5
2F
100
AcDbEntity
  8
0
370
    35
390
0
 62
     7
100
AcDbCircle
 10
414.909149
 20
319.25
 30
0.0
 40
1.75
210
0.0
220
0.0
230
1.0
  0
CIRCLE
  5
30
100
AcDbEntity
  8
0
370
    35
390
0
 62
     7
100
AcDbCircle
 10
393.409149
 20
297.0
 30
0.0
 40
1.6
210
0.0
220
0.0
230
1.0
  0
CIRCLE
  5
31
100
AcDbEntity
  8
0
370
    35
390
0
 62
     7
100
AcDbCircle
 10
435.409149
 20
297.0
 30
0.0
 40
1.6
210
0.0
220
0.0
230
1.0
  0
CIRCLE
  5
32
100
AcDbEntity
  8
0
370
    35
390
0
 62
     7
100
AcDbCircle
 10
453.409149
 20
322.0
 30
0.0
 40
0.75
210
0.0
220
0.0
230
1.0
  0
CIRCLE
  5
33
100
AcDbEntity
  8
0
370
    35
390
0
 62
     7
100
AcDbCircle
 10
453.409149
 20
272.0
 30
0.0
 40
0.75
210
0.0
220
0.0
230
1.0
  0
ARC
  5
34
100
AcDbEntity
  8
0
370
    35
390
0
 62
     7
100
AcDbCircle
 10
444.909149
 20
336.100006
 30
0.0
 40
5.5
210
0.0
220
0.0
230
1.0
100
AcDbArc
 50
360.0
 51
90.000003
  0
ARC
  5
35
100
AcDbEntity
  8
0
370
    35
390
0
 62
     7
100
AcDbCircle
 10
444.909149
 20
257.899994
 30
0.0
 40
5.5
210
0.0
220
0.0
230
1.0
100
AcDbArc
 50
269.999997
 51
360.0
  0
LINE
  5
36
100
AcDbEntity
  8
0
370
    35
390
0
 62
     7
 48
0.2275
100
AcDbLine
 10
450.409149
 20
327.0
 30
0.0
 11
450.409149
 21
336.100006
 31
0.0
210
0.0
220
0.0
230
1.0
  0
LINE
  5
37
100
AcDbEntity
  8
0
370
    35
390
0
 62
     7
 48
0.2275
100
AcDbLine
 10
450.409149
 20
257.899994
 30
0.0
 11
450.409149
 21
267.0
 31
0.0
210
0.0
220
0.0
230
1.0
  0
LINE
  5
38
100
AcDbEntity
  8
0
370
    35
390
0
 62
     7
 48
0.21
100
AcDbLine
 10
385.909149
 20
341.600006
 30
0.0
 11
385.909149
 21
350.0
 31
0.0
210
0.0
220
0.0
230
1.0
  0
LINE
  5
39
100
AcDbEntity
  8
0
370
    35
390
0
 62
     7
 48
0.21
100
AcDbLine
 10
385.909149
 20
244.0
 30
0.0
 11
385.909149
 21
252.399994
 31
0.0
210
0.0
220
0.0
230
1.0
  0
LINE
  5
3A
100
AcDbEntity
  8
0
370
    35
390
0
 62
     7
100
AcDbLine
 10
444.909149
 20
341.600006
 30
0.0
 11
385.909149
 21
341.600006
 31
0.0
210
0.0
220
0.0
230
1.0
  0
LINE
  5
3B
100
AcDbEntity
  8
0
370
    35
390
0
 62
     7
100
AcDbLine
 10
385.909149
 20
252.399994
 30
0.0
 11
444.909149
 21
252.399994
 31
0.0
210
0.0
220
0.0
230
1.0
  0
ARC
  5
3C
100
AcDbEntity
  8
0
370
    35
390
0
 62
     7
100
AcDbCircle
 10
445.409149
 20
285.802429
 30
0.0
 40
5.0
210
0.0
220
0.0
230
1.0
100
AcDbArc
 50
0.0
 51
65.821044
  0
ARC
  5
3D
100
AcDbEntity
  8
0
370
    35
390
0
 62
     7
100
AcDbCircle
 10
450.408752
 20
296.937988
 30
0.0
 40
7.206434
210
0.0
220
0.0
230
1.0
100
AcDbArc
 50
179.507043
 51
245.821046
  0
ARC
  5
3E
100
AcDbEntity
  8
0
370
    35
390
0
 62
     7
100
AcDbCircle
 10
450.409149
 20
297.0
 30
0.0
 40
7.206434
210
0.0
220
0.0
230
1.0
100
AcDbArc
 50
114.180969
 51
179.999995
  0
ARC
  5
3F
100
AcDbEntity
  8
0
370
    35
390
0
 62
     7
100
AcDbCircle
 10
445.409149
 20
308.135406
 30
0.0
 40
5.0
210
0.0
220
0.0
230
1.0
100
AcDbArc
 50
294.180971
 51
0.0
  0
LINE
  5
40
100
AcDbEntity
  8
0
370
    35
390
0
 62
     7
 48
0.221615
100
AcDbLine
 10
450.409149
 20
317.0
 30
0.0
 11
450.409149
 21
308.135406
 31
0.0
210
0.0
220
0.0
230
1.0
  0
LINE
  5
41
100
AcDbEntity
  8
0
370
    35
390
0
 62
     7
 48
0.220061
100
AcDbLine
 10
450.409149
 20
285.802429
 30
0.0
 11
450.409149
 21
277.0
 31
0.0
210
0.0
220
0.0
230
1.0
  0
LINE
  5
42
100
AcDbEntity
  8
0
370
    35
390
0
 62
     7
 48
0.06
100
AcDbLine
 10
525.962585
 20
302.818085
 30
0.0
 11
525.962585
 21
300.418091
 31
0.0
210
0.0
220
0.0
230
1.0
  0
ARC
  5
43
100
AcDbEntity
  8
0
370
    35
390
0
 62
     7
100
AcDbCircle
 10
525.362549
 20
300.418091
 30
0.0
 40
0.6
210
0.0
220
0.0
230
1.0
100
AcDbArc
 50
269.999997
 51
360.0
  0
LINE
  5
44
100
AcDbEntity
  8
0
370
    35
390
0
 62
     7
 48
0.146249
100
AcDbLine
 10
525.962585
 20
302.818085
 30
0.0
 11
531.812561
 21
302.818085
 31
0.0
210
0.0
220
0.0
230
1.0
  0
ARC
  5
45
100
AcDbEntity
  8
0
370
    35
390
0
 62
     7
100
AcDbCircle
 10
521.262573
 20
300.418091
 30
0.0
 40
0.6
210
0.0
220
0.0
230
1.0
100
AcDbArc
 50
180.000005
 51
269.999997
  0
LINE
  5
46
100
AcDbEntity
  8
0
370
    35
390
0
 62
     7
 48
0.06
100
AcDbLine
 10
520.662537
 20
300.418091
 30
0.0
 11
520.662537
 21
302.818085
 31
0.0
210
0.0
220
0.0
230
1.0
  0
LINE
  5
47
100
AcDbEntity
  8
0
370
    35
390
0
 62
     7
 48
0.133749
100
AcDbLine
 10
515.312561
 20
302.818085
 30
0.0
 11
520.662537
 21
302.818085
 31
0.0
210
0.0
220
0.0
230
1.0
  0
LINE
  5
48
100
AcDbEntity
  8
0
370
    35
390
0
 62
     7
 48
0.420834
100
AcDbLine
 10
515.312561
 20
302.818085
 30
0.0
 11
509.853088
 21
318.741516
 31
0.0
210
0.0
220
0.0
230
1.0
  0
ARC
  5
49
100
AcDbEntity
  8
0
370
    35
390
0
 62
     7
100
AcDbCircle
 10
519.312561
 20
321.984741
 30
0.0
 40
10.0
210
0.0
220
0.0
230
1.0
100
AcDbArc
 50
180.000005
 51
198.924646
  0
LINE
  5
4A
100
AcDbEntity
  8
0
370
    35
390
0
 62
     7
 48
0.145834
100
AcDbLine
 10
509.312561
 20
327.818085
 30
0.0
 11
509.312561
 21
321.984741
 31
0.0
210
0.0
220
0.0
230
1.0
  0
ARC
  5
4B
100
AcDbEntity
  8
0
370
    35
390
0
 62
     7
100
AcDbCircle
 10
519.312561
 20
327.818085
 30
0.0
 40
10.0
210
0.0
220
0.0
230
1.0
100
AcDbArc
 50
90.000003
 51
180.000005
  0
LINE
  5
4C
100
AcDbEntity
  8
0
370
    35
390
0
 62
     7
100
AcDbLine
 10
547.312561
 20
337.818085
 30
0.0
 11
519.312561
 21
337.818085
 31
0.0
210
0.0
220
0.0
230
1.0
  0
ARC
  5
4D
100
AcDbEntity
  8
0
370
    35
390
0
 62
     7
100
AcDbCircle
 10
547.312561
 20
327.818085
 30
0.0
 40
10.0
210
0.0
220
0.0
230
1.0
100
AcDbArc
 50
0.0
 51
90.000003
  0
LINE
  5
4E
100
AcDbEntity
  8
0
370
    35
390
0
 62
     7
 48
0.145834
100
AcDbLine
 10
557.312561
 20
321.984741
 30
0.0
 11
557.312561
 21
327.818085
 31
0.0
210
0.0
220
0.0
230
1.0
  0
ARC
  5
4F
100
AcDbEntity
  8
0
370
    35
390
0
 62
     7
100
AcDbCircle
 10
547.312561
 20
321.984741
 30
0.0
 40
10.0
210
0.0
220
0.0
230
1.0
100
AcDbArc
 50
341.075356
 51
360.0
  0
LINE
  5
50
100
AcDbEntity
  8
0
370
    35
390
0
 62
     7
 48
0.420834
100
AcDbLine
 10
556.772034
 20
318.741516
 30
0.0
 11
551.312561
 21
302.818085
 31
0.0
210
0.0
220
0.0
230
1.0
  0
LINE
  5
51
100
AcDbEntity
  8
0
370
    35
390
0
 62
     7
 48
0.133749
100
AcDbLine
 10
545.962585
 20
302.818085
 30
0.0
 11
551.312561
 21
302.818085
 31
0.0
210
0.0
220
0.0
230
1.0
  0
LINE
  5
52
100
AcDbEntity
  8
0
370
    35
390
0
 62
     7
 48
0.06
100
AcDbLine
 10
545.962585
 20
302.818085
 30
0.0
 11
545.962585
 21
300.418091
 31
0.0
210
0.0
220
0.0
230
1.0
  0
ARC
  5
53
100
AcDbEntity
  8
0
370
    35
390
0
 62
     7
100
AcDbCircle
 10
545.362549
 20
300.418091
 30
0.0
 40
0.6
210
0.0
220
0.0
230
1.0
100
AcDbArc
 50
269.999997
 51
360.0
  0
LINE
  5
54
100
AcDbEntity
  8
0
370
    35
390
0
 62
     7
 48
0.102499
100
AcDbLine
 10
545.362549
 20
299.818085
 30
0.0
 11
541.262573
 21
299.818085
 31
0.0
210
0.0
220
0.0
230
1.0
  0
ARC
  5
55
100
AcDbEntity
  8
0
370
    35
390
0
 62
     7
100
AcDbCircle
 10
541.262573
 20
300.418091
 30
0.0
 40
0.6
210
0.0
220
0.0
230
1.0
100
AcDbArc
 50
180.000005
 51
269.999997
  0
LINE
  5
56
100
AcDbEntity
  8
0
370
    35
390
0
 62
     7
 48
0.06
100
AcDbLine
 10
540.662537
 20
300.418091
 30
0.0
 11
540.662537
 21
302.818085
 31
0.0
210
0.0
220
0.0
230
1.0
  0
LINE
  5
57
100
AcDbEntity
  8
0
370
    35
390
0
 62
     7
 48
0.146249
100
AcDbLine
 10
534.812561
 20
302.818085
 30
0.0
 11
540.662537
 21
302.818085
 31
0.0
210
0.0
220
0.0
230
1.0
  0
LINE
  5
58
100
AcDbEntity
  8
0
370
    35
390
0
 62
     7
 48
0.05
100
AcDbLine
 10
534.812561
 20
304.818085
 30
0.0
 11
534.812561
 21
302.818085
 31
0.0
210
0.0
220
0.0
230
1.0
  0
LINE
  5
59
100
AcDbEntity
  8
0
370
    35
390
0
 62
     7
 48
0.03
100
AcDbLine
 10
536.012573
 20
304.818085
 30
0.0
 11
534.812561
 21
304.818085
 31
0.0
210
0.0
220
0.0
230
1.0
  0
LINE
  5
5A
100
AcDbEntity
  8
0
370
    35
390
0
 62
     7
 48
0.06
100
AcDbLine
 10
536.012573
 20
307.218079
 30
0.0
 11
536.012573
 21
304.818085
 31
0.0
210
0.0
220
0.0
230
1.0
  0
LINE
  5
5B
100
AcDbEntity
  8
0
370
    35
390
0
 62
     7
 48
0.03
100
AcDbLine
 10
536.012573
 20
307.218079
 30
0.0
 11
534.812561
 21
307.218079
 31
0.0
210
0.0
220
0.0
230
1.0
  0
LINE
  5
5C
100
AcDbEntity
  8
0
370
    35
390
0
 62
     7
 48
0.09
100
AcDbLine
 10
534.812561
 20
310.818085
 30
0.0
 11
534.812561
 21
307.218079
 31
0.0
210
0.0
220
0.0
230
1.0
  0
LINE
  5
5D
100
AcDbEntity
  8
0
370
    35
390
0
 62
     7
 48
0.075
100
AcDbLine
 10
534.812561
 20
310.818085
 30
0.0
 11
531.812561
 21
310.818085
 31
0.0
210
0.0
220
0.0
230
1.0
  0
LINE
  5
5E
100
AcDbEntity
  8
0
370
    35
390
0
 62
     7
 48
0.09
100
AcDbLine
 10
531.812561
 20
310.818085
 30
0.0
 11
531.812561
 21
307.218079
 31
0.0
210
0.0
220
0.0
230
1.0
  0
LINE
  5
5F
100
AcDbEntity
  8
0
370
    35
390
0
 62
     7
 48
0.03
100
AcDbLine
 10
531.812561
 20
307.218079
 30
0.0
 11
530.612549
 21
307.218079
 31
0.0
210
0.0
220
0.0
230
1.0
  0
LINE
  5
60
100
AcDbEntity
  8
0
370
    35
390
0
 62
     7
 48
0.06
100
AcDbLine
 10
530.612549
 20
307.218079
 30
0.0
 11
530.612549
 21
304.818085
 31
0.0
210
0.0
220
0.0
230
1.0
  0
LINE
  5
61
100
AcDbEntity
  8
0
370
    35
390
0
 62
     7
 48
0.03
100
AcDbLine
 10
531.812561
 20
304.818085
 30
0.0
 11
530.612549
 21
304.818085
 31
0.0
210
0.0
220
0.0
230
1.0
  0
LINE
  5
62
100
AcDbEntity
  8
0
370
    35
390
0
 62
     7
 48
0.05
100
AcDbLine
 10
531.812561
 20
304.818085
 30
0.0
 11
531.812561
 21
302.818085
 31
0.0
210
0.0
220
0.0
230
1.0
  0
LINE
  5
63
100
AcDbEntity
  8
0
370
    35
390
0
 62
     7
 48
0.102499
100
AcDbLine
 10
525.362549
 20
299.818085
 30
0.0
 11
521.262573
 21
299.818085
 31
0.0
210
0.0
220
0.0
230
1.0
  0
CIRCLE
  5
64
100
AcDbEntity
  8
0
370
    35
390
0
 62
     7
100
AcDbCircle
 10
546.062561
 20
326.318085
 30
0.0
 40
8.0
210
0.0
220
0.0
230
1.0
  0
CIRCLE
  5
65
100
AcDbEntity
  8
0
370
    35
390
0
 62
     7
100
AcDbCircle
 10
520.562561
 20
326.318085
 30
0.0
 40
8.0
210
0.0
220
0.0
230
1.0
  0
ARC
  5
66
100
AcDbEntity
  8
0
370
    35
390
0
 62
     7
100
AcDbCircle
 10
606.16687
 20
337.669983
 30
0.0
 40
2.5
210
0.0
220
0.0
230
1.0
100
AcDbArc
 50
90.000003
 51
269.999997
  0
LINE
  5
67
100
AcDbEntity
  8
0
370
    35
390
0
 62
     7
 48
0.106601
100
AcDbLine
 10
610.430908
 20
335.169983
 30
0.0
 11
606.16687
 21
335.169983
 31
0.0
210
0.0
220
0.0
230
1.0
  0
ARC
  5
68
100
AcDbEntity
  8
0
370
    35
390
0
 62
     7
100
AcDbCircle
 10
610.430908
 20
334.169983
 30
0.0
 40
1.0
210
0.0
220
0.0
230
1.0
100
AcDbArc
 50
0.0
 51
90.000003
  0
ARC
  5
69
100
AcDbEntity
  8
0
370
    35
390
0
 62
     7
100
AcDbCircle
 10
603.930908
 20
347.169983
 30
0.0
 40
0.5
210
0.0
220
0.0
230
1.0
100
AcDbArc
 50
90.000003
 51
180.000005
  0
ARC
  5
6A
100
AcDbEntity
  8
0
370
    35
390
0
 62
     7
100
AcDbCircle
 10
603.430908
 20
339.669983
 30
0.0
 40
5.0
210
0.0
220
0.0
230
1.0
100
AcDbArc
 50
90.000003
 51
180.000005
  0
ARC
  5
6B
100
AcDbEntity
  8
0
370
    35
390
0
 62
     7
100
AcDbCircle
 10
603.430908
 20
335.669983
 30
0.0
 40
5.0
210
0.0
220
0.0
230
1.0
100
AcDbArc
 50
179.999995
 51
269.999997
  0
ARC
  5
6C
100
AcDbEntity
  8
0
370
    35
390
0
 62
     7
100
AcDbCircle
 10
603.930908
 20
328.169983
 30
0.0
 40
0.5
210
0.0
220
0.0
230
1.0
100
AcDbArc
 50
179.999995
 51
269.999997
  0
ARC
  5
6D
100
AcDbEntity
  8
0
370
    35
390
0
 62
     7
100
AcDbCircle
 10
605.430908
 20
328.169983
 30
0.0
 40
0.5
210
0.0
220
0.0
230
1.0
100
AcDbArc
 50
269.999997
 51
360.0
  0
ARC
  5
6E
100
AcDbEntity
  8
0
370
    35
390
0
 62
     7
100
AcDbCircle
 10
610.430908
 20
331.669983
 30
0.0
 40
1.0
210
0.0
220
0.0
230
1.0
100
AcDbArc
 50
269.999997
 51
360.0
  0
ARC
  5
6F
100
AcDbEntity
  8
0
370
    35
390
0
 62
     7
100
AcDbCircle
 10
610.430908
 20
341.169983
 30
0.0
 40
1.0
210
0.0
220
0.0
230
1.0
100
AcDbArc
 50
269.999997
 51
360.0
  0
ARC
  5
70
100
AcDbEntity
  8
0
370
    35
390
0
 62
     7
100
AcDbCircle
 10
610.430908
 20
343.669983
 30
0.0
 40
1.0
210
0.0
220
0.0
230
1.0
100
AcDbArc
 50
0.0
 51
90.000003
  0
ARC
  5
71
100
AcDbEntity
  8
0
370
    35
390
0
 62
     7
100
AcDbCircle
 10
605.430908
 20
347.169983
 30
0.0
 40
0.5
210
0.0
220
0.0
230
1.0
100
AcDbArc
 50
0.0
 51
90.000003
  0
LINE
  5
72
100
AcDbEntity
  8
0
370
    35
390
0
 62
     7
 48
0.0375
100
AcDbLine
 10
605.430908
 20
347.669983
 30
0.0
 11
603.930908
 21
347.669983
 31
0.0
210
0.0
220
0.0
230
1.0
  0
LINE
  5
73
100
AcDbEntity
  8
0
370
    35
390
0
 62
     7
 48
0.0625
100
AcDbLine
 10
605.930908
 20
344.669983
 30
0.0
 11
605.930908
 21
347.169983
 31
0.0
210
0.0
220
0.0
230
1.0
  0
LINE
  5
74
100
AcDbEntity
  8
0
370
    35
390
0
 62
     7
 48
0.1125
100
AcDbLine
 10
610.430908
 20
344.669983
 30
0.0
 11
605.930908
 21
344.669983
 31
0.0
210
0.0
220
0.0
230
1.0
  0
LINE
  5
75
100
AcDbEntity
  8
0
370
    35
390
0
 62
     7
 48
0.0625
100
AcDbLine
 10
611.430908
 20
341.169983
 30
0.0
 11
611.430908
 21
343.669983
 31
0.0
210
0.0
220
0.0
230
1.0
  0
LINE
  5
76
100
AcDbEntity
  8
0
370
    35
390
0
 62
     7
 48
0.0625
100
AcDbLine
 10
611.430908
 20
331.669983
 30
0.0
 11
611.430908
 21
334.169983
 31
0.0
210
0.0
220
0.0
230
1.0
  0
LINE
  5
77
100
AcDbEntity
  8
0
370
    35
390
0
 62
     7
 48
0.1125
100
AcDbLine
 10
605.930908
 20
330.669983
 30
0.0
 11
610.430908
 21
330.669983
 31
0.0
210
0.0
220
0.0
230
1.0
  0
LINE
  5
78
100
AcDbEntity
  8
0
370
    35
390
0
 62
     7
 48
0.0625
100
AcDbLine
 10
605.930908
 20
328.169983
 30
0.0
 11
605.930908
 21
330.669983
 31
0.0
210
0.0
220
0.0
230
1.0
  0
LINE
  5
79
100
AcDbEntity
  8
0
370
    35
390
0
 62
     7
 48
0.0375
100
AcDbLine
 10
603.930908
 20
327.669983
 30
0.0
 11
605.430908
 21
327.669983
 31
0.0
210
0.0
220
0.0
230
1.0
  0
LINE
  5
7A
100
AcDbEntity
  8
0
370
    35
390
0
 62
     7
 48
0.0625
100
AcDbLine
 10
603.430908
 20
330.669983
 30
0.0
 11
603.430908
 21
328.169983
 31
0.0
210
0.0
220
0.0
230
1.0
  0
LINE
  5
7B
100
AcDbEntity
  8
0
370
    35
390
0
 62
     7
 48
0.1
100
AcDbLine
 10
598.430908
 20
339.669983
 30
0.0
 11
598.430908
 21
335.669983
 31
0.0
210
0.0
220
0.0
230
1.0
  0
LINE
  5
7C
100
AcDbEntity
  8
0
370
    35
390
0
 62
     7
 48
0.0625
100
AcDbLine
 10
603.430908
 20
347.169983
 30
0.0
 11
603.430908
 21
344.669983
 31
0.0
210
0.0
220
0.0
230
1.0
  0
LINE
  5
7D
100
AcDbEntity
  8
0
370
    35
390
0
 62
     7
 48
0.106601
100
AcDbLine
 10
606.16687
 20
340.169983
 30
0.0
 11
610.430908
 21
340.169983
 31
0.0
210
0.0
220
0.0
230
1.0
  0
CIRCLE
  5
7E
100
AcDbEntity
  8
0
370
    35
390
0
 62
     7
100
AcDbCircle
 10
801.315491
 20
228.9207
 30
0.0
 40
1.5
210
0.0
220
0.0
230
1.0
  0
CIRCLE
  5
7F
100
AcDbEntity
  8
0
370
    35
390
0
 62
     7
100
AcDbCircle
 10
765.690491
 20
290.625
 30
0.0
 40
75.0
210
0.0
220
0.0
230
1.0
  0
LINE
  5
80
100
AcDbEntity
  8
0
370
    35
390
0
 62
     7
 48
0.125
100
AcDbLine
 10
758.190491
 20
357.875
 30
0.0
 11
753.190491
 21
357.875
 31
0.0
210
0.0
220
0.0
230
1.0
  0
LINE
  5
81
100
AcDbEntity
  8
0
370
    35
390
0
 62
     7
 48
0.075
100
AcDbLine
 10
753.190491
 20
357.875
 30
0.0
 11
753.190491
 21
360.875
 31
0.0
210
0.0
220
0.0
230
1.0
  0
LINE
  5
82
100
AcDbEntity
  8
0
370
    35
390
0
 62
     7
 48
0.125
100
AcDbLine
 10
753.190491
 20
360.875
 30
0.0
 11
758.190491
 21
360.875
 31
0.0
210
0.0
220
0.0
230
1.0
  0
LINE
  5
83
100
AcDbEntity
  8
0
370
    35
390
0
 62
     7
 48
0.075
100
AcDbLine
 10
758.190491
 20
360.875
 30
0.0
 11
758.190491
 21
357.875
 31
0.0
210
0.0
220
0.0
230
1.0
  0
LINE
  5
84
100
AcDbEntity
  8
0
370
    35
390
0
 62
     7
 48
0.069998
100
AcDbLine
 10
825.340454
 20
319.125
 30
0.0
 11
822.540527
 21
319.125
 31
0.0
210
0.0
220
0.0
230
1.0
  0
LINE
  5
85
100
AcDbEntity
  8
0
370
    35
390
0
 62
     7
100
AcDbLine
 10
825.340454
 20
299.125
 30
0.0
 11
825.340454
 21
319.125
 31
0.0
210
0.0
220
0.0
230
1.0
  0
LINE
  5
86
100
AcDbEntity
  8
0
370
    35
390
0
 62
     7
 48
0.069998
100
AcDbLine
 10
822.540527
 20
299.125
 30
0.0
 11
825.340454
 21
299.125
 31
0.0
210
0.0
220
0.0
230
1.0
  0
LINE
  5
87
100
AcDbEntity
  8
0
370
    35
390
0
 62
     7
100
AcDbLine
 10
822.540527
 20
319.125
 30
0.0
 11
822.540527
 21
299.125
 31
0.0
210
0.0
220
0.0
230
1.0
  0
LINE
  5
88
100
AcDbEntity
  8
0
370
    35
390
0
 62
     7
 48
0.070001
100
AcDbLine
 10
708.840515
 20
279.125
 30
0.0
 11
706.040466
 21
279.125
 31
0.0
210
0.0
220
0.0
230
1.0
  0
LINE
  5
89
100
AcDbEntity
  8
0
370
    35
390
0
 62
     7
100
AcDbLine
 10
708.840515
 20
279.125
 30
0.0
 11
708.840515
 21
259.125
 31
0.0
210
0.0
220
0.0
230
1.0
  0
LINE
  5
8A
100
AcDbEntity
  8
0
370
    35
390
0
 62
     7
 48
0.070001
100
AcDbLine
 10
706.040466
 20
259.125
 30
0.0
 11
708.840515
 21
259.125
 31
0.0
210
0.0
220
0.0
230
1.0
  0
LINE
  5
8B
100
AcDbEntity
  8
0
370
    35
390
0
 62
     7
100
AcDbLine
 10
706.040466
 20
259.125
 30
0.0
 11
706.040466
 21
279.125
 31
0.0
210
0.0
220
0.0
230
1.0
  0
LINE
  5
8C
100
AcDbEntity
  8
0
370
    35
390
0
 62
     7
 48
0.175
100
AcDbLine
 10
773.190491
 20
330.625
 30
0.0
 11
773.190491
 21
337.625
 31
0.0
210
0.0
220
0.0
230
1.0
  0
ARC
  5
8D
100
AcDbEntity
  8
0
370
    35
390
0
 62
     7
100
AcDbCircle
 10
772.190491
 20
330.625
 30
0.0
 40
1.0
210
0.0
220
0.0
230
1.0
100
AcDbArc
 50
269.999997
 51
360.0
  0
LINE
  5
8E
100
AcDbEntity
  8
0
370
    35
390
0
 62
     7
 48
0.325
100
AcDbLine
 10
759.190491
 20
329.625
 30
0.0
 11
772.190491
 21
329.625
 31
0.0
210
0.0
220
0.0
230
1.0
  0
ARC
  5
8F
100
AcDbEntity
  8
0
370
    35
390
0
 62
     7
100
AcDbCircle
 10
759.190491
 20
330.625
 30
0.0
 40
1.0
210
0.0
220
0.0
230
1.0
100
AcDbArc
 50
179.999995
 51
269.999997
  0
LINE
  5
90
100
AcDbEntity
  8
0
370
    35
390
0
 62
     7
 48
0.175
100
AcDbLine
 10
758.190491
 20
337.625
 30
0.0
 11
758.190491
 21
330.625
 31
0.0
210
0.0
220
0.0
230
1.0
  0
ARC
  5
91
100
AcDbEntity
  8
0
370
    35
390
0
 62
     7
100
AcDbCircle
 10
759.190491
 20
337.625
 30
0.0
 40
1.0
210
0.0
220
0.0
230
1.0
100
AcDbArc
 50
90.000003
 51
180.000005
  0
LINE
  5
92
100
AcDbEntity
  8
0
370
    35
390
0
 62
     7
 48
0.325
100
AcDbLine
 10
772.190491
 20
338.625
 30
0.0
 11
759.190491
 21
338.625
 31
0.0
210
0.0
220
0.0
230
1.0
  0
ARC
  5
93
100
AcDbEntity
  8
0
370
    35
390
0
 62
     7
100
AcDbCircle
 10
772.190491
 20
337.625
 30
0.0
 40
1.0
210
0.0
220
0.0
230
1.0
100
AcDbArc
 50
0.0
 51
90.000003
  0
LINE
  5
94
100
AcDbEntity
  8
0
370
    35
390
0
 62
     7
 48
0.10875
100
AcDbLine
 10
715.240479
 20
256.625
 30
0.0
 11
715.240479
 21
252.275009
 31
0.0
210
0.0
220
0.0
230
1.0
  0
LINE
  5
95
100
AcDbEntity
  8
0
370
    35
390
0
 62
     7
 48
0.06375
100
AcDbLine
 10
712.690491
 20
256.625
 30
0.0
 11
715.240479
 21
256.625
 31
0.0
210
0.0
220
0.0
230
1.0
  0
LINE
  5
96
100
AcDbEntity
  8
0
370
    35
390
0
 62
     7
 48
0.125
100
AcDbLine
 10
712.690491
 20
261.625
 30
0.0
 11
712.690491
 21
256.625
 31
0.0
210
0.0
220
0.0
230
1.0
  0
LINE
  5
97
100
AcDbEntity
  8
0
370
    35
390
0
 62
     7
 48
0.06375
100
AcDbLine
 10
715.240479
 20
261.625
 30
0.0
 11
712.690491
 21
261.625
 31
0.0
210
0.0
220
0.0
230
1.0
  0
LINE
  5
98
100
AcDbEntity
  8
0
370
    35
390
0
 62
     7
 48
0.10875
100
AcDbLine
 10
715.240479
 20
265.975006
 30
0.0
 11
715.240479
 21
261.625
 31
0.0
210
0.0
220
0.0
230
1.0
  0
LINE
  5
99
100
AcDbEntity
  8
0
370
    35
390
0
 62
     7
 48
0.10875
100
AcDbLine
 10
718.140503
 20
261.625
 30
0.0
 11
718.140503
 21
265.975006
 31
0.0
210
0.0
220
0.0
230
1.0
  0
LINE
  5
9A
100
AcDbEntity
  8
0
370
    35
390
0
 62
     7
 48
0.06375
100
AcDbLine
 10
720.690491
 20
261.625
 30
0.0
 11
718.140503
 21
261.625
 31
0.0
210
0.0
220
0.0
230
1.0
  0
LINE
  5
9B
100
AcDbEntity
  8
0
370
    35
390
0
 62
     7
100
AcDbLine
 10
720.690491
 20
320.625
 30
0.0
 11
720.690491
 21
261.625
 31
0.0
210
0.0
220
0.0
230
1.0
  0
ARC
  5
9C
100
AcDbEntity
  8
0
370
    35
390
0
 62
     7
100
AcDbCircle
 10
725.690491
 20
320.625
 30
0.0
 40
5.0
210
0.0
220
0.0
230
1.0
100
AcDbArc
 50
90.000003
 51
180.000005
  0
LINE
  5
9D
100
AcDbEntity
  8
0
370
    35
390
0
 62
     7
 48
0.25
100
AcDbLine
 10
735.690491
 20
325.625
 30
0.0
 11
725.690491
 21
325.625
 31
0.0
210
0.0
220
0.0
230
1.0
  0
LINE
  5
9E
100
AcDbEntity
  8
0
370
    35
390
0
 62
     7
 48
0.1
100
AcDbLine
 10
735.690491
 20
329.625
 30
0.0
 11
735.690491
 21
325.625
 31
0.0
210
0.0
220
0.0
230
1.0
  0
ARC
  5
9F
100
AcDbEntity
  8
0
370
    35
390
0
 62
     7
100
AcDbCircle
 10
740.690491
 20
329.625
 30
0.0
 40
5.0
210
0.0
220
0.0
230
1.0
100
AcDbArc
 50
0.0
 51
180.000005
  0
LINE
  5
A0
100
AcDbEntity
  8
0
370
    35
390
0
 62
     7
 48
0.1
100
AcDbLine
 10
745.690491
 20
325.625
 30
0.0
 11
745.690491
 21
329.625
 31
0.0
210
0.0
220
0.0
230
1.0
  0
LINE
  5
A1
100
AcDbEntity
  8
0
370
    35
390
0
 62
     7
100
AcDbLine
 10
785.690491
 20
325.625
 30
0.0
 11
745.690491
 21
325.625
 31
0.0
210
0.0
220
0.0
230
1.0
  0
LINE
  5
A2
100
AcDbEntity
  8
0
370
    35
390
0
 62
     7
 48
0.1
100
AcDbLine
 10
785.690491
 20
329.625
 30
0.0
 11
785.690491
 21
325.625
 31
0.0
210
0.0
220
0.0
230
1.0
  0
ARC
  5
A3
100
AcDbEntity
  8
0
370
    35
390
0
 62
     7
100
AcDbCircle
 10
790.690491
 20
329.625
 30
0.0
 40
5.0
210
0.0
220
0.0
230
1.0
100
AcDbArc
 50
0.0
 51
180.000005
  0
LINE
  5
A4
100
AcDbEntity
  8
0
370
    35
390
0
 62
     7
 48
0.1
100
AcDbLine
 10
795.690491
 20
325.625
 30
0.0
 11
795.690491
 21
329.625
 31
0.0
210
0.0
220
0.0
230
1.0
  0
LINE
  5
A5
100
AcDbEntity
  8
0
370
    35
390
0
 62
     7
 48
0.25
100
AcDbLine
 10
805.690491
 20
325.625
 30
0.0
 11
795.690491
 21
325.625
 31
0.0
210
0.0
220
0.0
230
1.0
  0
ARC
  5
A6
100
AcDbEntity
  8
0
370
    35
390
0
 62
     7
100
AcDbCircle
 10
805.690491
 20
320.625
 30
0.0
 40
5.0
210
0.0
220
0.0
230
1.0
100
AcDbArc
 50
0.0
 51
90.000003
  0
LINE
  5
A7
100
AcDbEntity
  8
0
370
    35
390
0
 62
     7
100
AcDbLine
 10
810.690491
 20
261.625
 30
0.0
 11
810.690491
 21
320.625
 31
0.0
210
0.0
220
0.0
230
1.0
  0
LINE
  5
A8
100
AcDbEntity
  8
0
370
    35
390
0
 62
     7
 48
0.06375
100
AcDbLine
 10
813.240479
 20
261.625
 30
0.0
 11
810.690491
 21
261.625
 31
0.0
210
0.0
220
0.0
230
1.0
  0
LINE
  5
A9
100
AcDbEntity
  8
0
370
    35
390
0
 62
     7
 48
0.10875
100
AcDbLine
 10
813.240479
 20
265.975006
 30
0.0
 11
813.240479
 21
261.625
 31
0.0
210
0.0
220
0.0
230
1.0
  0
LINE
  5
AA
100
AcDbEntity
  8
0
370
    35
390
0
 62
     7
 48
0.10875
100
AcDbLine
 10
816.140503
 20
261.625
 30
0.0
 11
816.140503
 21
265.975006
 31
0.0
210
0.0
220
0.0
230
1.0
  0
LINE
  5
AB
100
AcDbEntity
  8
0
370
    35
390
0
 62
     7
 48
0.06375
100
AcDbLine
 10
818.690491
 20
261.625
 30
0.0
 11
816.140503
 21
261.625
 31
0.0
210
0.0
220
0.0
230
1.0
  0
LINE
  5
AC
100
AcDbEntity
  8
0
370
    35
390
0
 62
     7
 48
0.125
100
AcDbLine
 10
818.690491
 20
256.625
 30
0.0
 11
818.690491
 21
261.625
 31
0.0
210
0.0
220
0.0
230
1.0
  0
LINE
  5
AD
100
AcDbEntity
  8
0
370
    35
390
0
 62
     7
 48
0.06375
100
AcDbLine
 10
816.140503
 20
256.625
 30
0.0
 11
818.690491
 21
256.625
 31
0.0
210
0.0
220
0.0
230
1.0
  0
LINE
  5
AE
100
AcDbEntity
  8
0
370
    35
390
0
 62
     7
 48
0.10875
100
AcDbLine
 10
816.140503
 20
252.275009
 30
0.0
 11
816.140503
 21
256.625
 31
0.0
210
0.0
220
0.0
230
1.0
  0
LINE
  5
AF
100
AcDbEntity
  8
0
370
    35
390
0
 62
     7
 48
0.10875
100
AcDbLine
 10
813.240479
 20
256.625
 30
0.0
 11
813.240479
 21
252.275009
 31
0.0
210
0.0
220
0.0
230
1.0
  0
LINE
  5
B0
100
AcDbEntity
  8
0
370
    35
390
0
 62
     7
100
AcDbLine
 10
718.140503
 20
256.625
 30
0.0
 11
813.240479
 21
256.625
 31
0.0
210
0.0
220
0.0
230
1.0
  0
LINE
  5
B1
100
AcDbEntity
  8
0
370
    35
390
0
 62
     7
 48
0.10875
100
AcDbLine
 10
718.140503
 20
252.275009
 30
0.0
 11
718.140503
 21
256.625
 31
0.0
210
0.0
220
0.0
230
1.0
  0
CIRCLE
  5
B2
100
AcDbEntity
  8
0
370
    35
390
0
 62
     7
100
AcDbCircle
 10
735.690491
 20
249.625
 30
0.0
 40
1.5
210
0.0
220
0.0
230
1.0
  0
CIRCLE
  5
B3
100
AcDbEntity
  8
0
370
    35
390
0
 62
     7
100
AcDbCircle
 10
812.690491
 20
325.625
 30
0.0
 40
1.5
210
0.0
220
0.0
230
1.0
  0
CIRCLE
  5
B4
100
AcDbEntity
  8
0
370
    35
390
0
 62
     7
100
AcDbCircle
 10
718.690491
 20
325.625
 30
0.0
 40
1.5
210
0.0
220
0.0
230
1.0
  0
CIRCLE
  5
B5
100
AcDbEntity
  8
0
370
    35
390
0
 62
     7
100
AcDbCircle
 10
795.690491
 20
249.625
 30
0.0
 40
1.5
210
0.0
220
0.0
230
1.0
  0
CIRCLE
  5
B6
100
AcDbEntity
  8
0
370
    35
390
0
 62
     7
100
AcDbCircle
 10
765.690491
 20
359.375
 30
0.0
 40
1.5
210
0.0
220
0.0
230
1.0
  0
CIRCLE
  5
B7
100
AcDbEntity
  8
0
370
    35
390
0
 62
     7
100
AcDbCircle
 10
730.065491
 20
352.329315
 30
0.0
 40
1.5
210
0.0
220
0.0
230
1.0
  0
CIRCLE
  5
B8
100
AcDbEntity
  8
0
370
    35
390
0
 62
     7
100
AcDbCircle
 10
801.315491
 20
352.329315
 30
0.0
 40
1.5
210
0.0
220
0.0
230
1.0
  0
CIRCLE
  5
B9
100
AcDbEntity
  8
0
370
    35
390
0
 62
     7
100
AcDbCircle
 10
730.065491
 20
228.9207
 30
0.0
 40
1.5
210
0.0
220
0.0
230
1.0
  0
LINE
  5
BA
100
AcDbEntity
  8
0
370
    35
390
0
 62
     7
 48
0.070001
100
AcDbLine
 10
708.840515
 20
319.125
 30
0.0
 11
706.040466
 21
319.125
 31
0.0
210
0.0
220
0.0
230
1.0
  0
LINE
  5
BB
100
AcDbEntity
  8
0
370
    35
390
0
 62
     7
100
AcDbLine
 10
708.840515
 20
299.125
 30
0.0
 11
708.840515
 21
319.125
 31
0.0
210
0.0
220
0.0
230
1.0
  0
LINE
  5
BC
100
AcDbEntity
  8
0
370
    35
390
0
 62
     7
 48
0.070001
100
AcDbLine
 10
706.040466
 20
299.125
 30
0.0
 11
708.840515
 21
299.125
 31
0.0
210
0.0
220
0.0
230
1.0
  0
LINE
  5
BD
100
AcDbEntity
  8
0
370
    35
390
0
 62
     7
100
AcDbLine
 10
706.040466
 20
319.125
 30
0.0
 11
706.040466
 21
299.125
 31
0.0
210
0.0
220
0.0
230
1.0
  0
LINE
  5
BE
100
AcDbEntity
  8
0
370
    35
390
0
 62
     7
 48
0.069998
100
AcDbLine
 10
825.340454
 20
279.125
 30
0.0
 11
822.540527
 21
279.125
 31
0.0
210
0.0
220
0.0
230
1.0
  0
LINE
  5
BF
100
AcDbEntity
  8
0
370
    35
390
0
 62
     7
100
AcDbLine
 10
825.340454
 20
279.125
 30
0.0
 11
825.340454
 21
259.125
 31
0.0
210
0.0
220
0.0
230
1.0
  0
LINE
  5
C0
100
AcDbEntity
  8
0
370
    35
390
0
 62
     7
 48
0.069998
100
AcDbLine
 10
822.540527
 20
259.125
 30
0.0
 11
825.340454
 21
259.125
 31
0.0
210
0.0
220
0.0
230
1.0
  0
LINE
  5
C1
100
AcDbEntity
  8
0
370
    35
390
0
 62
     7
100
AcDbLine
 10
822.540527
 20
259.125
 30
0.0
 11
822.540527
 21
279.125
 31
0.0
210
0.0
220
0.0
230
1.0
  0
LINE
  5
C2
100
AcDbEntity
  8
0
370
    35
390
0
 62
     7
 48
0.125
100
AcDbLine
 10
778.190491
 20
357.875
 30
0.0
 11
773.190491
 21
357.875
 31
0.0
210
0.0
220
0.0
230
1.0
  0
LINE
  5
C3
100
AcDbEntity
  8
0
370
    35
390
0
 62
     7
 48
0.075
100
AcDbLine
 10
773.190491
 20
357.875
 30
0.0
 11
773.190491
 21
360.875
 31
0.0
210
0.0
220
0.0
230
1.0
  0
LINE
  5
C4
100
AcDbEntity
  8
0
370
    35
390
0
 62
     7
 48
0.125
100
AcDbLine
 10
773.190491
 20
360.875
 30
0.0
 11
778.190491
 21
360.875
 31
0.0
210
0.0
220
0.0
230
1.0
  0
LINE
  5
C5
100
AcDbEntity
  8
0
370
    35
390
0
 62
     7
 48
0.075
100
AcDbLine
 10
778.190491
 20
360.875
 30
0.0
 11
778.190491
 21
357.875
 31
0.0
210
0.0
220
0.0
230
1.0
  0
LINE
  5
C6
100
AcDbEntity
  8
0
370
    35
390
0
 62
     7
 48
0.3375
100
AcDbLine
 10
729.2229
 20
338.155396
 30
0.0
 11
742.7229
 21
338.155396
 31
0.0
210
0.0
220
0.0
230
1.0
  0
LINE
  5
C7
100
AcDbEntity
  8
0
370
    35
390
0
 62
     7
 48
0.2175
100
AcDbLine
 10
729.2229
 20
346.855408
 30
0.0
 11
729.2229
 21
338.155396
 31
0.0
210
0.0
220
0.0
230
1.0
  0
LINE
  5
C8
100
AcDbEntity
  8
0
370
    35
390
0
 62
     7
 48
0.3375
100
AcDbLine
 10
742.7229
 20
346.855408
 30
0.0
 11
729.2229
 21
346.855408
 31
0.0
210
0.0
220
0.0
230
1.0
  0
LINE
  5
C9
100
AcDbEntity
  8
0
370
    35
390
0
 62
     7
 48
0.2175
100
AcDbLine
 10
742.7229
 20
338.155396
 30
0.0
 11
742.7229
 21
346.855408
 31
0.0
210
0.0
220
0.0
230
1.0
  0
CIRCLE
  5
CA
100
AcDbEntity
  8
0
370
    35
390
0
 62
     7
100
AcDbCircle
 10
707.440491
 20
289.125
 30
0.0
 40
1.5
210
0.0
220
0.0
230
1.0
  0
CIRCLE
  5
CB
100
AcDbEntity
  8
0
370
    35
390
0
 62
     7
100
AcDbCircle
 10
823.940491
 20
289.125
 30
0.0
 40
1.5
210
0.0
220
0.0
230
1.0
  0
LINE
  5
CC
100
AcDbEntity
  8
0
370
    35
390
0
 62
     7
 48
0.072501
100
AcDbLine
 10
715.240479
 20
252.275009
 30
0.0
 11
718.140503
 21
252.275009
 31
0.0
210
0.0
220
0.0
230
1.0
  0
LINE
  5
CD
100
AcDbEntity
  8
0
370
    35
390
0
 62
     7
 48
0.072501
100
AcDbLine
 10
718.140503
 20
265.975006
 30
0.0
 11
715.240479
 21
265.975006
 31
0.0
210
0.0
220
0.0
230
1.0
  0
LINE
  5
CE
100
AcDbEntity
  8
0
370
    35
390
0
 62
     7
 48
0.072501
100
AcDbLine
 10
816.140503
 20
265.975006
 30
0.0
 11
813.240479
 21
265.975006
 31
0.0
210
0.0
220
0.0
230
1.0
  0
LINE
  5
CF
100
AcDbEntity
  8
0
370
    35
390
0
 62
     7
 48
0.072501
100
AcDbLine
 10
813.240479
 20
252.275009
 30
0.0
 11
816.140503
 21
252.275009
 31
0.0
210
0.0
220
0.0
230
1.0
  0
LINE
  5
D0
100
AcDbEntity
  8
0
370
    35
390
0
 62
     7
 48
0.1175
100
AcDbLine
 10
907.388062
 20
343.427368
 30
0.0
 11
907.388062
 21
338.727356
 31
0.0
210
0.0
220
0.0
230
1.0
  0
LINE
  5
D1
100
AcDbEntity
  8
0
370
    35
390
0
 62
     7
 48
0.2125
100
AcDbLine
 10
929.121094
 20
350.239868
 30
0.0
 11
920.621094
 21
350.239868
 31
0.0
210
0.0
220
0.0
230
1.0
  0
LINE
  5
D2
100
AcDbEntity
  8
0
370
    35
390
0
 62
     7
 48
0.07
100
AcDbLine
 10
920.621094
 20
350.239868
 30
0.0
 11
920.621094
 21
353.039886
 31
0.0
210
0.0
220
0.0
230
1.0
  0
ARC
  5
D3
100
AcDbEntity
  8
0
370
    35
390
0
 62
     7
100
AcDbCircle
 10
919.921082
 20
353.039886
 30
0.0
 40
0.7
210
0.0
220
0.0
230
1.0
100
AcDbArc
 50
360.0
 51
90.000003
  0
LINE
  5
D4
100
AcDbEntity
  8
0
370
    35
390
0
 62
     7
 48
0.465001
100
AcDbLine
 10
919.921082
 20
353.739868
 30
0.0
 11
901.321045
 21
353.739868
 31
0.0
210
0.0
220
0.0
230
1.0
  0
ARC
  5
D5
100
AcDbEntity
  8
0
370
    35
390
0
 62
     7
100
AcDbCircle
 10
901.321045
 20
353.039886
 30
0.0
 40
0.7
210
0.0
220
0.0
230
1.0
100
AcDbArc
 50
90.000003
 51
179.999995
  0
LINE
  5
D6
100
AcDbEntity
  8
0
370
    35
390
0
 62
     7
 48
0.07
100
AcDbLine
 10
900.621094
 20
353.039886
 30
0.0
 11
900.621094
 21
350.239868
 31
0.0
210
0.0
220
0.0
230
1.0
  0
LINE
  5
D7
100
AcDbEntity
  8
0
370
    35
390
0
 62
     7
 48
0.2
100
AcDbLine
 10
900.621094
 20
350.239868
 30
0.0
 11
892.621094
 21
350.239868
 31
0.0
210
0.0
220
0.0
230
1.0
  0
ARC
  5
D8
100
AcDbEntity
  8
0
370
    35
390
0
 62
     7
100
AcDbCircle
 10
892.621094
 20
348.239868
 30
0.0
 40
2.0
210
0.0
220
0.0
230
1.0
100
AcDbArc
 50
90.000003
 51
179.999995
  0
LINE
  5
D9
100
AcDbEntity
  8
0
370
    35
390
0
 62
     7
100
AcDbLine
 10
890.621094
 20
297.239868
 30
0.0
 11
890.621094
 21
348.239868
 31
0.0
210
0.0
220
0.0
230
1.0
  0
ARC
  5
DA
100
AcDbEntity
  8
0
370
    35
390
0
 62
     7
100
AcDbCircle
 10
892.621094
 20
297.239868
 30
0.0
 40
2.0
210
0.0
220
0.0
230
1.0
100
AcDbArc
 50
180.000005
 51
269.999997
  0
LINE
  5
DB
100
AcDbEntity
  8
0
370
    35
390
0
 62
     7
 48
0.067499
100
AcDbLine
 10
892.621094
 20
295.239868
 30
0.0
 11
895.321045
 21
295.239868
 31
0.0
210
0.0
220
0.0
230
1.0
  0
LINE
  5
DC
100
AcDbEntity
  8
0
370
    35
390
0
 62
     7
 48
0.075
100
AcDbLine
 10
895.321045
 20
295.239868
 30
0.0
 11
895.321045
 21
298.239868
 31
0.0
210
0.0
220
0.0
230
1.0
  0
LINE
  5
DD
100
AcDbEntity
  8
0
370
    35
390
0
 62
     7
 48
0.03125
100
AcDbLine
 10
894.071045
 20
298.239868
 30
0.0
 11
895.321045
 21
298.239868
 31
0.0
210
0.0
220
0.0
230
1.0
  0
LINE
  5
DE
100
AcDbEntity
  8
0
370
    35
390
0
 62
     7
 48
0.060001
100
AcDbLine
 10
894.071045
 20
298.239868
 30
0.0
 11
894.071045
 21
300.639893
 31
0.0
210
0.0
220
0.0
230
1.0
  0
LINE
  5
DF
100
AcDbEntity
  8
0
370
    35
390
0
 62
     7
 48
0.03125
100
AcDbLine
 10
894.071045
 20
300.639893
 30
0.0
 11
895.321045
 21
300.639893
 31
0.0
210
0.0
220
0.0
230
1.0
  0
LINE
  5
E0
100
AcDbEntity
  8
0
370
    35
390
0
 62
     7
 48
0.064999
100
AcDbLine
 10
895.321045
 20
300.639893
 30
0.0
 11
895.321045
 21
303.239868
 31
0.0
210
0.0
220
0.0
230
1.0
  0
LINE
  5
E1
100
AcDbEntity
  8
0
370
    35
390
0
 62
     7
 48
0.075
100
AcDbLine
 10
895.321045
 20
303.239868
 30
0.0
 11
898.321045
 21
303.239868
 31
0.0
210
0.0
220
0.0
230
1.0
  0
LINE
  5
E2
100
AcDbEntity
  8
0
370
    35
390
0
 62
     7
 48
0.064999
100
AcDbLine
 10
898.321045
 20
300.639893
 30
0.0
 11
898.321045
 21
303.239868
 31
0.0
210
0.0
220
0.0
230
1.0
  0
LINE
  5
E3
100
AcDbEntity
  8
0
370
    35
390
0
 62
     7
 48
0.03125
100
AcDbLine
 10
898.321045
 20
300.639893
 30
0.0
 11
899.571045
 21
300.639893
 31
0.0
210
0.0
220
0.0
230
1.0
  0
LINE
  5
E4
100
AcDbEntity
  8
0
370
    35
390
0
 62
     7
 48
0.060001
100
AcDbLine
 10
899.571045
 20
298.239868
 30
0.0
 11
899.571045
 21
300.639893
 31
0.0
210
0.0
220
0.0
230
1.0
  0
LINE
  5
E5
100
AcDbEntity
  8
0
370
    35
390
0
 62
     7
 48
0.03125
100
AcDbLine
 10
898.321045
 20
298.239868
 30
0.0
 11
899.571045
 21
298.239868
 31
0.0
210
0.0
220
0.0
230
1.0
  0
LINE
  5
E6
100
AcDbEntity
  8
0
370
    35
390
0
 62
     7
 48
0.075
100
AcDbLine
 10
898.321045
 20
295.239868
 30
0.0
 11
898.321045
 21
298.239868
 31
0.0
210
0.0
220
0.0
230
1.0
  0
LINE
  5
E7
100
AcDbEntity
  8
0
370
    35
390
0
 62
     7
100
AcDbLine
 10
898.321045
 20
295.239868
 30
0.0
 11
923.021118
 21
295.239868
 31
0.0
210
0.0
220
0.0
230
1.0
  0
LINE
  5
E8
100
AcDbEntity
  8
0
370
    35
390
0
 62
     7
 48
0.07
100
AcDbLine
 10
923.021118
 20
295.239868
 30
0.0
 11
923.021118
 21
292.43988
 31
0.0
210
0.0
220
0.0
230
1.0
  0
ARC
  5
E9
100
AcDbEntity
  8
0
370
    35
390
0
 62
     7
100
AcDbCircle
 10
923.721069
 20
292.43988
 30
0.0
 40
0.7
210
0.0
220
0.0
230
1.0
100
AcDbArc
 50
180.000005
 51
269.999997
  0
LINE
  5
EA
100
AcDbEntity
  8
0
370
    35
390
0
 62
     7
 48
0.345001
100
AcDbLine
 10
937.521118
 20
291.739868
 30
0.0
 11
923.721069
 21
291.739868
 31
0.0
210
0.0
220
0.0
230
1.0
  0
ARC
  5
EB
100
AcDbEntity
  8
0
370
    35
390
0
 62
     7
100
AcDbCircle
 10
937.521118
 20
292.43988
 30
0.0
 40
0.7
210
0.0
220
0.0
230
1.0
100
AcDbArc
 50
269.999997
 51
0.0
  0
LINE
  5
EC
100
AcDbEntity
  8
0
370
    35
390
0
 62
     7
 48
0.07
100
AcDbLine
 10
938.221069
 20
295.239868
 30
0.0
 11
938.221069
 21
292.43988
 31
0.0
210
0.0
220
0.0
230
1.0
  0
LINE
  5
ED
100
AcDbEntity
  8
0
370
    35
390
0
 62
     7
100
AcDbLine
 10
938.221069
 20
295.239868
 30
0.0
 11
962.921082
 21
295.239868
 31
0.0
210
0.0
220
0.0
230
1.0
  0
LINE
  5
EE
100
AcDbEntity
  8
0
370
    35
390
0
 62
     7
 48
0.075
100
AcDbLine
 10
962.921082
 20
295.239868
 30
0.0
 11
962.921082
 21
298.239868
 31
0.0
210
0.0
220
0.0
230
1.0
  0
LINE
  5
EF
100
AcDbEntity
  8
0
370
    35
390
0
 62
     7
 48
0.03125
100
AcDbLine
 10
961.671082
 20
298.239868
 30
0.0
 11
962.921082
 21
298.239868
 31
0.0
210
0.0
220
0.0
230
1.0
  0
LINE
  5
F0
100
AcDbEntity
  8
0
370
    35
390
0
 62
     7
 48
0.060001
100
AcDbLine
 10
961.671082
 20
298.239868
 30
0.0
 11
961.671082
 21
300.639893
 31
0.0
210
0.0
220
0.0
230
1.0
  0
LINE
  5
F1
100
AcDbEntity
  8
0
370
    35
390
0
 62
     7
 48
0.03125
100
AcDbLine
 10
961.671082
 20
300.639893
 30
0.0
 11
962.921082
 21
300.639893
 31
0.0
210
0.0
220
0.0
230
1.0
  0
LINE
  5
F2
100
AcDbEntity
  8
0
370
    35
390
0
 62
     7
 48
0.064999
100
AcDbLine
 10
962.921082
 20
300.639893
 30
0.0
 11
962.921082
 21
303.239868
 31
0.0
210
0.0
220
0.0
230
1.0
  0
LINE
  5
F3
100
AcDbEntity
  8
0
370
    35
390
0
 62
     7
 48
0.075
100
AcDbLine
 10
962.921082
 20
303.239868
 30
0.0
 11
965.921082
 21
303.239868
 31
0.0
210
0.0
220
0.0
230
1.0
  0
LINE
  5
F4
100
AcDbEntity
  8
0
370
    35
390
0
 62
     7
 48
0.064999
100
AcDbLine
 10
965.921082
 20
300.639893
 30
0.0
 11
965.921082
 21
303.239868
 31
0.0
210
0.0
220
0.0
230
1.0
  0
LINE
  5
F5
100
AcDbEntity
  8
0
370
    35
390
0
 62
     7
 48
0.03125
100
AcDbLine
 10
965.921082
 20
300.639893
 30
0.0
 11
967.171082
 21
300.639893
 31
0.0
210
0.0
220
0.0
230
1.0
  0
LINE
  5
F6
100
AcDbEntity
  8
0
370
    35
390
0
 62
     7
 48
0.060001
100
AcDbLine
 10
967.171082
 20
298.239868
 30
0.0
 11
967.171082
 21
300.639893
 31
0.0
210
0.0
220
0.0
230
1.0
  0
LINE
  5
F7
100
AcDbEntity
  8
0
370
    35
390
0
 62
     7
 48
0.03125
100
AcDbLine
 10
965.921082
 20
298.239868
 30
0.0
 11
967.171082
 21
298.239868
 31
0.0
210
0.0
220
0.0
230
1.0
  0
LINE
  5
F8
100
AcDbEntity
  8
0
370
    35
390
0
 62
     7
 48
0.075
100
AcDbLine
 10
965.921082
 20
295.239868
 30
0.0
 11
965.921082
 21
298.239868
 31
0.0
210
0.0
220
0.0
230
1.0
  0
LINE
  5
F9
100
AcDbEntity
  8
0
370
    35
390
0
 62
     7
 48
0.0675
100
AcDbLine
 10
965.921082
 20
295.239868
 30
0.0
 11
968.621094
 21
295.239868
 31
0.0
210
0.0
220
0.0
230
1.0
  0
ARC
  5
FA
100
AcDbEntity
  8
0
370
    35
390
0
 62
     7
100
AcDbCircle
 10
968.621094
 20
297.239868
 30
0.0
 40
2.0
210
0.0
220
0.0
230
1.0
100
AcDbArc
 50
269.999997
 51
0.0
  0
LINE
  5
FB
100
AcDbEntity
  8
0
370
    35
390
0
 62
     7
100
AcDbLine
 10
970.621094
 20
297.239868
 30
0.0
 11
970.621094
 21
348.239868
 31
0.0
210
0.0
220
0.0
230
1.0
  0
ARC
  5
FC
100
AcDbEntity
  8
0
370
    35
390
0
 62
     7
100
AcDbCircle
 10
968.621094
 20
348.239868
 30
0.0
 40
2.0
210
0.0
220
0.0
230
1.0
100
AcDbArc
 50
360.0
 51
90.000003
  0
LINE
  5
FD
100
AcDbEntity
  8
0
370
    35
390
0
 62
     7
 48
0.2
100
AcDbLine
 10
968.621094
 20
350.239868
 30
0.0
 11
960.621094
 21
350.239868
 31
0.0
210
0.0
220
0.0
230
1.0
  0
LINE
  5
FE
100
AcDbEntity
  8
0
370
    35
390
0
 62
     7
 48
0.07
100
AcDbLine
 10
960.621094
 20
350.239868
 30
0.0
 11
960.621094
 21
353.039886
 31
0.0
210
0.0
220
0.0
230
1.0
  0
ARC
  5
FF
100
AcDbEntity
  8
0
370
    35
390
0
 62
     7
100
AcDbCircle
 10
959.921082
 20
353.039886
 30
0.0
 40
0.7
210
0.0
220
0.0
230
1.0
100
AcDbArc
 50
360.0
 51
90.000003
  0
LINE
  5
100
100
AcDbEntity
  8
0
370
    35
390
0
 62
     7
 48
0.464999
100
AcDbLine
 10
959.921082
 20
353.739868
 30
0.0
 11
941.321106
 21
353.739868
 31
0.0
210
0.0
220
0.0
230
1.0
  0
ARC
  5
101
100
AcDbEntity
  8
0
370
    35
390
0
 62
     7
100
AcDbCircle
 10
941.321106
 20
353.039886
 30
0.0
 40
0.7
210
0.0
220
0.0
230
1.0
100
AcDbArc
 50
90.000003
 51
179.999995
  0
LINE
  5
102
100
AcDbEntity
  8
0
370
    35
390
0
 62
     7
 48
0.07
100
AcDbLine
 10
940.621094
 20
353.039886
 30
0.0
 11
940.621094
 21
350.239868
 31
0.0
210
0.0
220
0.0
230
1.0
  0
LINE
  5
103
100
AcDbEntity
  8
0
370
    35
390
0
 62
     7
 48
0.2125
100
AcDbLine
 10
940.621094
 20
350.239868
 30
0.0
 11
932.121094
 21
350.239868
 31
0.0
210
0.0
220
0.0
230
1.0
  0
LINE
  5
104
100
AcDbEntity
  8
0
370
    35
390
0
 62
     7
 48
0.075
100
AcDbLine
 10
932.121094
 20
347.239868
 30
0.0
 11
932.121094
 21
350.239868
 31
0.0
210
0.0
220
0.0
230
1.0
  0
LINE
  5
105
100
AcDbEntity
  8
0
370
    35
390
0
 62
     7
 48
0.03125
100
AcDbLine
 10
933.371094
 20
347.239868
 30
0.0
 11
932.121094
 21
347.239868
 31
0.0
210
0.0
220
0.0
230
1.0
  0
LINE
  5
106
100
AcDbEntity
  8
0
370
    35
390
0
 62
     7
 48
0.059999
100
AcDbLine
 10
933.371094
 20
347.239868
 30
0.0
 11
933.371094
 21
344.839905
 31
0.0
210
0.0
220
0.0
230
1.0
  0
LINE
  5
107
100
AcDbEntity
  8
0
370
    35
390
0
 62
     7
 48
0.03125
100
AcDbLine
 10
933.371094
 20
344.839905
 30
0.0
 11
932.121094
 21
344.839905
 31
0.0
210
0.0
220
0.0
230
1.0
  0
LINE
  5
108
100
AcDbEntity
  8
0
370
    35
390
0
 62
     7
 48
0.065001
100
AcDbLine
 10
932.121094
 20
342.239868
 30
0.0
 11
932.121094
 21
344.839905
 31
0.0
210
0.0
220
0.0
230
1.0
  0
LINE
  5
109
100
AcDbEntity
  8
0
370
    35
390
0
 62
     7
 48
0.075
100
AcDbLine
 10
929.121094
 20
342.239868
 30
0.0
 11
932.121094
 21
342.239868
 31
0.0
210
0.0
220
0.0
230
1.0
  0
LINE
  5
10A
100
AcDbEntity
  8
0
370
    35
390
0
 62
     7
 48
0.065001
100
AcDbLine
 10
929.121094
 20
344.839905
 30
0.0
 11
929.121094
 21
342.239868
 31
0.0
210
0.0
220
0.0
230
1.0
  0
LINE
  5
10B
100
AcDbEntity
  8
0
370
    35
390
0
 62
     7
 48
0.03125
100
AcDbLine
 10
927.871094
 20
344.839905
 30
0.0
 11
929.121094
 21
344.839905
 31
0.0
210
0.0
220
0.0
230
1.0
  0
LINE
  5
10C
100
AcDbEntity
  8
0
370
    35
390
0
 62
     7
 48
0.059999
100
AcDbLine
 10
927.871094
 20
344.839905
 30
0.0
 11
927.871094
 21
347.239868
 31
0.0
210
0.0
220
0.0
230
1.0
  0
LINE
  5
10D
100
AcDbEntity
  8
0
370
    35
390
0
 62
     7
 48
0.03125
100
AcDbLine
 10
927.871094
 20
347.239868
 30
0.0
 11
929.121094
 21
347.239868
 31
0.0
210
0.0
220
0.0
230
1.0
  0
LINE
  5
10E
100
AcDbEntity
  8
0
370
    35
390
0
 62
     7
 48
0.075
100
AcDbLine
 10
929.121094
 20
350.239868
 30
0.0
 11
929.121094
 21
347.239868
 31
0.0
210
0.0
220
0.0
230
1.0
  0
LINE
  5
10F
100
AcDbEntity
  8
0
370
    35
390
0
 62
     7
 48
0.00625
100
AcDbLine
 10
907.138062
 20
318.427368
 30
0.0
 11
907.388062
 21
318.427368
 31
0.0
210
0.0
220
0.0
230
1.0
  0
LINE
  5
110
100
AcDbEntity
  8
0
370
    35
390
0
 62
     7
 48
0.1175
100
AcDbLine
 10
907.388062
 20
318.427368
 30
0.0
 11
907.388062
 21
313.727356
 31
0.0
210
0.0
220
0.0
230
1.0
  0
LINE
  5
111
100
AcDbEntity
  8
0
370
    35
390
0
 62
     7
 48
0.00625
100
AcDbLine
 10
907.388062
 20
313.727356
 30
0.0
 11
907.138062
 21
313.727356
 31
0.0
210
0.0
220
0.0
230
1.0
  0
LINE
  5
112
100
AcDbEntity
  8
0
370
    35
390
0
 62
     7
 48
0.0625
100
AcDbLine
 10
907.138062
 20
313.727356
 30
0.0
 11
904.638062
 21
313.727356
 31
0.0
210
0.0
220
0.0
230
1.0
  0
LINE
  5
113
100
AcDbEntity
  8
0
370
    35
390
0
 62
     7
 48
0.00625
100
AcDbLine
 10
904.638062
 20
313.727356
 30
0.0
 11
904.388062
 21
313.727356
 31
0.0
210
0.0
220
0.0
230
1.0
  0
LINE
  5
114
100
AcDbEntity
  8
0
370
    35
390
0
 62
     7
 48
0.1175
100
AcDbLine
 10
904.388062
 20
313.727356
 30
0.0
 11
904.388062
 21
318.427368
 31
0.0
210
0.0
220
0.0
230
1.0
  0
LINE
  5
115
100
AcDbEntity
  8
0
370
    35
390
0
 62
     7
 48
0.00625
100
AcDbLine
 10
904.388062
 20
318.427368
 30
0.0
 11
904.638062
 21
318.427368
 31
0.0
210
0.0
220
0.0
230
1.0
  0
LINE
  5
116
100
AcDbEntity
  8
0
370
    35
390
0
 62
     7
 48
0.0625
100
AcDbLine
 10
904.638062
 20
318.427368
 30
0.0
 11
907.138062
 21
318.427368
 31
0.0
210
0.0
220
0.0
230
1.0
  0
LINE
  5
117
100
AcDbEntity
  8
0
370
    35
390
0
 62
     7
 48
0.00625
100
AcDbLine
 10
907.138062
 20
343.427368
 30
0.0
 11
907.388062
 21
343.427368
 31
0.0
210
0.0
220
0.0
230
1.0
  0
LINE
  5
118
100
AcDbEntity
  8
0
370
    35
390
0
 62
     7
 48
0.00625
100
AcDbLine
 10
907.388062
 20
338.727356
 30
0.0
 11
907.138062
 21
338.727356
 31
0.0
210
0.0
220
0.0
230
1.0
  0
LINE
  5
119
100
AcDbEntity
  8
0
370
    35
390
0
 62
     7
 48
0.0625
100
AcDbLine
 10
907.138062
 20
338.727356
 30
0.0
 11
904.638062
 21
338.727356
 31
0.0
210
0.0
220
0.0
230
1.0
  0
LINE
  5
11A
100
AcDbEntity
  8
0
370
    35
390
0
 62
     7
 48
0.00625
100
AcDbLine
 10
904.638062
 20
338.727356
 30
0.0
 11
904.388062
 21
338.727356
 31
0.0
210
0.0
220
0.0
230
1.0
  0
LINE
  5
11B
100
AcDbEntity
  8
0
370
    35
390
0
 62
     7
 48
0.1175
100
AcDbLine
 10
904.388062
 20
338.727356
 30
0.0
 11
904.388062
 21
343.427368
 31
0.0
210
0.0
220
0.0
230
1.0
  0
LINE
  5
11C
100
AcDbEntity
  8
0
370
    35
390
0
 62
     7
 48
0.00625
100
AcDbLine
 10
904.388062
 20
343.427368
 30
0.0
 11
904.638062
 21
343.427368
 31
0.0
210
0.0
220
0.0
230
1.0
  0
LINE
  5
11D
100
AcDbEntity
  8
0
370
    35
390
0
 62
     7
 48
0.0625
100
AcDbLine
 10
904.638062
 20
343.427368
 30
0.0
 11
907.138062
 21
343.427368
 31
0.0
210
0.0
220
0.0
230
1.0
  0
CIRCLE
  5
11E
100
AcDbEntity
  8
0
370
    35
390
0
 62
     7
100
AcDbCircle
 10
929.121094
 20
309.43988
 30
0.0
 40
5.5
210
0.0
220
0.0
230
1.0
  0
CIRCLE
  5
11F
100
AcDbEntity
  8
0
370
    35
390
0
 62
     7
100
AcDbCircle
 10
940.621094
 20
309.43988
 30
0.0
 40
3.0
210
0.0
220
0.0
230
1.0
  0
CIRCLE
  5
120
100
AcDbEntity
  8
0
370
    35
390
0
 62
     7
100
AcDbCircle
 10
949.121094
 20
318.139893
 30
0.0
 40
1.5
210
0.0
220
0.0
230
1.0
  0
LINE
  5
121
100
AcDbEntity
  8
0
370
    35
390
0
 62
     7
 48
0.132922
100
AcDbLine
 10
957.962646
 20
313.41629
 30
0.0
 11
963.279541
 21
313.41629
 31
0.0
210
0.0
220
0.0
230
1.0
  0
LINE
  5
122
100
AcDbEntity
  8
0
370
    35
390
0
 62
     7
 48
0.19882
100
AcDbLine
 10
963.279541
 20
313.41629
 30
0.0
 11
963.279541
 21
305.46347
 31
0.0
210
0.0
220
0.0
230
1.0
  0
LINE
  5
123
100
AcDbEntity
  8
0
370
    35
390
0
 62
     7
 48
0.132922
100
AcDbLine
 10
963.279541
 20
305.46347
 30
0.0
 11
957.962646
 21
305.46347
 31
0.0
210
0.0
220
0.0
230
1.0
  0
LINE
  5
124
100
AcDbEntity
  8
0
370
    35
390
0
 62
     7
 48
0.19882
100
AcDbLine
 10
957.962646
 20
305.46347
 30
0.0
 11
957.962646
 21
313.41629
 31
0.0
210
0.0
220
0.0
230
1.0
  0
CIRCLE
  5
125
100
AcDbEntity
  8
0
370
    35
390
0
 62
     7
100
AcDbCircle
 10
949.121094
 20
300.739868
 30
0.0
 40
1.5
210
0.0
220
0.0
230
1.0
  0
CIRCLE
  5
126
100
AcDbEntity
  8
0
370
    35
390
0
 62
     7
100
AcDbCircle
 10
1044.928223
 20
307.839233
 30
0.0
 40
5.5
210
0.0
220
0.0
230
1.0
  0
LINE
  5
127
100
AcDbEntity
  8
0
370
    35
390
0
 62
     7
 48
0.075
100
AcDbLine
 10
1044.928223
 20
348.639252
 30
0.0
 11
1044.928223
 21
345.639252
 31
0.0
210
0.0
220
0.0
230
1.0
  0
LINE
  5
128
100
AcDbEntity
  8
0
370
    35
390
0
 62
     7
 48
0.03125
100
AcDbLine
 10
1044.928223
 20
345.639252
 30
0.0
 11
1046.178223
 21
345.639252
 31
0.0
210
0.0
220
0.0
230
1.0
  0
LINE
  5
129
100
AcDbEntity
  8
0
370
    35
390
0
 62
     7
 48
0.06
100
AcDbLine
 10
1046.178223
 20
345.639252
 30
0.0
 11
1046.178223
 21
343.239258
 31
0.0
210
0.0
220
0.0
230
1.0
  0
LINE
  5
12A
100
AcDbEntity
  8
0
370
    35
390
0
 62
     7
 48
0.03125
100
AcDbLine
 10
1046.178223
 20
343.239258
 30
0.0
 11
1044.928223
 21
343.239258
 31
0.0
210
0.0
220
0.0
230
1.0
  0
LINE
  5
12B
100
AcDbEntity
  8
0
370
    35
390
0
 62
     7
 48
0.065
100
AcDbLine
 10
1044.928223
 20
343.239258
 30
0.0
 11
1044.928223
 21
340.639252
 31
0.0
210
0.0
220
0.0
230
1.0
  0
LINE
  5
12C
100
AcDbEntity
  8
0
370
    35
390
0
 62
     7
 48
0.075
100
AcDbLine
 10
1044.928223
 20
340.639252
 30
0.0
 11
1041.928223
 21
340.639252
 31
0.0
210
0.0
220
0.0
230
1.0
  0
LINE
  5
12D
100
AcDbEntity
  8
0
370
    35
390
0
 62
     7
 48
0.065
100
AcDbLine
 10
1041.928223
 20
340.639252
 30
0.0
 11
1041.928223
 21
343.239258
 31
0.0
210
0.0
220
0.0
230
1.0
  0
LINE
  5
12E
100
AcDbEntity
  8
0
370
    35
390
0
 62
     7
 48
0.03125
100
AcDbLine
 10
1041.928223
 20
343.239258
 30
0.0
 11
1040.678223
 21
343.239258
 31
0.0
210
0.0
220
0.0
230
1.0
  0
LINE
  5
12F
100
AcDbEntity
  8
0
370
    35
390
0
 62
     7
 48
0.06
100
AcDbLine
 10
1040.678223
 20
343.239258
 30
0.0
 11
1040.678223
 21
345.639252
 31
0.0
210
0.0
220
0.0
230
1.0
  0
LINE
  5
130
100
AcDbEntity
  8
0
370
    35
390
0
 62
     7
 48
0.03125
100
AcDbLine
 10
1040.678223
 20
345.639252
 30
0.0
 11
1041.928223
 21
345.639252
 31
0.0
210
0.0
220
0.0
230
1.0
  0
LINE
  5
131
100
AcDbEntity
  8
0
370
    35
390
0
 62
     7
 48
0.075
100
AcDbLine
 10
1041.928223
 20
345.639252
 30
0.0
 11
1041.928223
 21
348.639252
 31
0.0
210
0.0
220
0.0
230
1.0
  0
LINE
  5
132
100
AcDbEntity
  8
0
370
    35
390
0
 62
     7
 48
0.2125
100
AcDbLine
 10
1033.428223
 20
348.639252
 30
0.0
 11
1041.928223
 21
348.639252
 31
0.0
210
0.0
220
0.0
230
1.0
  0
LINE
  5
133
100
AcDbEntity
  8
0
370
    35
390
0
 62
     7
 48
0.07
100
AcDbLine
 10
1033.428223
 20
351.43927
 30
0.0
 11
1033.428223
 21
348.639252
 31
0.0
210
0.0
220
0.0
230
1.0
  0
ARC
  5
134
100
AcDbEntity
  8
0
370
    35
390
0
 62
     7
100
AcDbCircle
 10
1032.728271
 20
351.43927
 30
0.0
 40
0.7
210
0.0
220
0.0
230
1.0
100
AcDbArc
 50
0.0
 51
90.000003
  0
LINE
  5
135
100
AcDbEntity
  8
0
370
    35
390
0
 62
     7
 48
0.465001
100
AcDbLine
 10
1014.128235
 20
352.139252
 30
0.0
 11
1032.728271
 21
352.139252
 31
0.0
210
0.0
220
0.0
230
1.0
  0
ARC
  5
136
100
AcDbEntity
  8
0
370
    35
390
0
 62
     7
100
AcDbCircle
 10
1014.128235
 20
351.43927
 30
0.0
 40
0.7
210
0.0
220
0.0
230
1.0
100
AcDbArc
 50
90.000003
 51
180.000005
  0
LINE
  5
137
100
AcDbEntity
  8
0
370
    35
390
0
 62
     7
 48
0.07
100
AcDbLine
 10
1013.428223
 20
348.639252
 30
0.0
 11
1013.428223
 21
351.43927
 31
0.0
210
0.0
220
0.0
230
1.0
  0
LINE
  5
138
100
AcDbEntity
  8
0
370
    35
390
0
 62
     7
 48
0.2
100
AcDbLine
 10
1005.428223
 20
348.639252
 30
0.0
 11
1013.428223
 21
348.639252
 31
0.0
210
0.0
220
0.0
230
1.0
  0
ARC
  5
139
100
AcDbEntity
  8
0
370
    35
390
0
 62
     7
100
AcDbCircle
 10
1005.428223
 20
346.639252
 30
0.0
 40
2.0
210
0.0
220
0.0
230
1.0
100
AcDbArc
 50
90.000003
 51
180.000005
  0
LINE
  5
13A
100
AcDbEntity
  8
0
370
    35
390
0
 62
     7
100
AcDbLine
 10
1003.428223
 20
295.639252
 30
0.0
 11
1003.428223
 21
346.639252
 31
0.0
210
0.0
220
0.0
230
1.0
  0
ARC
  5
13B
100
AcDbEntity
  8
0
370
    35
390
0
 62
     7
100
AcDbCircle
 10
1005.428223
 20
295.639252
 30
0.0
 40
2.0
210
0.0
220
0.0
230
1.0
100
AcDbArc
 50
180.000005
 51
269.999997
  0
LINE
  5
13C
100
AcDbEntity
  8
0
370
    35
390
0
 62
     7
 48
0.0675
100
AcDbLine
 10
1008.128235
 20
293.639252
 30
0.0
 11
1005.428223
 21
293.639252
 31
0.0
210
0.0
220
0.0
230
1.0
  0
LINE
  5
13D
100
AcDbEntity
  8
0
370
    35
390
0
 62
     7
 48
0.075
100
AcDbLine
 10
1008.128235
 20
296.639252
 30
0.0
 11
1008.128235
 21
293.639252
 31
0.0
210
0.0
220
0.0
230
1.0
  0
LINE
  5
13E
100
AcDbEntity
  8
0
370
    35
390
0
 62
     7
 48
0.03125
100
AcDbLine
 10
1006.878235
 20
296.639252
 30
0.0
 11
1008.128235
 21
296.639252
 31
0.0
210
0.0
220
0.0
230
1.0
  0
LINE
  5
13F
100
AcDbEntity
  8
0
370
    35
390
0
 62
     7
 48
0.06
100
AcDbLine
 10
1006.878235
 20
299.039246
 30
0.0
 11
1006.878235
 21
296.639252
 31
0.0
210
0.0
220
0.0
230
1.0
  0
LINE
  5
140
100
AcDbEntity
  8
0
370
    35
390
0
 62
     7
 48
0.03125
100
AcDbLine
 10
1006.878235
 20
299.039246
 30
0.0
 11
1008.128235
 21
299.039246
 31
0.0
210
0.0
220
0.0
230
1.0
  0
LINE
  5
141
100
AcDbEntity
  8
0
370
    35
390
0
 62
     7
 48
0.065
100
AcDbLine
 10
1008.128235
 20
301.639252
 30
0.0
 11
1008.128235
 21
299.039246
 31
0.0
210
0.0
220
0.0
230
1.0
  0
LINE
  5
142
100
AcDbEntity
  8
0
370
    35
390
0
 62
     7
 48
0.075
100
AcDbLine
 10
1008.128235
 20
301.639252
 30
0.0
 11
1011.128235
 21
301.639252
 31
0.0
210
0.0
220
0.0
230
1.0
  0
LINE
  5
143
100
AcDbEntity
  8
0
370
    35
390
0
 62
     7
 48
0.065
100
AcDbLine
 10
1011.128235
 20
301.639252
 30
0.0
 11
1011.128235
 21
299.039246
 31
0.0
210
0.0
220
0.0
230
1.0
  0
LINE
  5
144
100
AcDbEntity
  8
0
370
    35
390
0
 62
     7
 48
0.03125
100
AcDbLine
 10
1011.128235
 20
299.039246
 30
0.0
 11
1012.378235
 21
299.039246
 31
0.0
210
0.0
220
0.0
230
1.0
  0
LINE
  5
145
100
AcDbEntity
  8
0
370
    35
390
0
 62
     7
 48
0.06
100
AcDbLine
 10
1012.378235
 20
299.039246
 30
0.0
 11
1012.378235
 21
296.639252
 31
0.0
210
0.0
220
0.0
230
1.0
  0
LINE
  5
146
100
AcDbEntity
  8
0
370
    35
390
0
 62
     7
 48
0.03125
100
AcDbLine
 10
1011.128235
 20
296.639252
 30
0.0
 11
1012.378235
 21
296.639252
 31
0.0
210
0.0
220
0.0
230
1.0
  0
LINE
  5
147
100
AcDbEntity
  8
0
370
    35
390
0
 62
     7
 48
0.075
100
AcDbLine
 10
1011.128235
 20
296.639252
 30
0.0
 11
1011.128235
 21
293.639252
 31
0.0
210
0.0
220
0.0
230
1.0
  0
LINE
  5
148
100
AcDbEntity
  8
0
370
    35
390
0
 62
     7
100
AcDbLine
 10
1035.828247
 20
293.639252
 30
0.0
 11
1011.128235
 21
293.639252
 31
0.0
210
0.0
220
0.0
230
1.0
  0
LINE
  5
149
100
AcDbEntity
  8
0
370
    35
390
0
 62
     7
 48
0.07
100
AcDbLine
 10
1035.828247
 20
293.639252
 30
0.0
 11
1035.828247
 21
290.839233
 31
0.0
210
0.0
220
0.0
230
1.0
  0
ARC
  5
14A
100
AcDbEntity
  8
0
370
    35
390
0
 62
     7
100
AcDbCircle
 10
1036.528198
 20
290.839233
 30
0.0
 40
0.7
210
0.0
220
0.0
230
1.0
100
AcDbArc
 50
180.000005
 51
269.999997
  0
LINE
  5
14B
100
AcDbEntity
  8
0
370
    35
390
0
 62
     7
 48
0.345001
100
AcDbLine
 10
1036.528198
 20
290.139252
 30
0.0
 11
1050.328247
 21
290.139252
 31
0.0
210
0.0
220
0.0
230
1.0
  0
ARC
  5
14C
100
AcDbEntity
  8
0
370
    35
390
0
 62
     7
100
AcDbCircle
 10
1050.328247
 20
290.839233
 30
0.0
 40
0.7
210
0.0
220
0.0
230
1.0
100
AcDbArc
 50
269.999997
 51
0.0
  0
LINE
  5
14D
100
AcDbEntity
  8
0
370
    35
390
0
 62
     7
 48
0.07
100
AcDbLine
 10
1051.028198
 20
293.639252
 30
0.0
 11
1051.028198
 21
290.839233
 31
0.0
210
0.0
220
0.0
230
1.0
  0
LINE
  5
14E
100
AcDbEntity
  8
0
370
    35
390
0
 62
     7
100
AcDbLine
 10
1075.728271
 20
293.639252
 30
0.0
 11
1051.028198
 21
293.639252
 31
0.0
210
0.0
220
0.0
230
1.0
  0
LINE
  5
14F
100
AcDbEntity
  8
0
370
    35
390
0
 62
     7
 48
0.075
100
AcDbLine
 10
1075.728271
 20
296.639252
 30
0.0
 11
1075.728271
 21
293.639252
 31
0.0
210
0.0
220
0.0
230
1.0
  0
LINE
  5
150
100
AcDbEntity
  8
0
370
    35
390
0
 62
     7
 48
0.03125
100
AcDbLine
 10
1074.478271
 20
296.639252
 30
0.0
 11
1075.728271
 21
296.639252
 31
0.0
210
0.0
220
0.0
230
1.0
  0
LINE
  5
151
100
AcDbEntity
  8
0
370
    35
390
0
 62
     7
 48
0.06
100
AcDbLine
 10
1074.478271
 20
299.039246
 30
0.0
 11
1074.478271
 21
296.639252
 31
0.0
210
0.0
220
0.0
230
1.0
  0
LINE
  5
152
100
AcDbEntity
  8
0
370
    35
390
0
 62
     7
 48
0.03125
100
AcDbLine
 10
1074.478271
 20
299.039246
 30
0.0
 11
1075.728271
 21
299.039246
 31
0.0
210
0.0
220
0.0
230
1.0
  0
LINE
  5
153
100
AcDbEntity
  8
0
370
    35
390
0
 62
     7
 48
0.065
100
AcDbLine
 10
1075.728271
 20
301.639252
 30
0.0
 11
1075.728271
 21
299.039246
 31
0.0
210
0.0
220
0.0
230
1.0
  0
LINE
  5
154
100
AcDbEntity
  8
0
370
    35
390
0
 62
     7
 48
0.075
100
AcDbLine
 10
1075.728271
 20
301.639252
 30
0.0
 11
1078.728271
 21
301.639252
 31
0.0
210
0.0
220
0.0
230
1.0
  0
LINE
  5
155
100
AcDbEntity
  8
0
370
    35
390
0
 62
     7
 48
0.065
100
AcDbLine
 10
1078.728271
 20
301.639252
 30
0.0
 11
1078.728271
 21
299.039246
 31
0.0
210
0.0
220
0.0
230
1.0
  0
LINE
  5
156
100
AcDbEntity
  8
0
370
    35
390
0
 62
     7
 48
0.03125
100
AcDbLine
 10
1078.728271
 20
299.039246
 30
0.0
 11
1079.978271
 21
299.039246
 31
0.0
210
0.0
220
0.0
230
1.0
  0
LINE
  5
157
100
AcDbEntity
  8
0
370
    35
390
0
 62
     7
 48
0.06
100
AcDbLine
 10
1079.978271
 20
299.039246
 30
0.0
 11
1079.978271
 21
296.639252
 31
0.0
210
0.0
220
0.0
230
1.0
  0
LINE
  5
158
100
AcDbEntity
  8
0
370
    35
390
0
 62
     7
 48
0.03125
100
AcDbLine
 10
1078.728271
 20
296.639252
 30
0.0
 11
1079.978271
 21
296.639252
 31
0.0
210
0.0
220
0.0
230
1.0
  0
LINE
  5
159
100
AcDbEntity
  8
0
370
    35
390
0
 62
     7
 48
0.075
100
AcDbLine
 10
1078.728271
 20
296.639252
 30
0.0
 11
1078.728271
 21
293.639252
 31
0.0
210
0.0
220
0.0
230
1.0
  0
LINE
  5
15A
100
AcDbEntity
  8
0
370
    35
390
0
 62
     7
 48
0.067499
100
AcDbLine
 10
1081.428223
 20
293.639252
 30
0.0
 11
1078.728271
 21
293.639252
 31
0.0
210
0.0
220
0.0
230
1.0
  0
ARC
  5
15B
100
AcDbEntity
  8
0
370
    35
390
0
 62
     7
100
AcDbCircle
 10
1081.428223
 20
295.639252
 30
0.0
 40
2.0
210
0.0
220
0.0
230
1.0
100
AcDbArc
 50
269.999997
 51
360.0
  0
LINE
  5
15C
100
AcDbEntity
  8
0
370
    35
390
0
 62
     7
100
AcDbLine
 10
1083.428223
 20
295.639252
 30
0.0
 11
1083.428223
 21
346.639252
 31
0.0
210
0.0
220
0.0
230
1.0
  0
ARC
  5
15D
100
AcDbEntity
  8
0
370
    35
390
0
 62
     7
100
AcDbCircle
 10
1081.428223
 20
346.639252
 30
0.0
 40
2.0
210
0.0
220
0.0
230
1.0
100
AcDbArc
 50
0.0
 51
90.000003
  0
LINE
  5
15E
100
AcDbEntity
  8
0
370
    35
390
0
 62
     7
 48
0.2
100
AcDbLine
 10
1073.428223
 20
348.639252
 30
0.0
 11
1081.428223
 21
348.639252
 31
0.0
210
0.0
220
0.0
230
1.0
  0
LINE
  5
15F
100
AcDbEntity
  8
0
370
    35
390
0
 62
     7
 48
0.07
100
AcDbLine
 10
1073.428223
 20
351.43927
 30
0.0
 11
1073.428223
 21
348.639252
 31
0.0
210
0.0
220
0.0
230
1.0
  0
ARC
  5
160
100
AcDbEntity
  8
0
370
    35
390
0
 62
     7
100
AcDbCircle
 10
1072.728271
 20
351.43927
 30
0.0
 40
0.7
210
0.0
220
0.0
230
1.0
100
AcDbArc
 50
0.0
 51
90.000003
  0
LINE
  5
161
100
AcDbEntity
  8
0
370
    35
390
0
 62
     7
 48
0.465002
100
AcDbLine
 10
1054.128174
 20
352.139252
 30
0.0
 11
1072.728271
 21
352.139252
 31
0.0
210
0.0
220
0.0
230
1.0
  0
ARC
  5
162
100
AcDbEntity
  8
0
370
    35
390
0
 62
     7
100
AcDbCircle
 10
1054.128174
 20
351.43927
 30
0.0
 40
0.7
210
0.0
220
0.0
230
1.0
100
AcDbArc
 50
90.000003
 51
180.000005
  0
LINE
  5
163
100
AcDbEntity
  8
0
370
    35
390
0
 62
     7
 48
0.07
100
AcDbLine
 10
1053.428223
 20
348.639252
 30
0.0
 11
1053.428223
 21
351.43927
 31
0.0
210
0.0
220
0.0
230
1.0
  0
LINE
  5
164
100
AcDbEntity
  8
0
370
    35
390
0
 62
     7
 48
0.2125
100
AcDbLine
 10
1044.928223
 20
348.639252
 30
0.0
 11
1053.428223
 21
348.639252
 31
0.0
210
0.0
220
0.0
230
1.0
  0
CIRCLE
  5
165
100
AcDbEntity
  8
0
370
    35
390
0
 62
     7
100
AcDbCircle
 10
1078.616211
 20
338.582092
 30
0.0
 40
1.5
210
0.0
220
0.0
230
1.0
  0
CIRCLE
  5
166
100
AcDbEntity
  8
0
370
    35
390
0
 62
     7
100
AcDbCircle
 10
1078.616211
 20
320.96106
 30
0.0
 40
1.5
210
0.0
220
0.0
230
1.0
  0
CIRCLE
  5
167
100
AcDbEntity
  8
0
370
    35
390
0
 62
     7
100
AcDbCircle
 10
1033.428223
 20
307.839233
 30
0.0
 40
3.0
210
0.0
220
0.0
230
1.0
  0
LINE
  5
168
100
AcDbEntity
  8
0
370
    35
390
0
 62
     7
 48
0.132922
100
AcDbLine
 10
1010.769775
 20
311.815674
 30
0.0
 11
1016.08667
 21
311.815674
 31
0.0
210
0.0
220
0.0
230
1.0
  0
LINE
  5
169
100
AcDbEntity
  8
0
370
    35
390
0
 62
     7
 48
0.19882
100
AcDbLine
 10
1016.08667
 20
311.815674
 30
0.0
 11
1016.08667
 21
303.862854
 31
0.0
210
0.0
220
0.0
230
1.0
  0
LINE
  5
16A
100
AcDbEntity
  8
0
370
    35
390
0
 62
     7
 48
0.132922
100
AcDbLine
 10
1016.08667
 20
303.862854
 30
0.0
 11
1010.769775
 21
303.862854
 31
0.0
210
0.0
220
0.0
230
1.0
  0
LINE
  5
16B
100
AcDbEntity
  8
0
370
    35
390
0
 62
     7
 48
0.19882
100
AcDbLine
 10
1010.769775
 20
303.862854
 30
0.0
 11
1010.769775
 21
311.815674
 31
0.0
210
0.0
220
0.0
230
1.0
  0
CIRCLE
  5
16C
100
AcDbEntity
  8
0
370
    35
390
0
 62
     7
100
AcDbCircle
 10
1024.928223
 20
299.139252
 30
0.0
 40
1.5
210
0.0
220
0.0
230
1.0
  0
CIRCLE
  5
16D
100
AcDbEntity
  8
0
370
    35
390
0
 62
     7
100
AcDbCircle
 10
1024.928223
 20
316.539246
 30
0.0
 40
1.5
210
0.0
220
0.0
230
1.0
  0
ENDSEC
  0
SECTION
  2
OBJECTS
  0
DICTIONARY
  5
19
100
AcDbDictionary
280
     0
281
     1
  3
ACAD_GROUP
350
1A
  3
ACAD_MLINESTYLE
350
1B
  3
ACAD_LAYOUT
350
1E
  3
ACAD_PLOTSETTINGS
350
22
  3
ACAD_PLOTSTYLENAME
350
1F
  3
ACAD_WIPEOUT_VARS
350
23
  0
DICTIONARY
  5
1A
102
{ACAD_REACTORS
330
19
102
}
100
AcDbDictionary
280
     0
281
     1
  0
DICTIONARY
  5
1B
102
{ACAD_REACTORS
330
19
102
}
100
AcDbDictionary
280
     0
281
     1
  3
Standard
350
1C
  0
MLINESTYLE
  5
1C
102
{ACAD_REACTORS
330
1B
102
}
100
AcDbMlineStyle
  2
Standard
 70
     0
  3

 62
     0
 51
90.0
 52
90.0
 71
     2
 49
0.5
 62
   256
  6
ByLayer
 49
-0.5
 62
   256
  6
ByLayer
  0
ACDBDICTIONARYWDFLT
  5
1F
102
{ACAD_REACTORS
330
19
102
}
100
AcDbDictionary
281
     1
  3
Normal
350
1D
100
AcDbDictionaryWithDefault
340
1D
  0
ACDBPLACEHOLDER
  5
1D
102
{ACAD_REACTORS
330
1F
102
}
  0
LAYOUT
  5
20
102
{ACAD_REACTORS
330
1E
102
}
100
AcDbPlotSettings
  1

  2

  4

  6

 40
0.0
 41
0.0
 42
0.0
 43
0.0
 44
0.0
 45
0.0
 46
0.0
 47
0.0
 48
0.0
 49
0.0
140
0.0
141
0.0
142
1.0
143
1.0
 70
  1024
 72
     0
 73
     0
 74
     0
  7

 75
     0
147
1.0
148
0.0
149
0.0
100
AcDbLayout
  1
Model
 70
     0
 71
     0
 10
0.0
 20
0.0
 11
0.0
 21
0.0
 12
0.0
 22
0.0
 32
0.0
 14
0.0
 24
0.0
 34
0.0
 15
0.0
 25
0.0
 35
0.0
146
0.0
 13
0.0
 23
0.0
 33
0.0
 16
0.0
 26
0.0
 36
0.0
 17
0.0
 27
0.0
 37
0.0
 76
     0
330
A
331
0
345
0
346
0
  0
LAYOUT
  5
21
102
{ACAD_REACTORS
330
1E
102
}
100
AcDbPlotSettings
  1

  2

  4

  6

 40
0.0
 41
0.0
 42
0.0
 43
0.0
 44
0.0
 45
0.0
 46
0.0
 47
0.0
 48
0.0
 49
0.0
140
0.0
141
0.0
142
1.0
143
1.0
 70
     0
 72
     0
 73
     0
 74
     0
  7

 75
     0
147
1.0
148
0.0
149
0.0
100
AcDbLayout
  1
Layout1
 70
     0
 71
     0
 10
0.0
 20
0.0
 11
0.0
 21
0.0
 12
0.0
 22
0.0
 32
0.0
 14
0.0
 24
0.0
 34
0.0
 15
0.0
 25
0.0
 35
0.0
146
0.0
 13
0.0
 23
0.0
 33
0.0
 16
0.0
 26
0.0
 36
0.0
 17
0.0
 27
0.0
 37
0.0
 76
     0
330
B
331
0
345
0
346
0
  0
DICTIONARY
  5
1E
102
{ACAD_REACTORS
330
19
102
}
100
AcDbDictionary
280
     0
281
     1
  3
Layout1
350
21
  3
Model
350
20
  0
DICTIONARY
  5
22
102
{ACAD_REACTORS
330
19
102
}
100
AcDbDictionary
280
     0
281
     1
  0
WIPEOUTVARIABLES
  5
23
100
AcDbWipeoutVariables
 70
     1
  0
ENDSEC
  0
EOF
